<mxfile host="65bd71144e">
    <diagram id="cXcT9OzYzbBdI6NUy0BX" name="Page-1">
        <mxGraphModel dx="1326" dy="658" grid="1" gridSize="10" guides="1" tooltips="1" connect="1" arrows="1" fold="1" page="1" pageScale="1" pageWidth="850" pageHeight="1100" math="0" shadow="0">
            <root>
                <mxCell id="0"/>
                <mxCell id="1" parent="0"/>
                <mxCell id="2" value="&lt;font style=&quot;font-size: 36px;&quot;&gt;Welcome to Yummy Pastries, in JS&lt;/font&gt;" style="text;html=1;align=center;verticalAlign=middle;resizable=0;points=[];autosize=1;strokeColor=none;fillColor=none;" vertex="1" parent="1">
                    <mxGeometry x="110" y="35" width="580" height="60" as="geometry"/>
                </mxCell>
                <mxCell id="3" value="&lt;font style=&quot;font-size: 24px;&quot;&gt;Please select the pastry you want to purchase.&lt;/font&gt;" style="text;html=1;align=center;verticalAlign=middle;resizable=0;points=[];autosize=1;strokeColor=none;fillColor=none;" vertex="1" parent="1">
                    <mxGeometry x="20" y="140" width="520" height="40" as="geometry"/>
                </mxCell>
                <mxCell id="4" value="&lt;font style=&quot;font-size: 18px;&quot;&gt;Dropdown menu&lt;/font&gt;" style="rounded=1;whiteSpace=wrap;html=1;" vertex="1" parent="1">
                    <mxGeometry x="40" y="200" width="170" height="70" as="geometry"/>
                </mxCell>
                <mxCell id="5" value="&lt;font style=&quot;font-size: 24px;&quot;&gt;Please enter the number of pastries you would like to purchase.&lt;/font&gt;" style="text;html=1;align=center;verticalAlign=middle;resizable=0;points=[];autosize=1;strokeColor=none;fillColor=none;" vertex="1" parent="1">
                    <mxGeometry x="20" y="310" width="700" height="40" as="geometry"/>
                </mxCell>
                <mxCell id="6" value="&lt;span style=&quot;color: rgb(63, 63, 63); font-family: Helvetica; font-size: 24px; font-style: normal; font-variant-ligatures: normal; font-variant-caps: normal; font-weight: 400; letter-spacing: normal; orphans: 2; text-align: center; text-indent: 0px; text-transform: none; widows: 2; word-spacing: 0px; -webkit-text-stroke-width: 0px; white-space: nowrap; background-color: rgb(251, 251, 251); text-decoration-thickness: initial; text-decoration-style: initial; text-decoration-color: initial; display: inline !important; float: none;&quot;&gt;You can not buy more than 20 pastries.&lt;/span&gt;" style="text;whiteSpace=wrap;html=1;" vertex="1" parent="1">
                    <mxGeometry x="30" y="350" width="450" height="50" as="geometry"/>
                </mxCell>
                <mxCell id="7" value="&lt;font style=&quot;font-size: 18px;&quot;&gt;Enter number of pastries here...&lt;/font&gt;" style="rounded=1;whiteSpace=wrap;html=1;" vertex="1" parent="1">
                    <mxGeometry x="40" y="420" width="710" height="60" as="geometry"/>
                </mxCell>
                <mxCell id="8" value="&lt;font style=&quot;font-size: 24px;&quot;&gt;Checkout&lt;/font&gt;" style="rounded=1;whiteSpace=wrap;html=1;" vertex="1" parent="1">
                    <mxGeometry x="40" y="520" width="150" height="60" as="geometry"/>
                </mxCell>
                <mxCell id="9" value="" style="shape=image;verticalLabelPosition=bottom;labelBackgroundColor=default;verticalAlign=top;aspect=fixed;imageAspect=0;image=data:image/jpeg,/9j/4AAQSkZJRgABAQEASABIAAD/4UojRXhpZgAASUkqAAgAAAAEABoBBQABAAAAPgAAABsBBQABAAAARgAAACgBAwABAAAAAgAAAGmHBAABAAAATgAAAGwAAABIAAAAAQAAAEgAAAABAAAAAgAAkAcABAAAADAyMzEBoAMAAQAAAAEAAAAAAAAABgADAQMAAQAAAAYAAAAaAQUAAQAAALoAAAAbAQUAAQAAAMIAAAAoAQMAAQAAAAIAAAABAgQAAQAAAMoAAAACAgQAAQAAAFFJAAAAAAAASAAAAAEAAABIAAAAAQAAAP/Y/9sAhAAGBAQEBQQGBQUGCQYFBgkLCAYGCAsMCgoLCgoMEAwMDAwMDBAMDAwMDAwMDAwMDAwMDAwMDAwMDAwMDAwMDAwMAQcHBw0MDRgQEBgUDg4OFBQODg4OFBEMDAwMDBERDAwMDAwMEQwMDAwMDAwMDAwMDAwMDAwMDAwMDAwMDAwMDAz/3QAEACD/7gAOQWRvYmUAZMAAAAAB/8AAEQgAywEAAwARAAERAQIRAf/EAaIAAAAHAQEBAQEAAAAAAAAAAAQFAwIGAQAHCAkKCwEAAgIDAQEBAQEAAAAAAAAAAQACAwQFBgcICQoLEAACAQMDAgQCBgcDBAIGAnMBAgMRBAAFIRIxQVEGE2EicYEUMpGhBxWxQiPBUtHhMxZi8CRygvElQzRTkqKyY3PCNUQnk6OzNhdUZHTD0uIIJoMJChgZhJRFRqS0VtNVKBry4/PE1OT0ZXWFlaW1xdXl9WZ2hpamtsbW5vY3R1dnd4eXp7fH1+f3OEhYaHiImKi4yNjo+Ck5SVlpeYmZqbnJ2en5KjpKWmp6ipqqusra6voRAAICAQIDBQUEBQYECAMDbQEAAhEDBCESMUEFURNhIgZxgZEyobHwFMHR4SNCFVJicvEzJDRDghaSUyWiY7LCB3PSNeJEgxdUkwgJChgZJjZFGidkdFU38qOzwygp0+PzhJSktMTU5PRldYWVpbXF1eX1RlZmdoaWprbG1ub2R1dnd4eXp7fH1+f3OEhYaHiImKi4yNjo+DlJWWl5iZmpucnZ6fkqOkpaanqKmqq6ytrq+v/aAAwDAAABEQIRAD8A9H1zFculpwJdirq4LWmxQ4pbFcVXIASAdhiEO1DWtMsouErGoH2QN8s8SEWeDSZMhsMQ1Lzo5LJar6a/zH7WUS1Pc73B2UBvLdjz6pcXM1KtLIeygscp4yXYjDGA7gn+m6RLHEL3VP8AR7VPiEbfacjcCmXxh1lsHX59SCeDH6pn/YsR8xeYU1DXkWM7BwzU7KvQZSZ8UnMx4PCxUqarrRElvADUt8T+w6DMfXZdhFweDmXoHl+59bSYGLVIWh+jL9ObgHT5hUiji+XtVNMwOKrcVdywocWGKVhOBVpxVqmCktEbY0q3FWicVWnAQladsCtcsNrTRxVYTgVacVWlhgtNP//Q9HZiOY1gSslmihTnM4RelT/DJCJLOGMyNALPrENK8uI60YUNPHCcRZ+EWorq3krwlVqdaHB4UllhkOYREciuoKmo8RkDtzazEhVWmNsaSvzBbRXaEGhZR1zV6zc7HcOboshgUp0/QtI+qtNdBQY6+oznb8czNGIyhZ5jm5ubWZeKo9UDqPnfypokTG0jE8q90FFH+yy2eqxwGzKGgz5T6zwhg+uectV1urLKFhP2UQ9BmKcxybku3waXHhHpG6TWsYt5DNL9o/ZXuxwTzRgEZLkjbcSTT+tIasxA+Q7DNZLIZysuHkD1DSriKw0mH6w4UU3J8T2zd4IERAdMcUssyIhBXmv3st/wsn/0ZQKNx+0e9a5lxh3u0w6CEcfrHrTKDXrNnW3k5C6oC0aqW699gdsRiF83Cn2dKuIfQqza1p8LhJnaFj09RSoPyJxOLzao9n5JC4+pFJKjgMjBgRUEeByuUCObizxyjzbrkWDVcCurhQ4nFWq7YqsOBLWBK2uKrTSmKrCcilaWxtNLSScbWlprgVojGlt//9H0fTMRzG2U+nIFYLIFPEnoCRtXLoY+rKPMXyS+drZIYGlUSTQHk5bf4jtXLKcuAkSa2EkpurmOaF5GcAQ7vy3+PqXI6O37KcvhXIndzseMxIFfV+OH+j/SULN5Wi9YAlOxau/y2P8AwqLhi2ZQLr8fj/OXR61NAxCycmU1dfAe6kK304JUeaJaUS6Mh0vUor6D1E2ZTR18DmLIUXVajAccqK7UoiYxICaKasBmFq8dgHuRglvTC9ZuTJbNE4qsrEEA9SOm2aqOeUR73dYRwmx0eeatpvOVjXkq7cewyuUzI7uwjmKWJp3puCp4MelDTEGuTLxCi1I+J2bkyDeuJJO7AyRNlqUK3sag1DBSa9t8v04uQcPUmolncbtqMSQxyFGJHBqcgD7jN3ikQdnA0ubwpXXECkfmXVtY8takto0cV3zA4SAMhJPalT3y7PmOM1VvT6DTYtXj4rlBMfMOqzaJp9ndywx/pe5jHMbsqjrwA/aO+WZJ8Ebr1FxdFp455yiCfBgfxJMrZ530iO+ubUwrKq/XbGX4wFb/AHZHXdflk4kmNkOJMRGUwjLi4f7vJH0/5k0M9xJo2ppAsxeyno0D1rSvQYnY0fpLaMY1GMkj1x+plFvdLKtCfjAqR4g98x8kOEvO58JgfJWByDQ4YUOxVxxVo4qsIwUlaRgpWqY0q0gY0qw5Fk0Riq3phQtJwFL/AP/S9IrStTuB1zGjuXMpKdW1B4mPEFoH6MvY/PMi6dhpsAl/WS1dShJBEqk+D/Cfv6Ybcs4D3LbiCwvR+9YIdqlHShoehHfAQCyhOePlv8C1c6Razkm6mT0ztFQOr0/1uXX/AFVwGF81x6mUfpBv+L6eH/cpRNp9tHcfVI9RM8qDlA0iksnipcdV8chVGrc6OeRjxGHCP4uH+L/NRXlq9msvMb6dM4YSR1HCpWpHIUrlGU0XH18BkwiY6FmszVjIPQ9spnuHQxG7A9ejWKZqHjvyX55oM2Ewltyd1gycQYFrF+IWuK9HIO/zyvi5udCPJJZNR5mIr1Q9fEYeLkzqkp1LWRCkhrRmrg3J96hry1Ld6lqtnEgJaR1QBRU7mhP0ZsdPDh5uBnPEfJ9CSw/o2C3hgjCW60HMb1p1JOdDwiI2cfCBK2PeYvqd9e2ss9PVt5BJE56Hj2ORyREq8nb6HixwkI8pD1L9bu4pp7S4mhE7Wzc4yKMVNKV/HJTo1bHSYjGMog8PErpcanNb6he3pCWrwiO3Q7MWJrWhw77k8mswxxlCEPr4uKaV69UeXNLdv70xvxJ60VjxOVT+kOXpD+/yVysJnp2oO2l2F+v2mZY3XxDbHDM3C3X6zAOKcP8AOZNXMV59cOmFDVcVbwodUYbRSxjvkSkLScUra4qtrvgVo4ErSdsVUycCVhOBL//T9IeoUDUO/EkDxzGxndzxG2G6nMPrD/VroW8o+1FL8NSfDsctJ7nf6eHpHFHiH86KWSz6pvyt7WQfzs0dP14LPc5kYY+hmP8ATKDaw1sAZ7q3tWbZYrRBJKfkRsMeOudBmNLx8ozn/SyHggpXfmAwANOr26vtFBXleTsegJ6oDgOT8fxMoaQHkeL+l/kcf/FqEuuxi44XNHmiCtNFGQED/wC6rev8qfafISmOv4/otg023p5H+d/s8v8AnfwoAavINUa/ZiJQa/DsdtqDNbq833tWfEBARHJ6wtz6ltHIRTmganWlRXL72eXMaNMc1+ziu4mVxXuD3ByicbcjFKnlvmLQ79FdYnEqVJAk3PyqMw5acF2OPOWE336agYKsaoB1IqcrGnpu8W0sa2u7iTlcEn/JpQZbDGAwlIl7H+RXlqF7q51iZVb6sBFAP5WO7H/gcvjGzTr9XKo0P4mV+aJ7qw1NmtZWSJ1qqdqk75t48UQLdp2fCOTH6hux6LUZr2X0pbJbuY9AoYMf+Aw8V9HaSwDGLEuCP4/nJus1jpMfqXccNtKRtaw/HMf9dyW4D/hsnYjzcExnmNRMpj+fL04/82P8SVXPmK81SZLOBBSZwsUa+JNMgchOzm49FDCDMn6VLz1fxwtFZRNyjso1gBHdgKH8cjllRruYdnQPCZnnklxpxpNxDbWek2TGrKVMgHjT+uOSXDCnX67fjn3sv5ZjvNrgRkgxcTiruWKtFsVaJrihaTilacVWnAq0k4GTRxVTORStxV//1PRkrcHRj9k1Rj4Bs18p8JBdlEWCw7zBbTC4ZKR3KkbRy7NT/JbbMiRvlu77RZBw3vD+qxK8hCE10SZz/kytxysjy+13MMh/1Qf6VLJ7zU7ZCVS00KEjeZiHuCPbq1cFkd0GfpkdzLMf9h/xKVx3/Fmew9QySbS6rc7zMD1ESfsVyozrl/pm4xv6v+Vcfo/zlyzw2qBRvKKlU6kMf23P82Y2XUCPvYTyNqLm4uIYEAe4unWNUrTYnc/QM1xkZyDr8s+cjyi9nWUJDHEnRVCqB7Cmbh5g7lK9RvrNLp7RpCJk2eo+GtOmWSwdL3c/Fo5ygJDkwvWtWhW7e3SMSKho713J70ysYRy6u603ZIljuRIkUM0fqE+qFis22WNqAH5+LZkxxgCujmRwQjDgA4ikk+gW4ILusZcn00IJYivU0GwzBjgJ3dVi0WTJZj9MS9K/Ksx22k3ViOKyq5fbatdt/HpkMcuDJu6vW4iKvp6ZIzzNr9hbAi904ysNgSwKfeMzpdoYurlaHSSP0z4WC3nnk8DBp6R2cLn4ltxRj/rN9rK/znF9Lv8AH2fH6pk5SP56AtrPXtValrZyMGP97J8K/Mk75KEZy6N+TNix/VIMks7Oz8rWpuruRJ9XkUiMDeOIHr16tl5rGLP1OvyZZao8MfThH+myMI1e/mvrsMv92rc2Y/tNmNGVmy51CIoJxYXEokgZySwK7A03JoBXMbU5uKQi6jXG/SHqkcvwrXbYbZlB5cqqy5JjSoFkanwn2rt+vJCJPRIiWuLEkChI6gEHD4cu5l4cu5puQO4pkSCw4St5YFpsHxxQ01MSqzAlo++BVpxSsOBWqYq//9X0Z+4uoCqnkjClcwZ47FHk7L1Ql5sR1i5jaVrO+AEq8uJptRem+ag6ieOVO700CBxw5MI1iGNORHqem32fTkZQfuy4a6J57O3x5r58/cxadbdHqsC8hvyILt/wTZE6uPRyfG81NZrmRjx+AU+2d2+jwzHyaqR5bMDkaF1b2w+Gs0tePBPiauY25azZTryXpmvTa2NQuLCfjGh9F2jZR8R2A5AdBmfpcE7vhLga/JEQ4QXsHl+wuGc3F4hTh9hG8fE5udPhN2Xn80qFBif6MN/quo6td3KWmmJO/wC9buA1NvuyIgZSMiai9L+Y8LFDFCJnl4R6Ul1LWPIEc7fV4JLyWtTLLKUUn2VaZA58QO3qdhg02tMfUY4x/NjHiSPUryPUbhTbosMSrxSIEkDeuxPjiJiZdjgxHFH1HiKKsdOenqznZRuTvRVy6Maac2ccgyoWU+jQxajaEuOAaeOo+0Rv/scwdbgNcQealMZMkoy5SLWparp+r2z/ABAsoo422NOmamRvmsccsRYZJohtbuO5gApX417FcnhkYGw50NWeRR2r+dtRt7cWlivpmlGkpTNpl7RoVFIxYr4j6iwm4n1S6mZ7i5d2Pbt92a46iZNkt35gjkirO1uCQZJPhXrUDI+PPvYnUyZF5aSLUdSBNGs7Jg7H+aUfZHyXrl2nhxHiLq9bkMY/0pvRoZndaqCwGxIHSubEOl4UTe3JtUkVKI4litxJ3Hq7s33dMyuER97n6fTRJB5+mU/9Ill1qF5MJ/Qco73i2EJ/33EPtN/rNTCZk3X87hdhjwwjXFyGPxpf05/zVs0jxpPK5Y2tvK9vZ2qsVDGMfFJIRQsWOSBPwTGIJAH1yjx5J/1/4IJZNqN7doICoij5ciEJFQB0P04btzI4IQN8ynmgyyek0TkkLutTWmU5h1dJ2pjFiQTbllLqKcTthQtwJaOKrCdsCWsVdUYof//W71datHYWUKig9SRUjUfyA0r9JzHlIAO9x6Y5JnyH+ySbzxZCa2F2g/exijgdCvv9+aftDDvxBy+zcvCeE8i8rvbm4QRLKWjryjFPs06qc1Yp3nCN6Y5Jq8/FAz9GKnapNO+SDLgFpZLq00lBVmAapqafdTGmVAMn/LDV7G2852cd7AHe89WK3enMrKV5h6eyoy8sz+zSBlG3e4etBljNF7hPezpPGn2VkICMOhr4HOhJdRDFEgnuTnUDJDpNw8X94sTFT7hckeTr8FSygHlxPKbrTNT1KSNbu2k/Qlsga1twyD1Kivqupb42fr8WYZx8fMel7HHnhivhI8WR9cv5v9D+jwu1DTIP0b9bsrKz1Cxj+Ge3e2jSWL50+1jKAAsCMgyxZz4nDOU8c/4ZccpQmi9N8t6O+mGeC29AtvJCpJQe61qVpko4o1YaM2tyxycJPF/SU9N0fU59SWxY105TzkmoeZVdwle9SMMRImujZn1WOOPj/wAp/N/3yPF2Zda1C2LVtg7qqdqdxidyR0cKWMeDE/xU8615LvSNSIjZvR9TlDQ0FGFKH6c53JHhlRcrFkGSG/8AnIGLz1dI0cVyokL8g7rtTielMiAWMtNE7hbL5v02eNS8LKWYg7DDbD8uR1S+fzLZqrmGEsyHo2wI8cFMxiPVK7nzBc3DsjSARMeSImxFB0JHvhps4RFm3kzUVSzRF2Lmr+5ObLEKDoNTLjkS9e0GyubWBpboDhKACimtKdDUbVzYYISB3+loAPLq7ULMXDuzgurgK3cHhujileLrl8oW52DLwgV+P50f6qmtlOfUKRkvJQvsN2HQ7fte+HhZHKNrPJAXnl/W79XgkZIEJLKvMMS/iaDbIShI+Tk4tbhx1IXL4IC58s6vp9nGY76KadWHrmYUhVTvs32iwHb9rBwTA525MNfiyyNxlGP8PB9ajpGtXcGsLaXUUfpyMYkmi5UYnofi6dOmVZZbbuN2jihLFcb29XqZiDlLzTq4bRTuQxVo4qtPTFVjHfAlobYq/wD/1+o2dzLrWq/WpmpYWX7yeQ7LVeiDMAHjlZ+mL2WSIwY+GP1z9Mf+KRWlarJq36QZ97cvWIHsp2A+4ZTklxbuFnxDHwgc2E+a/L15F6kliQ6k8vRfoDWux7Zr8mnB5OXh1Zrd5fq0+r290VksCIq8jxod++VeAXNjnikVzdalPI4itzCCaLXsMMcIHNMs4pk/5aRXlt5x0m4kLXEyylAAOiyKVYj5A1zIwEQmCHGyyuJt9EXFxJZOCFHpyfEgYVGb66cOEBkHmETb+aYHQxXCDiRxJ7UPjkhINM+ziDcSxTXdJv2Z59Kl9a1CgLArfGqgUCqP2v8AiWUzgRyd1o9TAbZRwz/nfwteX7HUbXQ9QnmtpRJdMsccJU8iF+0xXI4okAkhOtzY55oAEVD1cSaaFG0elMJ4zCzqy0m+DalP2ssxDZwtZK8vpPF/VXS6uunaZzfh67j92E6E+IruVH837WJnwx3QNN4uTrwhiXl269a8uJ2NQzE1OU4z1c7UnalPzjozX1ryhp6yDYHow8M1ubEJOt0+o4D5PH71YotQ+rktDLF8TLJt8TfPtXMIwIdtHMCEvk9aMrR1I5Fia0FfDAy4whL29MahJZQAQWCjxHyycIk8kcYG7tGaWX4mQqp7nrTL/CFuFnz2KD2X8n9CTUdSmuJxW1sgp4dmkb7P3UrkpS6d7rMpp6zeLOszSWjKqEfEvICp+RzbafHKEaLLEQRUkDPeyJvPJbxgftMQzfctcvtyYYgeQkfx/SU4NW9UMtvzmVfty7QxL826/wDDYiTKem4fq9P9H+8mpNrMSpIUlVoI/wC8daxwqRuaufjkb/JGPE2DSmxY9R/zsn+l+mCQa35s9a3gNvHzuLluGmk7GRmNDNw3pGP2f5vtZVLLY2/zXNwaLgJs7R/vP6P9Di/nfzkrbVUa8iSMhorIiJJh1dlFHb/ZOzZi6mXoIDj6uFQJ6z/H+5Zto+ofWrb4vtpsfkcx8E7G7zs40Ufyy+2unFsK04fPFDi2KrDTFVpbBaaf/9Ca635htngXSNIT0tPj2dh1cjxzWTmCKH0vcY8BiePJvkP+xZZounpp+kxxbGWQepKR4kdPoGQdPny8c7QWpRq4IyshMSxDVdKikJqoOVkN8ZsYutDiDH4ciQ2iTIvyu0m3TzYskgA9KCRk+Zov6jgoW1amZ4NnqmpWi31iIkIEsf2D79KZvqsNGDJ4c7PIsF1Y3ljVZ42Qjap6fQemVGxzehwmMxcSx2XX5lY8XK+FDkeIuSMYcvmW7NF9dvYcjkTkLZHTxPQJ7arNb266hqxYchytrSQkF/8ALcHont+3kuIgXJxskoyPBj/z5/zf6Mf6f+5Y9revS3krUcu77FvbwHtlEiZGykCMBQUrS4a2tfRU0dvtHwHfMbVajhjwjmXFy7stkkZraKpqzIv0kjCOTpTzQeq/lJPrMIl1EwWSv9lpamSh/wAlf+asuGmJG+yI6neo3JjN1/zjhpj8hD5kRSTUKYWK1/5GY/lR/O+xyBqcn80pTdf848+Ybf8AeWV1Z6mVGwDtG/yAcEf8PkTpZDkQUnVD+ISix2+8u6voswg1Oyls5D9kSLQN/qsKo3+xbKDEx5ik8QlyewfkRcR/o7U4NvUWZH/yuLJT+GVE7uJqY8iyfXrOzE7yzXKW3Pf4mAr7gZkaSJ3kZVH+F2Gjyy4aA42N3F5odsSzym9cfZWvCP6d+TZm+JDv4nawx5p8h4Y/001K41J57YXOov8AVdNQVhtU+D1B7D9lP8r9rJcdiz6Ys44owNQ9WT+KcvVw/wDHkgn1X9KxNqF4PQ8uWZKwWq/D9ZkX9hR/vof7sb9v7OQMuLc/R/um8R8P0x3yy+qf8z/j381LINQvLh7jWZ/965gbexQdIkIoxUdqLsMFnmsgKEB9I9Uv6TlcwGOIH4kUAL7ncnMXUZABTrtZOwfNnXk+5ZmkU7UQVFa71ynTncvPZ40ycSVzKcZeJBTJMS71AAWY0UbljsKDFNXySjTvOPlrU702VjqEU9wtaKpNGp14sRxf/Y4BK3Mz9m58UeKcTGP4+pOKZKnBWkjwwJf/0Ta0ET31vaqaeo4BYeANSPuzm5Z+OQiOT3eoybF6jxJKrLMsNQNjuQPlm1jppHns6MYyRYCrPpenGKpneRqdRxA+6hy38pHvRESvkxbVbJY2JQl09+ozFzYOHlyco4yBaQz2oYk5jEIBVvL836O1m3uiPgVuMn+qwochIbImLFM/urwxv60RrG2+Z2k1kSOErjx8Qo80JPq1vMvCVQwOxB3GbDiBciGmlHcIA6H5YujyltohXqaAYOCJbDnzR5FL7/UvJmg1OlWUN1qQ+w9AyofEt/BcrlOEeQ3bIQ1GX65GEP8AdMI1G/1LUrl7i8mLyOaknYD2AzGJs2XYDhhHhiKig0kiRqRfHJ3bsMw82rEdo82qUkbY2xllWPqXPxH27nNdAGUqcbLOhb17T7fTtHsUuLhkN2wB9Qr6gjHYIB3zoYRjAWebpI455ZUBsg7vVNEuFMs0t86n/doSifRschLJE8+J2WPT5o7AY/6tqNrY6JqA/wBx+rFph1jfjX7tjgjGMvpk2ZM2bF/eY9vJbNp2rae9ZB6kQ/3bHXb5jrhMZRWObFlG2x/mlEkwahZtbX8SXlpIPijkAYfRXplglY3cXJhAO3pLFrbQ18la5+lLINNod2BDcRsatCS1VLH9pR45garBwjijuwHrHCebLNcSx1XT6HjIjCqNsaA+BzXzkJDZlppyxSYHcWkeh2Msq2ou7jn+4V/sItK1bx36DMvRzEIG+du6xZzkNGXCGJR31x5g1lLbUJioY1kXoCo6gZfDMMkqtzBkjCPpb1vV4L6dYIl9Ozt/3VvCoIVUXYff1OXTnfuWMOEb8z9SmNRhSFIoAWZK/wCqK5j5NSK2apZBFdaRO0heQ8i29cwJTJNl12Q8T0DyrDJHbcwtXnYBTTt0G+Zumgav+c6jUbyoMolj+rRseJaVZ0tl57LyfcvQfsjtmyGEDnuzw6aJIs/wnJ/x1Q1nWX021vJoIxI8EotrdQoq7hObu1OwAPFclOQgCQHM0mijklEH08UfEl/VvhjB4xN+YfnrUYLy0uPSaC/jeEqQwaNZARVGDU5CvcZinMSKJ5vUDs/BAggbwPF/0k15f046VB9dc/FaATKem6bjKgbLDU+sEH+J7DpetQ3sSMSFeTdR0r3pmZPH1Dxes0Zxm4/SmFcpcB//0hfk9n1DzVY2y/EPUZifBBux/wCBzl9DDjygPZag1AllesahczavIkbEuZCqKOp3pm8yz9VB2ulwxjiBPcyOWaz0TTI5tYmPrOKx2qGjH5ntl5kIC5OpjGeoyEYht/PYrefmFaGQiC3t417ch6h+kscxpauJ5B3GPsYgeqUj/sVK38zNcmgt7aQHr+6UfqwRnGX8IYz7KxDvRyDTZ34yD6pKQaAfEhbsN91wT08Ty9Lrs2hIFw9SYw30tvbCGUHgvwgnt4VzTZ4GJtwob+9IdVE8imSCdoydxxO2Rx6iY5Fz4ZaYpezasCVe4eRR1BJp91cvGrn1bxnHcl5uL4bDiPo/tw/mpIOocPrEhAlkLV349BlM8spcy1nKSrq8NsnJyB7dzlBKjdM9A1GIh5SKMx4r7L/bmdpIUL6lwtVKzXR6JpVm+s+VZbUu8UolZoJKlQwoPhB8M2Ihxwpq02fwconXEEy8tWUtl5b+oXCs7epIXWWvIVY0oe3tktPDhhwls1+UZNRxx7o/Sk0+lqs7ve2QuIE3S9tTxnUf5ce24/mQ/Flcse+4v+lH6nPhqCRUZcMv5mT+7/zZ/wDFJ3BdXWmxwtPMb7SJgDHOw/exKehP8y/zftZcJGPP1QcCeOOUnhHh5o/w/wAE1S7t47af1oqBGoXA+yQf2hkpRo2GvHkMhRRLWkdxasrqHhkUh1O4IPXLALDRKW/m8t1PVtQ8pavJYuDPprkNbKeoVq9PlTNBqcBhM1ydljiMsL/iCu/mnSNVg4xzKAw+JGoGHtTMfitHhSgWPXen27TCWA8WU1VgaEZOI6htGUhLLmy5OTIxPelf6ZOU5HmW3xSVF5bW0XlK6oq77kDKzJIFqdhr1ve6nb2UTelbyOqz3BB+FSQCQNvHLMGMylvyac8uGPm950PTm06xME7CaINzhljFOIoB038M6PFj4RRdXRGw5q16yTglzsacvCqGqsPBl98sItuxAx5fj+cgbmSL1EkYAlJROfdwpQmnuuAhyccTRH9Hg/3zx270SSfVjb6bI0E8qiR0+0hd5mDfC1eIVeycc15xWXrBnAhcuX/HWrvTfMxlTS43hZLxZDDOEILPCx/dEFiBy49clHBRDTkyQ4Sa+muL+rP+JkWk3Mj2lrIsjwqyFoo+pVoz+8i3/lPxJ/wOZYNh1ObHRIO//Hvpn/xTO9H1AXtmHJ/ep8MlO58R/rDfMacaLzGqw+HOuj//0+r+VPI/lfRL5rrTxLNeKpR7mZyx4t1AUUQVp/LmLptHjxG483o8+WZj6tgWPaDPb2t9rGuXo5JZSTcF8ArkAD3YjK8P1SmehL0etjKUMeGH+UEfuWReX9V1wvres20l3NN8Vvpwk9KNFr8KsRuxp+yPhwjAcnqnv/Ngp1mPT1hxEY4x+rJXHJC3mjxwIzXHk2B4I6+oYykjqB3Kq5k/4XCYAfwNkNQJGhnlZ/nen/e8KtoA8pyb2kbWTt9lGJkjB+Z+NcOMQPLZhqRqI8z4g/0s0PrcU0U7KVoy71HQjsRkphGLIKtF6bem809o3P7yIlQT1I7fdmt1ceLZ1mtjw5BIcixzULueF34udjsp6bbEZqKpYm0ql1aslHUGq8q/wyYKaQUmqxUJ9M9aUw2VpDT6q4L8aLxGx674kMglN7qhBNW5P096nGMbLIyekfkxZeWb+KdtTlEmpRSVjtJTSMxkD4x/OeW2/wBnNxpYwrfm67UcfQPZpI1YKkSr6QWihKUFPlmeQ4kTXNCuL+JfgBI7KRX8Dkd24GB5oJ5b9X5ziKCMdXZV5fQo3ORst4jCqHFIr9QvI5LKBSKIyniCN+PQEj3wyNhjhxmMygbe5DaUY61Nm/p1P++2HJPu3XIQPpr+a3Z4Vkv+eOL/ADv4kTpWpxtbSRkisZoB7dssgWjNj3thn5iWiahY+pGAZ4D+79weo/jmNq8fFHzDfp5GBeJXoIm9OFmSUElozs4qNhmqMO92cZgoJNb1eAqoncca+ote304OCKZCLU/mLVDHRpn58txsBx7b4RjDGglc15K8h+syepKTyQn4mI8BXLBDuWWQAPTvyc0OzvLi7n1CwW8t4EVuTsw4yEk0AHwvUfzZlYOESoji4nXTl4k3tH6RsgBwaSAjYAUI/hm2BDZ4E+tSaN7btUmZGY9zyTb6KjJWnwpDof8AdIK7KzUSCSIBq1rJU/QONPwyJcjF6dyJfL9rrby7pVpcpfsOU/Hi870RQuzNxWi15cadMAxgG2M9XkmODp/NSnVYViTTSBxuGuvWjHcCSQU/4LIT2A97nYDxcf8ANEOH/SRY/qDLbNqXpH4LLUkaOn/FuzD/AIbG6v3p58N/x40/8mXJ+sXdtWqr9n5K5A/A5VldF2pDaMn/1Ox+V5C31kMfj50I77dshjL1faEa4a7mGa5AbJ72zb4Um1IOSdxwNZh+vMfhqx/S/wCPO80+TxIwmOYxcP8A07QFzqOo3mpQpY3kksxdUgh2A67CgwykSdi5GPDCECZxjGNepMvOHmY2OqrPBJ8VtwWR1OzcQA/zw5slHZxNBpBLFUh9d/8AHUJ5gEcWq2d2ihFvlBZRsKnv94wZBuD3tmmkeAxP8B4UfNNFHarNcLzEWxHfi39Dll7W484+rbqlcerpNfFYlCIE4qo2HWuavW5bIAcXUxoUgNesZLiNbqCgf9tOx7HMaeITFuDCfCaef6hqnoSqs8bRMpKtyH41zGOIhyBkCXSa9b8ev7XbJCCeJC3GrSTFlgU7kUY9MmMaeNTiicsZJDVzuctjEBjdvUPyYsI7i+1GZwCY4VjQ13q5qaeH2cEiRyYZJGIBHe9Pmtr+yYB+RTsy7/fmxAlHm3QnDIPNDtdTtIAkhJPQA4eItoxgDcIwwRWqifUm5SdY7Unc+BfwH+TlgjW8nHOTi2x8v5//ABCX3WqPdSlmO/YdgMEpWyx4gNgibCNxp2qXDf3RESKfFwSTT6DghyJTqCDOEevqYxb6q8N9KnLYqNsEJM8uPZq9ufXj+I96/hgzHZxp7BhPmPQLa8JlUelcgfDMmzZikWxhMx5PNtT0DWbVmVZPUUkn1KfFv45Hhj3OSM5ISp7bUHjEMslAOpAoSPDCOEGwFOQouy09EYMxLuNuTGppiZNUiS9//JZaeU7w2/8AvR9ZbagNSEUKDUeGTwTmJ1FqFcQvky64bzDx+Oyilp/xWP6Zs7l3OdAYOkpR+KBkn11emloKf8VoB+OPEf5rkiGH/VD/AKYqf13WgKyzW9iverLy/wCBjBw8Uvcy8LD0Esn4/poSfX9JtnBknbUbw/YUj4eX+TGKlvpwGYHM2zGnnIbAYof7L/TIK/1Y2VdY1Y8bkVNnZHd+ZFFdx+zT9hMgT/EWwRBj4eP6f45/72LGbiSZbS3tbg0vNQufr14p6xxL9hW9/wBrB+n1JlIGRI+mA4Isp8kSj61cSN1mBK16/a5U+4jKck9wHRdqnYDuf//V61baosM1JNmOwl7n5+ORBewyafiGyW+a9NGqrWNvTkJQuy+CmhZf9gzf8LkMkLcnQZvC2PL8f75INc1fyj5RUW2mRINTaOklxvJMFYdATVqt3bK5zjj2H1OdpsGbU+rKf3d/R/CxjR9O1fzbeisRttO5fvJGNXcV6AdMphAzLmanPDDHnunfmzUYZ/MllplswaOxCq7Dcch2+85dM3Kh0cHTgxxGR5z9Svq8zfVJIUIDSoVQjxpt+ODL9Jawdr7kk0eKVSZZN28TmilIk2XX5snEU5idWtDTcc3p9+ZGL6XDnzY7rGmW9wDyQE5MhILErvQYEYkRj7sjTMSQTacE6CmNMuJTMBGCk29D/JXVLKw1u6hvGWNZ419NiCXZ1aiqPbeuTx8IkDLkGOWJlHbm9Z1L8xvKlgTHP6rOOvwH+hzKl2jhHVqx9nZZbgxSG4/MXRpz6unRRxOfszMPj38CemD81E7xDssfZ0gPVIyH83+FIrzzD6rF3k5E7k1rg47b/CrYJ95R0K41ZxdXZMNn+xGNmf5nsMux4+LnycPU6kYhUd5Inz75msbGFNGsFFIt3ROgPvgzTH0hj2fgkbyz5yedwtO8zTMasx6jIAU5UpWUYtxy5Asfh2PhU7/hlcpW4WoO9IS6YEGpystISG/hElRSuBnaQXekqSSFwUyEkA1gUOwxpeJ6x+SV/wAbfUNMdwvxCdF6NuArH5bDKcthrn3sj1yS1sWLXGqXUIkOyp6jgV8KbZlQ1WOIA4pf7J2umzAihCMv9Kxi81DSa/FfalP7KlP+JHMriHfJ2cTPpHHFAm90lvsabf3beEshVfuTDt3FEpz6yjH4NjV9VhVhZWtro8Z2aQ09T793OSsjlUWo8J5mWT8f6VAJPEtx9YLNqV+N1mlFIoz4hT1+bYLSSSK+mKpFESXuLiTnJKf3kh6t/kjISmBuWE5iI9zJfJszPdvKNkVTse1TTMLHk45289rpcRf/1uleY7Oa2kM8al7c7krvxyqYrccnutFljMcJ+pKo/MctuoCESINwrb4BkcqWi4uaV6hF5T1a6F3f2Jju6AGeBuJIHTkOjfTkZCEjZG7dCGeEeGMrj3STP9J6baaXJb6be/U5ChVJWiDcSRStAy9MlYA2LQdNOU7lHi/zmN6PoenwO93Cbu/NayXLFI0JO5PIj/jbK4xA3b8xkTUjGP8AR+pX1XV4mtha28CR+q37x6+o9B25H9S5hazUemh1cTNGhzQ0cqxQmm+2wzVW4HCio5StuiH7VNx13O5/HNjCNABw5Gzabw+WIQivqs7RO4qLWIDmAf52NQv+rTMuGm6ybsWCU9xyRI8ieXLyEur3EKL9qZnTiD9K0y38rA96Z4TE1zKRXvkPyzFcJ/uYd4eQ9VBFVitdwrAgV/2OVS00R/E2w0eaX8LEfMOi6Pp9+Le11SG5VjtExCToDuOafL+XMfJEA7G20dn59vTzYppfmhoNcglhgVYkkAjJqzCu3Jt6HInHYdvk7MxiJ4b4o/xfznqH1qy1KJopg3rxhQ8sgC8mPXcZrZ46dWCRuORTDRNH0mLTZoJGU3JkJVG/lP8AKT1zYaHh4a6sMueRO3JZY6DCdTj+CqVrTttmcIC2BzGubJfMfnCPy5pHo26iTUJRxghB3A/nPgBkNRqRij/SLTiweJKz9IeaJqLXrNLKSJWPKQv1qe5zDx6iJ3dvLlss1DzBBYwrDGf30u0ZPWviB4e+A6kyNR/0zjSjQspj5VWPUtQtLBpCFkJ9R+rcVBdj86DMjFCyIutmSTbOvr+i2r/V7eyh9MGlSgYn5sak5nXEbAOwh2cTGymMHlXSNZi5yaXEA3+7UX0z/wAEvHJeFGXRwM5jjNEpHrH5ceTNOkMt9qklvH2tVKs5+RILZTPT447k8K4MeXMf3cSf9yxqfTvy7VisVrcTAftyzlSfoWmU/uelu3j2NkAuRpU03T/L1rfpeaTJNp06AggsZkcH9lg1GH0HDPTwmKHpaZ9nmPXiT+6nt9TjMd18Eq/sVrUdiv8AMuanLhMJVJxQDjOzFtfk1xCBZzLCimvCNFqfmSCcsOsydNnMhmB5pDf3s4UM9xcTSH7SqxVR9P8AZmSdZEDrJv8AGj0AQ4ktwgcoSx6g1Y/T0wnVRAtJzqg1EgcUgAHYsf8AjUZVLWdwajmVEaWaQPM3Ir9kdh8hmLPLKZ3cbJktmmgqlpahR/eSfE5/UPozPwY+Eebps8+Iv//X6ddX8wjDxyGOenxL+wxHU0OaTHmliNX6Xo8OSjv9LEtR1/SBIy6jp6LJ3kjDpX3rGafhmeZDqHfYZzA9Mj/uv90lza95HBr6EhI/Z9Wan8MHFHucgZM387/YxQsnnXy7CoFjpaSMDVXkUyGo95CceMdAkiR+qcv9z/uUNLrOt6uRJdTfVLMdFGzEfyr/AM2jK8k6FyNBr44Q2A3a5Rk8qcI0rwBO4HiT45ps+biPk4mWfEUCNQutR1mz0vTo2mnml4xoOrMB19lXqTh00DKYcXKQIvZ7Dyvp/l3Snvbrjd6mij96wqiOenpqfD+Y/FnQ48EYCzuXAwg5cgiOSSwCOZZtRvnK2kJ/eNWhd+vBf+Nj+zkBK7J+kPQzuNY4D1y/2Mf5yCvrjzFqgDWti62Y2hBKwxBf8n1CvL/WyuU5z+kelyMMMGH6pDj/AIv45/7FAroWusf3yQoD/wAXxH9TZEYZ9XIOsw9OL/SSYJ5l/LHXZdSubxJraVJCXCidPU6fZC7V+/D4Mh0ciGsxSraf+lKV6B5R/wBML3xe3ghXnIxQ8qVAAVTT4iTghAyNcnJnyqIslkmuWsUha4tZGWEr8UbUJDDo1RTKNVpuEcQdDk0ZwRu7igD5ju4OSSH1SycwjHjx49d81xi4vACqw+fbmB444ZJELDYijU7bE75ZHNkAoFicAO5QNx5otLhnuZnllkLcWdxUk+FTlMhImzuzECNksvPNTfvI7SMK6jYvvv7b02xGLvZgVzUPKuja35r16K0sQZZ2AeadyeEcY2Z2P8u/QfabM7T4STQcXUZRXk+h/Lv5daV5etnnEj3eprBIpnY0C1Qg8UGw+nk2bbHgEN+rro5bkO7iCB8naZDqEs2q3xCaZa1bk+wYruSf8kZTgHEeI/S77tTUHEBihvlmu178w7y7jePS5F0rSI/g+vyCkj0/32uSlnMvp9Mf5zXpex4Yt8v77N/qf8Mf67HTDpEKW99qNne3cd78UN5M8aJJXfbk9a/5LfFkPDgNyDK3YeNklcIShDg/gjfp+xOI9A8makqwGBrS4k/u1krGxJ/kcHi3+xbLPDxnpThz1Opx73xx/o+pCnyNdadOBHIZbf8AZZvtD2bCMXCxGujkHmh9e0qb6qDE5iuoDzgkHY91P+S42OR1GETjTSSJMHtfOoSMpfRl5Y3MbyJQCoNN1JzQ+HTVLH3NPr2j3BcBwhU0PIEHxwcJY8MgoS6nplR++QVFVNcaK0UDP5g0+KI8SZXBpRRT9dMeEp4Su0/VJGn5H4UJ+FfDMvBi4dzzcDUZL2HJ6B5ZtdQ1RwsC0jH25W+yMy4AyNBx44jL3P8A/9DqV1BG8RRhtmnyQBFO4jKiwjWbJSXSUmQg1UkAMB/HMfFqJY/TLcOzw6jh9zF7jS7UP8RPjsO3XtmUdZDuLlDVhTSLTrejBansWBOUz1x/hCDqStuNRjDt3ZFrVtgBStBTMGZlM2WvxUj1HWmKAs9BuxA6DIcHzZcVvQPyM0e5R9Q813kNInQW2myN1NWJmZR4Giry/wBbNx2bACz1cbN6yIh6hqiz6j5evfRFZ/txDx9M1I/XmwyWYGubPTmOLPG/p/4pjXmG7ttKhtY+AlS0gQ20Tbq00lS0rD9qmVyAiAO7/dO00oOTikduOR4/6kf8nFhd3r73V56eozXRkcFi0RHwqOtAQfs+GVyN8yXaYoiMfQIhD6vp+vWNoNR064GpWDCoJFGp1pVe/wBGQlAjcGw3YtRGR4ZDgko6He3GpKl1FEzNHUlD1BAI3+Rxxk3bKUgDROxb0+BpZHQyEvWkqMTWv+UDvmSHLyzrfomX1KBEcSfEhXg606hvhPX54zFinXas8eMhhXmDR9QtJUaBPrNtGxqh2fidiAe+amWIW81DOY7Fi8mpQxunqwS28qvQGhIVex2ys4i3jOl9xqKMgS3jker1INQKDo2/c4jF3s/GWRwXdw4e4YqN6Ip2ofE98sAA5NMshL6M/JPSrfSPJo1FVH1vVZHd38I4mMcaj22Zv9lmz0kahf8AOcSceOVdA9LtQxjq/WUb18CMyg42Tnt0YFq119T8gy2iFY+V0lswZuCn4yOLN2DEccxarHT0MI8WsE+fo4/seP8AnTSfP5X1Lm2ItaUV7c+pHw8EZdgPb7TZRkhJ2kM8DtA+r+l9b2jUfRuPLsVncxJNZmJVaFxUEAfgR2zMNGNHk6bFGspkDUrQXlzSrWDTXhLPLppdY1inFSvM8QVbvwYj4srhAAf0XI1WaXGD/lK4uKP++X3nmK/8vSiG7re6VXixbeWIeIb9pfngMzA77xRHSY9QOKP7vJ/sZKWtTxzwJc2jepay9G7iu4Bywmxs4wiYmpfU8X81C3tdWuY5axKZFmj7Kea1Y/OoOanNjqRa5To0kcksTRepFN8Mrncn4mptlJBTGfeo3F4IaJ66sZN6LuQB4YiBLE5R1aglkuJA5UioAJbqcnGFOJkzE7DkzbyVoEus6mluKiCICS4YdlrsP9kclOfCHFp9Babp9vpenxwwoFLUA7bZtdPi8OAHXq3gWa7n/9Hq0465qyHagsY121Mg9SP+9SpHgRSlDlOTEJNsJ0881HU3tWIuo2iZGoCRUEHvXKPBIbhMJJea9ZrGwEoNDWlRkOFsEklu/Mcbk+kCxYdhh8MshNU8saNe+Y9fsdMBKm6lCEj9lPtO3+xQGmHgEWRyULfWq6ZYado8FjFH6VlAixBEAHFQKKRm10UAIX/OcXDMmVj6kJbyi2i4xuJEWtHX59x2zLGzmTjxncUxrzTpkOrWvC1kSG8jNYRIaIRX7PLentleSPENubsdJkOM+ocUGPS+XI9NQTyxTXF4qsBMV4wqWHElaVrsf2mysxrm7HFlGQ7GMY/zf41PyZYah9R1xEBksgYvq0YHL95UmQKP9UrkMINFnrskBPHf1eri/qpx5R8vXdm15PNben6rgQRsB+11dx+yoO/xZZigeZDha3UQJAif63/ExU4YLWbzUXW3ilt0hkEkkqKzkRxkBuXarHEH1t85Sjp+ZjIyH0n+dJiepmVNUkjSQ/Vz8SxdaEmvU70yviN+TdLUHgqt0wntlkhUsKkqK/dmNPm8xlPrPvY5qOg28pNUFT7ZClEmOXfl2JGNF2yNMxNBtpfHoMFMuJ7/AOQNL+p+QdIRmPKVGmBboDM5fj7Df4czdHO4mPcwhO5llX10CKOpAYDjx7injmcC1+FuWCedtBu9V8u6zpSfunumS8tGG/2XDtSnfZsoyQuJH+c7nBlAlCV/SPDmxby9da5pES2F28ksaigmYVBHg4ymMjHZ204wy79Waadq1zeBYYrOJ+PVyDwUfzNvxGXxnfR12fTRx7mR/wB8jV1FLjU7awjPOJHDSvSgYoOXTsop8OEzs045wGGOUzzr0/5yT+bJoJ4pVNCTU5HJu3aO4kIfypZP+gQjisYqFB/lrtgwjZlrZgy82N+a9Hs7mQB0Dgg9uhGY+cbuo1PMF59qPlK2ViVjFBuKbZj00+IUsOiJH9lcFIMlWGzaPtgpiS9o/JfTkGk3d2QPUkm4Fu/FFFB95OUZT6h5MJF6Hr8nG3jePolDt7ZvuISiCHM0QuRvq//S6xOBvmtLtAlN5GCDkWQYxq+lQzoQ6BhjTK2Eap5RsmYkQiviBgIZApFL5ZijJ4qRkDFsEmZfkzpscPnyF3r+7tpyg/yvhH6icpyCk5JXF9DuonhlicVDClPY5sdFK4kOPA8JBDzjXV1DSbosrMI6/C46fTlhJiXqNOY5YoD/ABLFL8N1bLJ/lrVG+9cPiByY6Uj6TX+yRVprtqkgW1tp5pW2WIyMV+4CpwjIEZNJIi5SjEfzuFNn1iW0hIu3jty25s7UBTv/AL8cfwyfFXk4BwRkfTcv9syf7yCSX/mSWcFQ3pQjoi7D+3K5TLmYNPEHvK7Sl9HTLzUm2V19CJj35GrH7hkI7Als1UwZxh3euX+9YvFbPd35cj7bV+SjK7oONqMwhG05nRePEDYCg+jKCHRcVpbcQVB2wUm0uubRCpqMBDIFKLixUV23yNMgXuXk5obzyjYRNQqbZYyvug4n9WXaIgSlE9WjiMZ2EsvGeK4NpO5R0P7ic+HYNmaT0LvMQEo8UR/Wipi7YSCK7PpsPiilXceFQf2lPcYRLoWfh7XHf+dFJNf1vV9MMqIsTxuFNvNwVjv9oVI3p2yBlIGnO0mmxZQCeKx9UbSWLzHrV1bNbvJQEfsAIKd9lA3xsub+VxRlxAf75G6bcS6eyTAlpJg6KD2BG7ZG63aNVUxXdSUeYNVZaW6tyuJzQKOwPfIyk48Y0LZlYXK2mixxvReKAt9Ay8ERjZdbM3IliVxL61XJrUk/ecwJT4t3X6nJxS25BAXFsrKffI041pPdaatdhim0BJY0PTAtvT/yivEj067tGPxRTcwp/ldR/wAbDMTPsbQQzm5llqaoHRgR6ddzTuD2OZuhzHeJcnTkd+7/AP/T65Mta+Ga8uzCW3Eda7ZGmVpZc29QdhjS2lF3YqwNRjTK0jvdMG+2CmQLvK8g0nzLY3zbRJJwlP8AkSAoT9Fa5VONhkdxT3RbyOIGQnY/aHcjxyGm1AxmzyLWBeyH1C10zVbdl9SNgRvuK/jm4EozGxtysGaeIsC1LyfpFpMXfURElamKMh2+QHQZTLHEdXoMGvnIbR/030oSbXrDToGh08JbKRR53YGV/m38FyPiAcmZiZm5ni/o/wADFr7zPbczwYzyHw6V+eQ4iWzYc0y8t+XtS1u4Se9PoWQNfTGxPzyccZlza8msEBtzTPzf5gsgY9LsSPq1qOPw9Gfv92U6nURjt3OPhBAM5fVNKtFkYySStsKcQPc75iYZmZJPJwNZk4qCZPID3y9wULJSppgZBBypUnbAkFCyW/IVpgZAsr8javJbxnTXagDF7appud2H8cxs1giQTVsk1Iw6gpjcBbgD4f8AK91zZYNQM0aP1ObpMhgfJjU909o/1a8UyQV2fuvuD2OWE1sXcxiJeqO0mprKK7g9KScvaD4orhRUxt4SL14+ONfJlHKYGwPX/FD+f/UQEOmi3uPRk4hyKhgQUcD9pTkqcg5hIWP+PRY1rXm/1NZawsIufp/uVuP2aj7XEfPMSecGfCGgV1W2qww3X1m6cSzDenU1yRzQhzcTJktML7XZrtBEBwhHQdyffMPPqjl9I5ODkkAFJZgFArWmXxFCnVyNlxYMKDcnthYul0y/4lzaTcKfaMb0p92HhPctpc9uGqKbjIqmHlrUDo+prcEVhcenKOtATs30ZTljY2ZDueoJfW93AskLgqRVWUj6DmHGe9hkAYl//9Tr0u+a92SDmTAyQE0fXFUBPFUHbFKWzWxbqMDJCPp4Y049cDIFmGh6tJ9TW1uvikiAWNm/aUdK+4zDzYq3Sl3mFVmib7KIfh+HqR1yrHkMDYcvBmMS841LTzG5CzMFPStczY6mB57OzhrLSmSxqfimX6TlnjY+9n499Ux0yDTbVxJLIHYb0UEnD+axjqjxE7uvNl/JamzsAbaAijyftsPan2RmJm7QJFR9IYAC7Y/PdQ23EM37xzRR1JOYMAZlGTJtbIvL63d/JBaWcTSPIwRSASKnuTm0xw2ADrMhvcvRk0nR9MP1V4Vu7pdpppBUcu/FegGZNRjs2YtOZR4isv8AyhHewG4tY1tKftt8MZ/z/wAnE473a5AA1/EkN7pHl/T0X6/rKRytsAqVWvtU1OVGMR1cjFoc0xYil93pfoKs0UqXNrJ9iaPp8iD0yEo01nDMGq3Q6RNHIroeLKaqR2IyBFsDYO6Og8xx3nK2nPpXsfbpyodmU5gEmEtnLgKojkqzayjRmG/i9YdFmXZv9kO+bTDrBMVLm5mGfcaSx2W2PradeAV/3UxoR7Zdy5Fz/FEhUggbvUPU+KcBW6lV3Unx49PuyueQDmwOTh6pPcJA1z60UYjcj4nHeuYGbKOK4uHky77IdnjhRmY0UbknMUtNrLCefULtbeyjaaRzSONBUn3zNwYSN+riZsl7DkzeD8uPNTQCTjCGIr6Rk+IfTSmZvgyca2X+VPIsulaXcarfxq+qKjG3h2ZYwO/gXOWwxUCerXGYOQRPK0pg1vUb26Kws8u/RKt+rKY5CXd5dPGIRet+VLjULIzfVit2oqj04sfZvHLJ4yQ6uQjezz/WLO70yynuLq2kQQIzlWUgEgeOYsgQ26PT+LlEDtbFvKf5l31rerBeIDZSmlEqCp7dTmNl0u1h3mp7OgY3DnF//9XsDr3+7NfTsrQ8i1xShJIq4FQskI+eKUK9tWtdvlim2o7SpwJtWe3VYyPbEhILHL7Vp7OVortOduKBLgdQD/MO+a/JioubGAmLjz/mpVeXNjcKQsy8yaGpp13ykxURkEqlt7WrH1IwF2Y8ht+ORotoJQs0mmW1WknTZeR4nkaeO2R4S3RJSDVvNYiSliKJxr6rb/cMnDFZ3b4Rvm9M8ofkbMzW+reYr0zyTIkpso6gbioDv36/ZULm1xaTh3LhZdSJbDk9q0PSbOwgVYYViRBRFUAAD6Mz4Rp1ufITsEBa6FA/mK5ubhvUjYh4Yj0FRvXx3yoYvWSXNyawjBGMdj/El+u22s69qU1tbzLYaRYng8x6uwFWoNthlWWM8kqHphFydHkxabGJSHiZsn8P81415zsYoPNRhtrk30KoqpNsfiH2httmNQGwNvUafJKeEGUfDP8ANTSxtFtdPM99P6VnFWRuZoo8cWmRs1EepMLCxvZreW99B0t5DziRhR1joApZeo5U5ZLgPN5/tCYOTb5sV8227wst3ECABxMi9VYnYmnbMbLC92OnyfwlI7fzdfwRUmT6xDQHkx3qNjQ5jcDmcAJ2Riea9PmZFKvEzrypSv6ssGWYFWn1gc1r+Y9IC8vUZhXjUAnfwyBMjzazGR5pXf8AnGCP1IraBmlQV+M0B+Xyx4CVGPqWMT6ve6hOHllJhG6xrstfo65kY8Yj72nJPoHsf5Ea1o6zXmmXKrHfz0kt7k9WQChj+g/Fmbp5Dk4mSJ5h7bAAJgknTt4HMsc2iR2sJk7oI6GhXvXJuKAbSbSbOx01p44Y1RCzSCgA2O+VwiIuZnySyAWWGXX+N/MNzLdRyRWGmBiIBISKqDQE08cw5DLM39MXe4paXTxEa8TJ/E8R88/4rtdcvbXUbyf0pCQg9RxDJH24AkKyYgd70GAY5xEoAfL1R/rJBZ6SWox6dqYTJJFbP//W7Gwr1zAdioOo6DAlQdRgSoNHWuKVMwjFVwiA7Yqozr8OKQx3W7BbqEqdiDVT7jISiDzbYzMdw851q3a1Mq3KtCm5Eq1KsQdv9XbMaeEjk5uPUWxWXU7PiWWYFrheDL/q+NfllZgXJGRDXeqQh+JkLSekFVV8P5dsHASg5AELZWWqarKtnHEzyXLgRQRCsjN2FBlsYAHbmw8WuT7L0z69Jo9iLtPQ1BLeMXNvUGjhRWhHXNruR5uBAgHyTeC6D24rswFCPlkwdmmeOpJfNMY5A6H4x09/bIkuSI2KLHtU1S0X1bbUZTBYcmnuFBoZK9EFPfKZyHI8nP0+KW0oC5/TH+j/AEmLq+geZ9cgs9NgSxSzRpZHCUb0x3I75QKnKgOF2pOTT4jKZ8Qy/wB03L5T0/VvMVhaNcyzwROJTBskY9M1qQPtGv8ANk44xdNE9bkjjlKhFknm/UUtPMUNrFQBbdVcDwrtl+SVSp1Wlx8WEk/zmFaxaRSNLGVrE9fhPgcw5ii1VRea6x5cvLGUSWJ9S2Usfqz7gcuvE/PKZYwXIhmPVjb3jxFVntXRwDzK+PahHbK/DcgZvNAtfTNEEjgYEk8uR2FelMkMbI5lIRXc3H12AAFOKilR75OgGiUyUVHGEHgMbYU9f/KT8rdUvpLfzJfs1nYxHnZx7iSU0oGP8sf/ABPL8eAnfk1TzCJrq9gNzJaH03POMdPEfLMkHoUnHxbhGQaksycQ/L9f3ZO2o46KhPJVyake/scFtgghLPRUu5eN+3rWkIC21qrEIfFnA6/TkBj4jvyb56k4x6PTOX1T/i/zUv8ANul6VqclhaPBFM1vNGY6qCFPIbL7AYMlbANujnOIlIk+qJYD5v8AJGj3v5iSxonoRSIhZIiUUsuxNFp1wSiOOm7BrcsdMKL/AP/X7MRmA7BSZaYpUXUYEqRjNcCVvAdO+Ku4/RiqGnXY4sgld3DUGuBIY5qlgkoYMoYHrtgZBgur+T9PldnEQVj4DIlsCQTeVxAfgFMgQ2CT0/8A5x40iNfM2o3E0YaSC1UQsRUrzc8qfcMu0sfUWOaXpe2a7bS8VuYqhkFCR4ZlTHVjp5A+kpGnmHgxS4Xfu67HI8bleD3IqO6s7kfBMCabA7HFdx0Wy6Yl0FFzDFOi/ZL8TT5HAY3zZxy8PIkKElromkwTvbRot1OvBim9B164CIx97OM8mUi/pioeSLaOTU7q+I2iUIG8O5wYBciWXaUiMYj/ADmEeYdW+u+cruYNVVYRr8lyuUrmS5UMfBgEVa+YOU/1cGbm63IOqS3sAcGorlDAFjOpaNFISQu+BmCx+fR0VjVaY0y4kJJpwXpjSeJCyW7KcFMrfVf5Y+bo/MnlO2ldRFeQr6FxEBRSyCnJR4HNjhyiQrq6/Nj4ZX0KO1W0cBmArTqME4uZgyA7MZmuGiesZIIPyOQ4nM4L5q0XmOdBRwH/ANYVw8bX+XDdx5muXj4hgi+Cin6sTkTDTi2tBLT3bahL/vLZgsXPRpP2VGRxizfQM9UeCHCPqn/uWKpeNe+d7i4rtGqivuSTiDc1mBHCA//Q7QcwXPU364EqTdMCVM9cUreh2xVtgMVQswFTgSEuuQKnAySm7Rd9sDIJDeonLpkSzCS30UdD8IwFkGW/koSnmq6Vdle1PIeNHFP15dp/qY5OT2+6VTA1RXY5mlxsZ9Ty7WwEvpFXZQemYZ5u/wAf0oBJZFrxYjAWwBEx3VzSnqNT54LZ8IWzyyFCSxJwFnAMm0P9z5Nnmi+CVwxZx1JOXY9oOBqd9QAeTyC3dm1admNSZDU/TlEObss3JkMpPL5KtMGXm6rN0Qk+VNKXXCgk7Ysknuo0NdsUpTcKorQYpS2dVr0wMnqn5TXM6aLMyOVMUnwEbUykyMZWGWUXEW9fR2mso3kPJ2UVObkbhwY7SYb5pRYpFeMcWY/ER3zGy7O40hsUUj5vQb5C3JoKVuTNqVvBIS0TuA69Kj6MjzLYRUCRzZn5tAs7GK1tQIbdUqI12FaZlyFCg6PBIykZHcvOPKjF7y6lY1kLmrfTleNytUdgH//R/9n/4gxYSUNDX1BST0ZJTEUAAQEAAAxITGlubwIQAABtbnRyUkdCIFhZWiAHzgACAAkABgAxAABhY3NwTVNGVAAAAABJRUMgc1JHQgAAAAAAAAAAAAAAAAAA9tYAAQAAAADTLUhQICAAAAAAAAAAAAAAAAAAAAAAAAAAAAAAAAAAAAAAAAAAAAAAAAAAAAAAAAAAAAAAABFjcHJ0AAABUAAAADNkZXNjAAABhAAAAGx3dHB0AAAB8AAAABRia3B0AAACBAAAABRyWFlaAAACGAAAABRnWFlaAAACLAAAABRiWFlaAAACQAAAABRkbW5kAAACVAAAAHBkbWRkAAACxAAAAIh2dWVkAAADTAAAAIZ2aWV3AAAD1AAAACRsdW1pAAAD+AAAABRtZWFzAAAEDAAAACR0ZWNoAAAEMAAAAAxyVFJDAAAEPAAACAxnVFJDAAAEPAAACAxiVFJDAAAEPAAACAx0ZXh0AAAAAENvcHlyaWdodCAoYykgMTk5OCBIZXdsZXR0LVBhY2thcmQgQ29tcGFueQAAZGVzYwAAAAAAAAASc1JHQiBJRUM2MTk2Ni0yLjEAAAAAAAAAAAAAABJzUkdCIElFQzYxOTY2LTIuMQAAAAAAAAAAAAAAAAAAAAAAAAAAAAAAAAAAAAAAAAAAAAAAAAAAAAAAAAAAAAAAAAAAWFlaIAAAAAAAAPNRAAEAAAABFsxYWVogAAAAAAAAAAAAAAAAAAAAAFhZWiAAAAAAAABvogAAOPUAAAOQWFlaIAAAAAAAAGKZAAC3hQAAGNpYWVogAAAAAAAAJKAAAA+EAAC2z2Rlc2MAAAAAAAAAFklFQyBodHRwOi8vd3d3LmllYy5jaAAAAAAAAAAAAAAAFklFQyBodHRwOi8vd3d3LmllYy5jaAAAAAAAAAAAAAAAAAAAAAAAAAAAAAAAAAAAAAAAAAAAAAAAAAAAAAAAAAAAAABkZXNjAAAAAAAAAC5JRUMgNjE5NjYtMi4xIERlZmF1bHQgUkdCIGNvbG91ciBzcGFjZSAtIHNSR0IAAAAAAAAAAAAAAC5JRUMgNjE5NjYtMi4xIERlZmF1bHQgUkdCIGNvbG91ciBzcGFjZSAtIHNSR0IAAAAAAAAAAAAAAAAAAAAAAAAAAAAAZGVzYwAAAAAAAAAsUmVmZXJlbmNlIFZpZXdpbmcgQ29uZGl0aW9uIGluIElFQzYxOTY2LTIuMQAAAAAAAAAAAAAALFJlZmVyZW5jZSBWaWV3aW5nIENvbmRpdGlvbiBpbiBJRUM2MTk2Ni0yLjEAAAAAAAAAAAAAAAAAAAAAAAAAAAAAAAAAAHZpZXcAAAAAABOk/gAUXy4AEM8UAAPtzAAEEwsAA1yeAAAAAVhZWiAAAAAAAEwJVgBQAAAAVx/nbWVhcwAAAAAAAAABAAAAAAAAAAAAAAAAAAAAAAAAAo8AAAACc2lnIAAAAABDUlQgY3VydgAAAAAAAAQAAAAABQAKAA8AFAAZAB4AIwAoAC0AMgA3ADsAQABFAEoATwBUAFkAXgBjAGgAbQByAHcAfACBAIYAiwCQAJUAmgCfAKQAqQCuALIAtwC8AMEAxgDLANAA1QDbAOAA5QDrAPAA9gD7AQEBBwENARMBGQEfASUBKwEyATgBPgFFAUwBUgFZAWABZwFuAXUBfAGDAYsBkgGaAaEBqQGxAbkBwQHJAdEB2QHhAekB8gH6AgMCDAIUAh0CJgIvAjgCQQJLAlQCXQJnAnECegKEAo4CmAKiAqwCtgLBAssC1QLgAusC9QMAAwsDFgMhAy0DOANDA08DWgNmA3IDfgOKA5YDogOuA7oDxwPTA+AD7AP5BAYEEwQgBC0EOwRIBFUEYwRxBH4EjASaBKgEtgTEBNME4QTwBP4FDQUcBSsFOgVJBVgFZwV3BYYFlgWmBbUFxQXVBeUF9gYGBhYGJwY3BkgGWQZqBnsGjAadBq8GwAbRBuMG9QcHBxkHKwc9B08HYQd0B4YHmQesB78H0gflB/gICwgfCDIIRghaCG4IggiWCKoIvgjSCOcI+wkQCSUJOglPCWQJeQmPCaQJugnPCeUJ+woRCicKPQpUCmoKgQqYCq4KxQrcCvMLCwsiCzkLUQtpC4ALmAuwC8gL4Qv5DBIMKgxDDFwMdQyODKcMwAzZDPMNDQ0mDUANWg10DY4NqQ3DDd4N+A4TDi4OSQ5kDn8Omw62DtIO7g8JDyUPQQ9eD3oPlg+zD88P7BAJECYQQxBhEH4QmxC5ENcQ9RETETERTxFtEYwRqhHJEegSBxImEkUSZBKEEqMSwxLjEwMTIxNDE2MTgxOkE8UT5RQGFCcUSRRqFIsUrRTOFPAVEhU0FVYVeBWbFb0V4BYDFiYWSRZsFo8WshbWFvoXHRdBF2UXiReuF9IX9xgbGEAYZRiKGK8Y1Rj6GSAZRRlrGZEZtxndGgQaKhpRGncanhrFGuwbFBs7G2MbihuyG9ocAhwqHFIcexyjHMwc9R0eHUcdcB2ZHcMd7B4WHkAeah6UHr4e6R8THz4faR+UH78f6iAVIEEgbCCYIMQg8CEcIUghdSGhIc4h+yInIlUigiKvIt0jCiM4I2YjlCPCI/AkHyRNJHwkqyTaJQklOCVoJZclxyX3JicmVyaHJrcm6CcYJ0kneierJ9woDSg/KHEooijUKQYpOClrKZ0p0CoCKjUqaCqbKs8rAis2K2krnSvRLAUsOSxuLKIs1y0MLUEtdi2rLeEuFi5MLoIuty7uLyQvWi+RL8cv/jA1MGwwpDDbMRIxSjGCMbox8jIqMmMymzLUMw0zRjN/M7gz8TQrNGU0njTYNRM1TTWHNcI1/TY3NnI2rjbpNyQ3YDecN9c4FDhQOIw4yDkFOUI5fzm8Ofk6Njp0OrI67zstO2s7qjvoPCc8ZTykPOM9Ij1hPaE94D4gPmA+oD7gPyE/YT+iP+JAI0BkQKZA50EpQWpBrEHuQjBCckK1QvdDOkN9Q8BEA0RHRIpEzkUSRVVFmkXeRiJGZ0arRvBHNUd7R8BIBUhLSJFI10kdSWNJqUnwSjdKfUrESwxLU0uaS+JMKkxyTLpNAk1KTZNN3E4lTm5Ot08AT0lPk0/dUCdQcVC7UQZRUFGbUeZSMVJ8UsdTE1NfU6pT9lRCVI9U21UoVXVVwlYPVlxWqVb3V0RXklfgWC9YfVjLWRpZaVm4WgdaVlqmWvVbRVuVW+VcNVyGXNZdJ114XcleGl5sXr1fD19hX7NgBWBXYKpg/GFPYaJh9WJJYpxi8GNDY5dj62RAZJRk6WU9ZZJl52Y9ZpJm6Gc9Z5Nn6Wg/aJZo7GlDaZpp8WpIap9q92tPa6dr/2xXbK9tCG1gbbluEm5rbsRvHm94b9FwK3CGcOBxOnGVcfByS3KmcwFzXXO4dBR0cHTMdSh1hXXhdj52m3b4d1Z3s3gReG54zHkqeYl553pGeqV7BHtje8J8IXyBfOF9QX2hfgF+Yn7CfyN/hH/lgEeAqIEKgWuBzYIwgpKC9INXg7qEHYSAhOOFR4Wrhg6GcobXhzuHn4gEiGmIzokziZmJ/opkisqLMIuWi/yMY4zKjTGNmI3/jmaOzo82j56QBpBukNaRP5GokhGSepLjk02TtpQglIqU9JVflcmWNJaflwqXdZfgmEyYuJkkmZCZ/JpomtWbQpuvnByciZz3nWSd0p5Anq6fHZ+Ln/qgaaDYoUehtqImopajBqN2o+akVqTHpTilqaYapoum/adup+CoUqjEqTepqaocqo+rAqt1q+msXKzQrUStuK4trqGvFq+LsACwdbDqsWCx1rJLssKzOLOutCW0nLUTtYq2AbZ5tvC3aLfguFm40blKucK6O7q1uy67p7whvJu9Fb2Pvgq+hL7/v3q/9cBwwOzBZ8Hjwl/C28NYw9TEUcTOxUvFyMZGxsPHQce/yD3IvMk6ybnKOMq3yzbLtsw1zLXNNc21zjbOts83z7jQOdC60TzRvtI/0sHTRNPG1EnUy9VO1dHWVdbY11zX4Nhk2OjZbNnx2nba+9uA3AXcit0Q3ZbeHN6i3ynfr+A24L3hROHM4lPi2+Nj4+vkc+T85YTmDeaW5x/nqegy6LzpRunQ6lvq5etw6/vshu0R7ZzuKO6070DvzPBY8OXxcvH/8ozzGfOn9DT0wvVQ9d72bfb794r4Gfio+Tj5x/pX+uf7d/wH/Jj9Kf26/kv+3P9t////4QK3aHR0cDovL25zLmFkb2JlLmNvbS94YXAvMS4wLwA8P3hwYWNrZXQgYmVnaW49Iu+7vyIgaWQ9Ilc1TTBNcENlaGlIenJlU3pOVGN6a2M5ZCI/Pgo8eDp4bXBtZXRhIHhtbG5zOng9ImFkb2JlOm5zOm1ldGEvIiB4OnhtcHRrPSJBZG9iZSBYTVAgQ29yZSA3LjAtYzAwMCAxLjAwMDAwMCwgMDAwMC8wMC8wMC0wMDowMDowMCAgICAgICAgIj4KIDxyZGY6UkRGIHhtbG5zOnJkZj0iaHR0cDovL3d3dy53My5vcmcvMTk5OS8wMi8yMi1yZGYtc3ludGF4LW5zIyI+CiAgPHJkZjpEZXNjcmlwdGlvbiByZGY6YWJvdXQ9IiIKICAgIHhtbG5zOnhtcE1NPSJodHRwOi8vbnMuYWRvYmUuY29tL3hhcC8xLjAvbW0vIgogICAgeG1sbnM6eG1wPSJodHRwOi8vbnMuYWRvYmUuY29tL3hhcC8xLjAvIgogICB4bXBNTTpPcmlnaW5hbERvY3VtZW50SUQ9IjA5N0YxRDlDRUU0QzkzQzM4QzFEOTRDQzlGQ0VCMzc4IgogICB4bXBNTTpEb2N1bWVudElEPSJ4bXAuZGlkOjdmMzVmMWFmLWE1OGQtNGQzNS04MDZhLWQ1ZjFkN2MxYjY1ZSIKICAgeG1wTU06SW5zdGFuY2VJRD0ieG1wLmlpZDo3ZjM1ZjFhZi1hNThkLTRkMzUtODA2YS1kNWYxZDdjMWI2NWUiCiAgIHhtcDpNZXRhZGF0YURhdGU9IjIwMjQtMDEtMzBUMTY6NDk6MjItMDY6MDAiLz4KIDwvcmRmOlJERj4KPC94OnhtcG1ldGE+CiAgICAgICAgICAgICAgIAo8P3hwYWNrZXQgZW5kPSJ3Ij8+/9sAQwAGBAQFBAQGBQUFBgYGBwkOCQkICAkSDQ0KDhUSFhYVEhQUFxohHBcYHxkUFB0nHR8iIyUlJRYcKSwoJCshJCUk/9sAQwEGBgYJCAkRCQkRJBgUGCQkJCQkJCQkJCQkJCQkJCQkJCQkJCQkJCQkJCQkJCQkJCQkJCQkJCQkJCQkJCQkJCQk/8AAEQgBdwH0AwERAAIRAQMRAf/EABwAAAICAwEBAAAAAAAAAAAAAAQFAwYBAgcACP/EAEMQAAIBAwIEBAMGBAUCBgEFAAECAwAEEQUhBhIxQRMiUWEUcYEHIzJCkaEVUrHBJDNi0eFDcggWF1OCkvAlNGOi8f/EABsBAAIDAQEBAAAAAAAAAAAAAAEDAAIEBQYH/8QAOBEAAgIBBAEEAQIFAgYCAgMAAAECAxEEEiExQQUTIlEyFGEjQnGBoVKRBhUzsdHwweEWUzRDYv/aAAwDAQACEQMRAD8A+jqxG09UCYqBPVCHhQIZokMZoZIa5oBMqaiZMG3WoA2AokPAUCG3LRISRKWyMke9SLaKyeBJrpvLcErKxWsd+rdf5HU0Kqn2uSnXtzO7HmJrP+p39M9HTXBLgXt4r9FY1ZNs1rauzws7uTZIWpkYy+irtrXbCrXhjUrphzYRabGmbM1nqFMF9lm0rgi3hxJcsZCPXpWqGlS5kcfU+sTfFfAx1LWbLRbcxQ8gYDGBV7LY1rCMmn0luplun0cz4j4p8V3PPzMe1cudrmz1mm0kao4KjDM91d+LJ67Cr1xLXT4wi12NwEi5icACtG9RWWcqUcia5uDe3zyndQcLXB1FnuTbI1hYLFw9zC4j5Tg5q2n/ADMN6+LOmQORCuTk4rvLo4jXJktmoQxzAd6iLbWz3NUAkY5qhDOaIDFQh7mqEwYzQyTB7NHIDBNQJigQ9miQ8N6gDFQJ6oAxUCj2agDBoBRrUIYzUCjGaAT1QBjNQhioEwaBEamgEwKCIezRJg9miAxmoQ1NAJjNQh7NTJMGpNVyHBqTQyHBjNAhZ62GY92oBRioE8aBDFAJtynGTgfOrqDZEjTY7KQflQdckW2tdnsGq7ZPwRI9g+lBxaJgyu1RAwSA0clcGRUyTBuKmSG8bEHaoVkgLUVEiFWGa5eqjnKZp0z2vKKnf2AEnMB0Ncja4Syjv0X8YHGn6XbyQqwQZxXq9NGMoJo51+pnGTWQ9NPhj3IArSoIyu+TI7rU9P0xC00qLj3oSsjBcsNentueIop+t/aMjhorI7dMisFutzxA7uk9FUflaUXUdbvL1mJYjNY+ZPLO7CEK1iIoZGYktkn1NNjFIXZY2E2NqS+TsB3q+5LkyzCrq7Lr4ER8o6n1rm6nVbvjEVt8s9bQY3FYsiZFm4egaW4jx0zW3SRbeTn6lpLB0GN+VQPQV2UzjtGl1dC3t5Jf5VJq8Vl4Hael2WKLKUNTu7ydpGnk3OwBwBWlJHr/ANNXXHakWHR9TYjw7h8jsxqsq89HE12jT+UEOhNEQDzdaK07OV+nkbF4wN3UfWh+nkV9iXgxzA9HU/Wq+zIHsyRjtS3Frso4tdnhVQHqgDGaiIezUCezUJg9miDB6oA9UIYzUIj1QJg0CGlQJjFQh7pQCYJoEMVCHs1CGOtFENSKDREYqoTGahDXNTIcHuapkmDUmpkmDGaAcGM1CGKGCHsVMEyYxUwTJaK1mYxQCexUCe5QASTgDvVowciJZfBGs6EO0al+QZp0akmO9pprcJreS+1e4cZMUKnDMasm5PCOnONWngvLClcJzrbnkhjHnnfv8qsZ2s4c+W+kApq8twX+BiaRV6zSHC1VTz+JreljDHuvH7I0h1STxMSXgd/5IhmjnPYZaaOPjHj9xj8bJIgChkx3NHajIqYxfITb3YK4kIz60mdH0Isp+gtGDDIOazNNcMztY7NwaBU2U4qZBgDuQ6l3Y7Vzb4STc30aa8PCQrlVZctnasHEuTdBuPB6xv1s4pAxyF3FdP07UKMXBguodjWCo8QcX6jNK6W58GMbZHWmW6qcnxwjt6T02muOZ8spOqarK5JlleVz6mufbqUu3k6UYxjxFYK61zdLKZFJx/LWP35ZyM3h0GrAjllQg+taIapeSjwMIJIJBnmFaVqI47FyNZZy/kj8qf1rFfqXPhdCsEkEO2ay5EyDbcB8qtMri5Gex45LdwxGIU52612NLDajj6uWXhDXVb+VLYLA/KzHr3xXUoSeTR6ZRCTcprImJuJUIaeQhuoLU/ajtpQi8pG9pZKp6EUUittzYe9tzQOiHBK7EdjVsGSNmJJsUaBFNeTMLme7YoSNjgbe9Kqcn2zoa6Ua4/w0uR3eHTbceHcR3MR7OWNP48nMpV8/lBp/sCS6fqMcRutMujcRDflJ3qrUlzE0Q1FEn7d8cM30niRlDRXSkS53ztipGcZcMrqvTk/lX0WC3vkmUHmG9KspxzE4V+kcekEZrOYcHs0CYMZqEM1AmM1AGc0QHqhDFQh6oQwahDFAhioFGKATXNVCYqEMZqEPVCGpOahDBoEMYqBNcVCGMUMEyeqYIj3aiQxioQ9iiA1oBPVCYLPitIg9QCbKpO52FXjByAQatBK9ifAPmByR6inqG2PA/STirPn0baeY7exCj8RHmPvV49AvUp2ZYC9yIreaEAK2/TvU64Nca90lIBlIvIYLJTyxEc8nuB2qrW5YNMV7cpWvvpC+/BuEDzh4bMHlhtotmk9z7VRrPfRro+DxDmXlvwRW78pESMkH/wDFCvM31NFccDJrPyfP7vhBbeMEKJZs+fzSPvTP7Gdbc5cv9kQo4tImMtrMGPcNkCh12Na9x4jJE9nrTwedZDLFncHqKXOKkKt0anw1hlks7uO7hWWNgQaxtYZxbapVy2yCBUFEF7AZoSBmsuqq3waG0T2yEd4RBbeTqOtca2MYVradOrMpcim4u+WDPLgHvSY2tLKNUYfIreoxpOCQevpUldKXk3Qm1wVe8sAkhI3zScYZpjbkAa167VdMO81+DB3xRJvJYrbkyTQJuCY4xigUbJbeZTJyHarQWXhi59ZPQ3axTuinvT6+JYQiz8cst+k3XLAoz2rs1rETh28yYwnjjvojHISPQg4IpsZNcobpdVPTy3RA5OFtZgtZbq3vw0ajKq65JroQU3Hceir9U0s5RhOHLKjLxpqtjM0UkcbFfUVklrdjxJHooej6e2O5Nlk4L1nVOJr7wmRI7ePeRwP2p+m1DufC4OL6xo9PoatyeZPpBnF2vLpmbSywmNyw6/OnXWqCwjP6ToXf/Et5AOEuMjqUz6dqkYmjOwcjOKzabUub2TRq9V9IVMVfp3hlgu45+HbhXt3Jspeo/lrW8weV0cimUNZBqa+aNeINGW6tV1C1xzgZ5h3qWQ3Lci2g1jrm6bOhVomqOWMUpwynBFUqszwzoazTLG6JbbS7xhHOx/CardX/ADI8vqtN/PEMrMc48KBDOaJD1QhnFHADFQB6oQ9UIeqEMVCGM0CGDUCa0AmMUMEMYqYIeokPbVCGMCpghqcUGRGtAJ6oQxioQxipghioQ9moQ1oEMZqELTWkQexQCel8zrvsOq1sj0MhwmQXF8qEpncVZMbXS3yAvcZzyHB9PWp/Q1Rr+waWJrhg4blcbYPeg1kdCSgsPoXyRXGnXBmY80RHL8qphxeTXGcLobV2LdQvJtRvo7eBiihcFjsFWqybbwjbp6YU1Oc+Q2Oa302IiC2uLg92jQ4/WrpqPRmcJ3v5yS/qLrjiSxd+S5s5oSe5JBpbuh0zZX6dalmuaZqZ5Vj+I067aeMfiic5YCjl4zF5CoRb2Xxw/swt2LlPHhAVx+JfWpnKyg+1seyXQ34a1RYLgRF8JKdlPY0icfJzvUdM5Q3Y5Rc1OaUecMnGKj6AINZgKhioyDXB11bhlrpnV0k88MrV5Iz2xiI6Vz1ZmG06UY4lkTuiixc584NWhFOGRuXvwJ4VFwXU9RvRhHdwNbwL3KiUqcdcUF3gYQXhMBXsDRkmgxeTEr/4USAii18ckT5wQ217yE53GKFcuSSWQN7778lTihF/ILXBAl8UuOuSTWvTQzLLMOpniOC88O/EX7pDCCzH9q7NcXLhHK2ZLrDobQqDLNv3wK1rSvyyKtMehkOmtCcHat0FiOCu1q1SOJ8aac9tf4VfxthffNcfWV4l/U+mekahTp58HTeB9Mi0fQokGA8i8zn1NdPS1qutJHifWdRLUalvwijcZ2N7c62kEA8s5xz9hWXVQk5pI9N6TfXDTOUvBceFuE7DQLBpJsSzuMszVpoojWv3PPepep3aqzbHiKGM0sWo6PMAQ3hMUPtTuGjJCMqb1+4Bw3dG8trjTGYnwhlflVKpZzE1eoVe1ON68lU1NHsb0zJkcrYYVnsW2W5Hf0zVte1lt0q4+Msx5u2QfStUXuR5/U1+3Yxlp1743NCx86fuKxWQ2s4us0/tvcumHZpZjPZqEMg1AGc1bIMHs1CHs1AHqID1Ah7tRRDGKmCZNTQCjFQJigQxUIYNQiPUMBNTUIYoBMYoEMYqEPYqENTUIYzQyQ1JqZDgxmgQxUIWqtIkkiKgEnr2p1OCrTF+ryFfvYzgjqKdnBt0kc/FiV9TWY8sy83YMOtTKZ046Zx5iZTzjMUqsewJwaOPoD4/JG3xFzGMPCX+W9HL8lfbhLpmwuoZAUmjkweqsMipx5J7UlzFmsWl2LS+JEjKfTBwaCgiS1NyjiTIm0jVJLktJqixW/ZUXBqu2ee+C61enUMKvMiaTQYruNorqZLiPH4mTBH1outNYfIuGulW91aw/wComfhNNIuA9rfqoPSN6VGnY/izpx9UeohiyH90D3GhXSzmaz5JBJ+NFboaOxp5Q2vXV7dtvGOhQ0s2nal4MxCyIwfANZ5eUzZJRup3R6Z1SyuFuLaOVTkMoNITPD21uMmmTFtqJRIBvgGjYHest8FOODTS8PJUb9AHIrzs63CWDs1yyhFdfdrIvY1IPblGhctMrvxJhlYqeoqVyw+B7jlCl7vmdiTvmpnkbgjvLwzRqCfw1aUsoqlghkuiIOTNRP44J5yBS3wjVt6qngtjIjk1NviTymmUwbeStkkkE2kjySBye9dSqO1HJse5nd/s1sFg0IXpXMku4PoK7uihiG4zWLGI/Y11K7kXCg9TT5M2aaqPZtLdGKHY7kVZMEKt0iu6vb22pMokA8RTzK3oaXbXGzs7GknZSm10xpY3MkNqEbIZBj2NXi2lyYLq4ynleRZqGoIlyDcAeU5U1JNeTfp6G4fAi1HV7i6tT8K6t2wDvVHJ44L6fSQrn/EQ04ctbix4aunu1KvM/MA3WjSmotyMHqFsLdZFVdJA3BpH/mJwp2aJs1Wv8x/q/wD/ABFn7Qs4nI+NuE23JoW9tGv07PtxZNwTemVDCx/CcYqaeWVgp6vVj5ob6hM+n6pDKMBXblIHpR1C4ycfYraGvosatzAH1rEeewbVCHhRQDOKOCHqhDFTJDIooB6oAzmimDBjNHIMGjGqMujGaAT1EBqaAUYqEPZ2qENc0Ao9ioAxQCY2qEPZqENCaBEa96BY1NQiMVCHs1CYLWK0CMEjxxmBjzbjv6VphBYyiRclLBXbrUzCTHOodexq+5dM7FWm3LMHhiyRbScloJ/DY/lfpQ2rwzbF2RWJrJA+n3qn7vkf/tapiQ2Ooqf5GFXWIDlY3/UUcyC3ppdsJjfWR+PkX/vcUVuEyWl8EzXXgrzXeogH+SLf96tn7FKrc8V1/wC5iLU3uQxsLbmUdZZTt+poZz0GWmUP+tL+yB5tTYTJEZ/irpjhI02RT70HLH9RsNMtrlt2xXnyK9Ws2ub+KJbp5ZQC0zA4VflSLYtySyb9JcoVOTjheArRbxZ5GhtMi3h/HIfzGrQlnhCNZVtW6z8n0is8QXIuNakmUd+XI7istsuWzfpo7KFBl+4R1OGSzjtcnxFG9YqbVJtHmfUKXvc/BYWatGTnJAlwcg0uQ2JWNZgbDPH1rDdSpo3UzwUm91NokcXClSNs1zp0NHRhNeBHduroZYmyDWdQcWbIyyV1pJVmbIOM1Vp5yNyjZrjAHNtTIrIuTI7i6QJ+IVdRK5EWoX6nIVsn2oxqcmB2JICtY3kfmat9daiZLJuRbeFdHl1nVLeyiQtzsOb2Hc0yTwjO2lyz6Igtl4Y063hhjzAqhSPSutobmo7ZGOCWpk45w/ABd6ppt/N4T/dMN8it7cZcHQq019Mdy5BbhQAfAuElHYdDQ2tdD63z844K7fpdpKW8CUe/LmlttHYodbjjcje11fUlURpaSSe3IaMbH9FbNLQ3ucsf3DYtKvL0NPe20UGehlOw+lXUW+WjLLVVVfCqTf8AT/yMNL0a1tz4qZl5esrjCD5DvVowSMmp1lk/i+P28m/EGpA2iwxnyfuak5YRXQad73KXYPwQii5vbsgYjjxn3NUpXLY71pvZCv7ZWdevBJfTMe5NJslmR19JVtqijfgPL38xG4BzU0/5Mp6u8VIs+qxfGalbRZGc5x8qZqPxODCXt6eUiwqOVQPQViPPM2ogMjaoDBkHNEhg0CHqJDwqAM0QGKhDFQhgioE1qpD1HBDU1AmKhD1VIa1AmQagMGCaATWoQ8ahDU0Ao0oBMGoQx0FQhigQth2BxWliUaTuI7fnU5B6g1pqSUcoZBZlhlevzaXi8iyckhOCjVZ4kdehWVvLWUIb3RL63YmMFh7HNLcZI61OtqmuRXJcajAxHhy5HoDVfckjdGuiS7Rhb/Vn/BDcN8lNH3ZeEH2NMu2ia3tNavuZnPw8Y6vMcUYuyQqdulq4XL/Y3aPS9NJkvbw3kg6INlz/AHq2FHmTKqWov+NUdq/yDya5qGuyfD2KeFAvVgMKoqnuuXEBsdFRpVvteZf5IrvWrXQ4/hLH/EX0vlaXqxPoKkpqtYXLLV6WepfuXcQXgxc3J0eyS1lfnvrwgy7/AIQe1VlJxjh9sMILUWOyKxCPX/kmudXitIY7CxURqi80jDu1VlYorbEVDTObd1ry/AiaXxJOc75NYbJ4ix047Yll4U1YWmrJBy85mGBjtXO0s9szhaqrfU3no6Iz7V1ThJAsz7GqMvEVXihgaVJDoMq2s6XFcIwZQc0lxNVcykapoUsSsIHKj0pMqkzVCxlWvLXUoScHNKdERytYnvGv38rbVVUJF97YGyXTDDyHFXVSRXczaKzOctkmmpJC2H28GCBirlGdt+xbhxrdbjUZ0HM+FT2FSK3SMWtbgtp1DUY45LR45BlSOlbqa5SfxOfp5SjNNHLbuE293NvvnA9q2pYZ7qqe+CFs11KkmzEYo72jbCqLXIXb8QXkS4Ep29aurWZ56CqT6D7LW9VvpPDt1Z3O2FFFWSfRku0enqW6bwhsYI9NX4nWbkSzdVgDZA+dMSxzI56nK57NLHC+xJqnFUlyxSJgiDYKNgKXK76OnpvTI1rMuxNPqcsx87k0pz+zp16aMekXKwT+CcJmSTyzXXnPrjtWiC2wyzzdz/Va7Eeo8HPdUuvMzHqaxbsts9LXHHBYPs+jEVtLdMfxttT9OuGzl+rS3Ygh3BexPriOx2UEfWq6maSSOTq4OOm2/ZaQwIrMecwZzUQDINWQDOaID1QhrQCZDYooB7mogMZoEMZqBPZqAweqENTUJgwDUIY7UGExQIeoohp0oYCYoER6ggnqIDU0Ao1qBNc0Ans1AGKBMFrJIU461ob4FJckKYksnOOhOQaZpc7Wxr4sRVtVtLe6JMEvhyg/hJx+lNklLrs72ltnX+ayhHcfxmw3V5CP1qmbInTr/S29pAj8U6rCDzAn3xQ/USXaNEfTNPLoFl4r1aXZBJn0AND9S/CHR9N00eWaqvEuqrgq8UX88p5RQ3Wy6Qd2iofHL/bkiex0nSsy6rf/ABco38KM4X6nvQ9uK5seSy1GouWKY7V9sW3fF93q7jT9GtsR9AsYwB8zVXe5fGtDK9FXT/EueX9slijteFkN5ezLdamw8qg5Ef8AzQwqvlLlglKer+EeIf8AcAt7i4uZ31S8J52P3aml7nnfLs0SUVH2YdBlqx8N5JvxydKpKWFyZp8v49IHeflcRp0FczUXfyozaifgb8KXEp4ktkjXmbBJz2FL0ud/BydUl7DydYeTbeuwedSBpX61VlkATt1pbGoU3YBBpbHQEV7bhgdqrgdFiO40szvyImSxwKCi28IdFtvCALnhiyY8kl2vi+ipkA/Ota0XHL5OrX6bbKO5iG/4da0lKnDA7hh0IrLZS63hmO2uVTxICOmcp6UrArJvBp7vIqKPMTgUQLln0R9ndi1jw5bpKwaQjJNWow2zl6+UnPDHs6eKGLbjsK9DVWoxwjPB7eimaxoE807yQqSTVZ1tvKPSaPXQjFRkIn4Y1WeTlW0Y/wCo7Cl+3J+Dqx9S08FlyD4OGtN0qPxtXuw7jfwYzt9TV1Uo8yZkn6jfqHt00cL7ZFd8XpbRG30m3S2j6ZA3NVlqIx4iXq9Jc3v1MtzKve6jNcuXlkLE+prO7HI7NVUK1iKF7TkHOamTTGOSwcI6HLrV6sjofhojzOT0b2plMHN/sc/1XXR01W1P5PodcZal4sy2yMvJGoGF6CmamzC2o5fpOn2Qdj7ZznWbjMogU+ZuvsKxx+jtxeFksmlat8PYpFGOVUXFbYvCOfZTvnlk9nflL6OVt8HmIrk6u7NiS8HJ9R+XwXg6LazieBJMEcwzitEXlZPNSjhtEvNRKmwNWwVNgdqIDPaiA0zVSxnNEBgVCGScCiA1zQCeBqEPA1CHqhDAqEMVCGM0CYMZqEMVCGDVQoxQCeogNTQCa1CZMYqEMYqBMbVCFsxtTRaBrWUmWS3K475pFVsoWbUOsjwpoQ67pkcnMysEfOK6MoqSOtodS48PorNzJq2n5AZ2UdAdxSX7kejtVx013Iul4pvIf8y0jc+6VX35LtGpenVPqT/3ALjji+UEQ2wU/wCmMUP1MvCGx9Np/mef7iqfVuJNYPJFHLg9yarvtl0aI1aannCRqOE/CX4nXtQVF6+Hzbmp7SXNjKvWuT20xyazcTw2kZstAtREp2MuPMaq7sLFaDHSuT36h5/YDgtCr/EX7mWVtwmd6V1yxzs3fGvhDFANprlgqj8K1WU0uWIlLHxiDXF+1xKOQ8oxjArm36ht8CZy2rCNlQqhYnf1rG2YHyx59mcdzda5c3rArBEvIM9zW7Qwe5yMPqcoxqUPJ1BpdutdQ4CNI1M8gXOB3PoKMIb5YLIW3Oo2IlaPLAjbOafKivrJ0oaCxx3As6xshkWQFAMn1ArPLTPPAFpp7lEpeoa9PLI3gsIYs+VQuSR7mrravikeu0vpdMI4kssjttWmeORPDHjEcquNsVaEIqW5IkvS6a7VZHr6IoLSTn7k06KNc7Y4JdVtVMMS483Ws2sXCOF6h8obv3ADogEQlnmit1b8IbJLe+B2rPDTSkt3Rh0+jtv/AAQM+meEyvHIjrnZ07VW2mUOwX6W2hrejsvA9wDpKQlg7oME1mpeG0cr1Gtqal9h2oX1xppZzD40PXy9RXaq1kVHEymnohdxnDEF9x2kGQlvyt70x66pdM61Hojl3IrWo8dX1zlVk5FPpSJa/P4nZ0/o1NfLWStXesvNJ95KWY+prLK9yfLOtCiMI8IBn1ZImwzZPpU3YGRrclk0jmur1uW2tpZCfRaZHL6QMRgsyeCzcP8AAeoX0wl1EiCEblQck1pr00pczOZrPWKqY4q5ZbdU1a00WwGn6eFTAwSK02WRqjhHF02ls1NvvXHP9V1UKGYnmY9vWuW5ubyejhBRWCsqkss7TyZ5m/amx4BKSfA701WIJb8K7/OjZdti2JtmoRyMLafwmMzLkg5xXDU3KWWecsW5nTdOmeSziZ15GKjy+ldiHRwrElJpBSvV0KZtze9HADIaoQ256IMHgc9qPZMGeVj0BoYCkzByOoNTGCYZjNQBgGhkmD2agT1REPA0QGRRAeOKBDQ1UsjANREPVAIxQCYzUCYzUAYNQhrioExUIeoIh7FEBaxTCov1DxbdxNEMg7GsWqUl8omrT7ZrZIF1OOO6gOTv6+lXhrUliZo00nXIq91Jf2jEI6zIOzjNa42NrMHk7lUabFysMSXWtvESJtLjk9wcUHdLyjfDSr+WxoVXfFEce8OjKp9zVXf9RHw0sn+VgBNxJr16rC2his4/UDBqjum+uC602nhzN5YmewurmQyX90T/ANzZpffLZpV0YrFaCIEihHJax795GFBy+hby+bGbNPDaeZj40p7Vlt1MYddlZWN8LoHZpbx+aU/IdhXNsuc3liJSDIbdEHO2BjvVBEm2BatqLDkjtiDk74oxW4MIJZcjpvBluum6NEp/G45mPvXZ08dsDzets9yxj/4gHbNPyYsDe1tTb6dPcvs3hkj22ro6erZHc+yilmyMF9nLZLsmYsWySc1ilZln0CNSUcBpnkktJEBPmUimqTxkzbIqxMrHws7/AII3cj+UE1WCzyjuK2C7Yy03SL8eb4SfB9UNPjFmLUaunrcv9yPWL6S2ma0gYxiLAdhsWbvv6VS2xxe2JbR0xnH3J856F9rqbeKDcc00Y6gncUmXz4mM1np0LobVwzMss2oXTTSbAnp2A7CndsfXCFFahEMSDEB26kCq2x/hvJy/UMTqkn9Fn4T1RdNdUZiOcgGuHZ8ZZR5ydXv0/ui7TTCeM+YcuP1qOW5HMhDayl8RaeJgW2HvWKcX4O5pdQ48HO9TsriOVhG7j60Izmn2divU8ANlF8TOIbhiGz+tdHT2KXEuzZHU8cF40Dhiwl87xgtn81dumqPZg1WssguC3IulaRHzskakDoB1rYtsUcRvUah4TK9rf2gwWgIRkjUdBnc1ku10IdG6n0yMVmx8lFveLlvpGYSYye9cuWoVjy2devZFYQCt5FKeZpFY/OrK2K8l5STJY50c4BBNT34/ZX4je1b7sIB161k1N+5bUczV2J/FEiNPPqdpY2q5LtzOeygUmiLclg5stsYOcjqUMnIirncACuymedly8kokq2SuDdCz9FJ+VFJvoiiTDkghM1w3InYdzTq6s8yG1USsltSMT6jbWdoJ5YwC+6IepHrWjZCKyzVXonZPZHx2RTa4LC0W4ucK8gzHF6D1NW3Riss0V6H3Z+3X0u2Qwau72vx99KYIG/y0Gxf3+VGMsrL6GT0iU/ZqWX5f0RQcSveOUsrN5gOrbkD5mhvUuEsjJ+mxrWbpYCkvLhv821RT/pcZqrqi/Bjno6X+L/wJrviphcPFbQgohxzt3pXtROhR6JDZusfLGGmauL3yyJyP29DS517eUc3Xenex8oPKGFKOWZogPZokPZoEMGoRGuaATOagDU1MBRigE92qANTUIYNQh7GahD3SoQxioQtKTRyKCrg5p7hhZA4ST5R6WISxsh7ilSjlYBGW15KjNJLp13MJnynYGuBYnCbR6GEY3VpxXII91b3tv4kR3yRmqV6hwXxHKE6pYkV/UTIrEjDY9q2Q9RzxI31TjjkRXV+/4VWIH15ad+tg/JrioeWKrm5kckvOfoKo9VDyx0ZQXSApJkTdVaQ+9KlrIr8UH3SKSeaby55V9FrHZqJzFuZNFajHmGaULcwmPw4xliBigijbYsvda8WN4Y1IztmrYYyNeOWCabA7XsELHOWBz7U+r5NIXfatjZ12wuGESIgJAAAwK66TPMSWXks3Dtk91L40qkIh2BHU1t01WXuZmtltQ64kuRZ6Dev0xEwHzIrda9sGyvp1fuamC/c5jw/wxd6tKHdhHH+prl0aeU+We31/qVenjhcsuptNA4Zg5r1kkfH4W3J+ldFQhWuTzSt1mulirhCK/wDtJgjJj0+1giUdDgZpEtZCPETqaf8A4dnL5XSbEVzxxfXGc3JAPZdqTLWt9HVq9Fph/KVy6kN5cM5c8z7796MZqznydmuPtwxjowlm/NjB371fYR2rGRta2PIozj/emKODBbfl8Fh4esY5NSRXRXWFDI4PTJ2H96vhdM43qFr9l48vH+3ZNq2jmyke4gizEdx/pNcvV6bGWlwcjT27ZJMi0jiR+V/iTyqDhSa4jzF5N2o0i7gG3FzFdIWPKQasmn2ZFFx4K1e2SyyZQDHfaqKPPBqjZhciG+0giVTGMEHOfSrLKeUaK78De21hrO23OHUYPvXbo1iUOezVFwtXyK7rPEF3dsyxuwyd2rLqNc5cRY7fGCxEr8ttzsXYl2PUmufKTYl2NmY7Nc7qDQyLcyWKxUZIUb1UHuMYWmnqp5ulDBSVjYXc3qWUfKGHiMMLVopti1HcWXgfTnt7c31yeaaXpnsK6mnr2rJyPULlKWyPSLekvvWpHMJVlo5BgNv5HtobWFNml3z9a3JbIpfZ0NFXFqUn4Atdl8TWrLTy33eFyPXualsvmoG7Qwxp53rvkB1Kb+I8Xx2bbQxkZXtgdqpY91yh4NWmh7Ogdq7YPqaPrPGXwTkiGMgsB/KO1VsTsu2eEO0zWm9P91dskv7WTX+LG00MYrK1CqcemOgq0k7Ldi6RTT2x0mh9/ucsm+q6qIYGgsEEdukjRIi7Dy7En1OacpLGIlNLpd0t9zzJpN/38CVbu7WVJRhipzjJANDL7Om6q3FxM20MqoWZRljmilgFk4t4QzsmMThsdCDUksxZg1EVOLiWgHNYTx+DwNEB7NQBntRIYNAJigQ9UIeogNTQwE1oEMd6gTxqAPdqhD1Qh7NFEHGlW/hW8ck5Jdz5V9BWutYWWatVZum4w6QymeOKbw+bfGcULIc8GKCco7iv8V2HjW/xCLkr+IeorieoU5XuR7Ot6XftlsZz6S4lhhmhgPLy964ya28npXFNpyB5tX8PT8sOdwNz61I5xkp7GZ8CW6v4Wh8UqR3NBF1CSeAQy2s0XiggLjO9XWCfJPAJ4ls4LK4I9ahb5ECalakNy58vtQyW2yIU1eQlwVGB0IqLL6LKCAoZZ5fFk5mZc1aEU+y7klwdf4Z+y3TV06CfV4/iJ5FD8hJCpnfHvXpdL6ZXGCdnLZwNR6lPe1WWu24d0PTsGDT7ZGGwIQZrfHT1R6ijDK+6fbGUBt+YJHGgPsKYkhE1NLLY0t4wi5xV0YZyyyr8fXbGzgsE/wAy5kAx7Dc/2pOo5io/Z3fQqkrJXPqKEOtcV2/BunpZW+JtQkXZV35aXbdGiOF2dLSenT9QtdtnEEUcafxBxFO1xeTx24bfM8mP2rnOm+95k8HplqNLpI7K45/oid/s+vHGYtbsC3ocirr06X+oX/zyK7qkL7rgziWxBdIoryMdTbyBj+nWqy0dkf3H1+saWzhva/3QTpuky3MZ8VXSQdiMFTUqhJPKBbq1HroNXmsJRDdqeXPll7VuhYupdiXi2O6v/Ydp4Edv48jKY1GevanYXk5b3ueyPZPw4Wi0u71uRSrSTcvKeydqXF5TsE+oJSvhpV4X+RtDqsd+hjO6tsRRyprDOfbpHWUXiyKXTncAkQtuMV5zU1+3NxOhobFKOH2gGPiY2aQxJmRGwPcCsjjjoZPTKeWOINUtWGfEXnbtmpHgwTqkuDZ5YmVicHbarpoVhoCuIVkXlGN6JeM2hRc6cFzgVXA+NrA2s8bYoYLb8mq2gXm360CZN2MFogaVwo7ZNAiTfQLqGvLaKiwAOzd/SjHkbCrPYJac+q6jEz9zuPQVpphl4F32qqDwdQsbhY4UjXooAFdRLg8xJ5eWMYrjPeiUwWiO3iurOO4SINhQGA6/Ouh7cZRUsDsR3bX56IdfcCwt7qJSTbuCcfymrW8RUl4Nmgj/ABZVy/mQk1oTTXVprEJDRqAkmOq+/wAqXam5RsXR09G4xhPSy78Gbu1YarFq8B5ldQsqjqp9flVpQ/ie4iU2r2Hpp+Ogt7eOLVBqsWeeRQrr647ir7Fv3ozxslKn9PLpdGkNxBZ6vPf83klUE+zdKKwpOX2WlXOyiNPlFa1jUvhp5SgVoGkLgE9CTmkStUHjwdvSaffFZ/JL/sQ2+qWcwAaQxEnow2/WmRnGXTGT01seUsjO3w4+6dWHqCDV0jDPj8kFwhvEwAMY3qyRnljGSwW788EbZ6qDXOfZ5S6O2cl+5IDUFGagDNEhioQ9UIeqYAa5qBRg1CHtqBDVRvQIYJqBMc221AmDANQhtVgDy0Ie85snw4xkk1tjyzRasV48sUXGsh9dHdWPKBSJWfxDoV6PGmHMvmiZGGxGRml6iC/3ObHh5RzbieyFvdO0Q5OYYOO9eXvqdcseD1Wit9yGGVGFpYknhkyV3YUuD8G6xJ4aFoljubKdDlHQ5HvV4vhokk4yQphn8RZImIHKMj3qsOi0uAZblCkowBimRSxyFJgovwcgJjbrUgsEUcEUNxN5lG+dt6quOissI3iuZ4UZCfKBVo9cAltfJ9CfZ/xVDxbwzBPEcXMA8CZD3ZR1Hzr12jv92pPyjy+podNjz0xhdTujEHII7GnNj6oJrgN0FxPLI/YbCjB5M2uWyKRY1XybUw42eSg8ZXDWerrchDK8UOIU680jE42+lIte17j1fpEFZp3DpN8/0RQLHRdWu9Rku7iymmlZsu8g5foM9qyV1yctzXJ6O3V0xrVcZJL9iwxnT4Jhb6noyxc35gxGfqDWj4ZxJGFq6Ud+ntyZ1jhDNsb/AECdmVRl7eRske4P+9VsoaW6tldJ6s1P2dYv7oRaRqF8l8YZRLC8ZGQTsaTXbPdhnV1NVMq8rDOhQpHfW3M0amcDIfGCfY1uwpLJ5KbdU8J/ER6jYR3duxKjp0rPKCkjqae91zKvbaDd3N+LVZGEGQSv1pCjZnZng7dmurhW7GuToWv28OncOXFvF+Ecqj5gVusSjW0jyGisldqo2S/cq+gOS/Ws1R2dXygninT11CzdCMsBkGsPqNW7k5NFvtW58M5ZeF7RAnLytE+5PpXC3eDuZy8gVxPILuKZnKg/hxTJctE3JrBuOKbuO+EfPzJ0IPeo44KSoi0GPxkYrgRtGT756UOUJ/SrBtc8Xwq4Uoxz1xUTbKLTMhu+J4IgrKpYnsKmclo0MCvOIZHhDWwwTuSaCT8jI1JPkV3l7NqUSiSTdd6vhIckodENvchGJeTm5RgCgUm2+hzw1eYkz+bNbtNDHyZxNfPMtqL9YXZIG9bEcxot+k6He3RRpYzFERnmbuKb7VjXxRXb9lrsyLD7pQeQCt2mjKENs+y8ob4ohucxyM8UXNbuMOnXH09Kc1j+g+vlYk/kuhekMcQZbdwiH/pv0qqSXCNbnKXM1l/aPLAyKPuZE9PDOR+lFLBHNN95/qaywyuAFXL9uaNgf2qBjOK76/qhdPomu3b/AOTCsfXJbGf70txmzbXrdHWu3k3k4He5hCllEjZ5sdBVZafcisfWlCWfBvacC6Zo9nILh3keYYb1x6KO1GrSxgmUt9b1GpsTgsJf+8lck4Guxfyzx3YsLFmzHzZ58egH+9KVNik2nhHZj63W6lBx3z8/QpvI9V0y6a3OpyywZO4OMipKVieMjHqaZw3qtJl14R1Y39q1sw81uAufUUmR431PT+3P3P8AUPxVTlHqhDINHJD3NUTBgwGqEPc1HJMHu1AhjaoQ9jaoQ16A0AmlQhigEzRAe5qGSYDNS1CGxt3ggfmZvxN61rnNRWEdPTaeVst80VnSObUNeBXdYhk/Oslfys/odrUtVaZr7LVdatDFqcdmSMlME+9O1D5weerok63YKeINOF5G38w6GuZdUprDNOlvdbyjnd9J8I7xXKcoXbmx1FcmdLizu12qfMWIp7aITsiOOSQZBpaTTH+7xyJXgSCRoywJzjmox7DKx9gYtwzyJGQdv1q3QxWcZYBMFgbGfMOtVi2WUsgtxqsUByD2wRTIVN9GdkU+rC7txHBnm6ZpkKWpclHYkd++x+yii4DtEi2mLu7N/q5q9Lo0va4ORqJv3MvouiTrdp4V2gbO3N+YfKtqakuRDg63urYZpVrBYlhHPzKT0IwakYY6M2psnb2h4sgIwDk1Y5biVXjDS5ZrzTdQiXmS3nBlx2UZOf1/rSboNuLXhne9J1MY12Uyf5Lj+pXLvidxO+G71WVvJ2qvTVtQn1XWfjkKMOb0z2pU55WDo6XR+08oc/Z7dyTXEttIeZFG+fQ1bSzbzFnM9eqjGKsXYJq9tFFqfNGowWK7ftQtilLJo0lkpU8lk0ZWMSk9q0VnG1bWWQ3Vl/j54g3lYh1HoD1/eqyWJDKrv4UZf2GFjYW1uxlIGVXzEf0q8Yox3X2TW0R8b3ypa/Cg+beR/YntStRLjadD0uru3+yK9oB5sEDcd6VWdDUPgsFynNkdfLSdWuUcO58pnOeLLIJK4kACt+E1wbqdryjq6O/McFK1AS4iUb8hwKTng3RxlsW3Un+LDgFehq+c8ll0YvpUSUcjcxO5NF8vJWLb7Nbi5QuDk5OM0JLLBybyyxCTJbK8oGKkuXwVy2QXN5GgCQ52G+atjKRaKb5YA1y3NjNW28Bcg21jCecnPMNhQjFyeDJfdhDnTR4LA10I8cHFnzyX/hSwn1u6SCHPKMF2/lFGdiisiGjriW0uk2sZhctGihWVt/rWjRauX4zDBwseyRsdRguFHiLyt/MtdZNMstPOD+JsrxnLRTrkdC21FAakuJIhk8R95JLZv+7f+1TDGRwvxTMJJDGctLbD/tUmoFxk+EmTJqYCkW6STt/pXA/aimKem8zeDX4qZWaS+nWIEY5QcsKn9S3txa21LJrDqnO3JaQSPFjDSHbP1qJ/QZ6bCzZLD+v/AKMyTsWlmj8IsicqgN+D3JqZBGCwoyzy/wDcqV7qHklv76VmRCRGOgc+3qBSJS4bZ3q6cYpqWG+/2AxaodOs7iXle5uvFcI/TGNqpjhNlLpP3JwXUcGOEZ1tfiGH53/pXL1NjjJYOX6n8nGP0XWGdJow6mnwmprKOI1hm+asA9nFQmD2agDGaJDFAhnmqZJg8COtEB4moQ17UAoxUIYxUIeqEMZqEKrqWrHdVy8jbKo6k0ucz2tFK/sWjhjTV0PTHvrvaVhztn19K1UQ9uG6RxfUdQ9Raqq+iqNqL6hrElyCcvIOXHzrK5bm2bnUqqlD6Rebhcpv1xSpHCiyr65pEV4jB0ByKVKOTXVY49HNte4YvYCTaSHA6A1ndKOhDVZ7KVrkWrKwIjbI6470tULOWaVqItC2LU7236xOGHtVXSXV8QF7q+mlZih3q6pgkD38dGE0yW5bmmJ37UxPHCEysbG1np6Qgcq1MlDt32L3Up0q6tWU+HFLlG7bjcV0/T7O4GTUpYLxfo9u/idFfcGui+GVoamsfQF8a6nPOf1oqRp9lPwE2vEE0JxzZX+tXUxFmgjJDOPW47lCGIGRghuhqyZilopQfBV9Y4P+LkafTyqFtzETlfoR0rPZRnmJ3dH6t7a2Xc/v5KXfwz6dO8FzC8ci9QRWKeYvDPSU2wtipweUXbgezbTdIudSuAYzLnkDDcjtWvSx2xcmeY9ZuV98aIc4EGoajm5DHqZBj9aTbZydfT0Yhj9i7aNK72issTnI642rZX0eZ1kUptNg2qWUrXyXT3SW8SpysAcsd+woTg3JPI7S3RVbrjHLz/Ymlv0sLQTOvIgGYY2/E5/marNqMci4UO2e1cvy/H9Ec+4g1J7gsXbLSNk1zpT3Syd+NarhtiGcO7Lk9DT6zJqJcFiPm5j9KRqXzg4175SEOu6ZFqFu0TjfsaxyimsMFdjg8o5pqtvJo0kqzoWTHlbFYrKMdHXq1CsRW4Zo7yQSZBwcGkuDRr3LbwZubOMSFiwxjbFTkr7vADLbOZiM7gDFTJf3Fg8IJHYh2G3vQyib0gRpIklZXcYHemqLaygOfHArS6eeciNSVz1rX7WFyZJ3li05HIBkPyoQgomCybkx1FgAVcSd++zHQ003QIriRfvrkCRj7dhSG98sGS1vOEWu7zNGUQEg98V1KdA8qU2Vq+LyxNJpV1GMrGzL7Det+1o6MdVW+GyJrG9IxyBB6uwFWSkXV9S85ImtIoxm6v1H+mIZ/c0dv2xkbZP/AKcP9yBtU020z4UAkYfmlPN/xQ3RQ1aW+z8nj+hJBf6nqa80IEMH/uN5UHy9fpRUnLoXOjT0PEuZfXbILy40uzH+JmkvJQc/i5Vz6YFB7V2xtNeotfwW1GJr65niE96/wVmo8sQ2dh7DsKO5tc8IMKa4PZUt0/vx/wDYmGtyau72tiPA063IaeXPX2z3JpPuOb2w6N70sNOt9vNj6X/vgQX+py8Wa/FYwt/h42wcdAB2pUpe5PaujXVVHR0Ob7JdV1cXeruLZsW9nH4MWOhxsT9TUlPMuPBkhVtq+fcnlk2nz+GxTfI3rkarmbOBrOZlr0K/5pPCJOGHf1qaWfODm2w8j0Nit2TPg9miQxmoTBkNUAYBJJokPCoA2qYIa5qBwYqEPVAGpNQODUmgQ9k1CCzhThZrc/xLVCPEG4U9E/5plFGPnM9Jr/UMr2aegXi/ib4k/A2zYjGxx3pd9297V0HQ6P2l7k+wThDT2utQR+UmOI8zH+lKx4BrrdsH9su8++aDRxYiq6XINLaHRYhvrYPnaqYHRZWtR0pJM5QVXA6Miu3ehx5PkH6VXAxSFkuiRgnyCg0WUiH+Fhe1DBbceFhjtQwHcd84F0WPTeFLJVjCM6iR/Uk1q0KxZk5dtubGixanaLc2DIB5gOZfnXdksoRprXC3JTJnKNg5yO1IyelgsrKIWmC9KORihkHa+aMnDb0dzLqtPs8nEEsAwshH1qe40B6SE+0TDi2bGGYMPQ70feKf8tr8E543n5Ao5AAMDbpR94ovR685ITxbKTzEIWHQ8o2qvvIavSo9EE3FV3Ntzt9KDvGw9Lrj4GUP+AhW91M885GY7c/l9C3v7VfOFukYZ/xpOqjiPl/+BDqurS3cjSzOSf6VittcmdGiiNUdsSp3tybm4AGeu1Uii02WPTJvAhBJ/CMmtG5QjlmGzkZ6LqRvGuA2eoYewrlwvdspNnJ1UcNMJuCCDTTOiv6xpsF9EySIGB9aGBkW0c11rgxrNpGsXKc25FKlWma672iq3cOr2w5MZ5e/rS/ajnk0q/KA7q71KTl8hDDqakaoLsPu/RqtzfMpUpue9D2YZLO8ii0uWWQvK537U7cksIS7ZMbWmnpEBhQKGRLGkCBR0qZFsY2MSz3MMTHlDuqk+gJqN4WSjR9SaXaxW9jBEn4I0Cj5AUlRT5ObOTyLdd8eA+JbSOB3UGmv1GdHHaOhodk/jNFel1i8XYzP8jXTp1nuRUkdmGkqfSBZdVuGB5nY/Wn+62PhpYLpENtbX+qORCjMo6udlX5mgnKXQyy2mhfJ/wDkYJa6bpA8S6kW8nH5f+mp/v8AWmqMY8yMbsv1PFa2x/z/APQuvuIb3VJ1trRWYt5VVdhVJXNvETZToKtPF2WG4S00FDcXTrc3o3yTlYz7ep96iSj8pdlHKzVPZBbYf5ZVLjVNR4w1U6fYyEKPNNMfwxL3J9/as8pyultidSNdOhq3yXPhfbNOKdcg0mxj0DR84Gxb8zHu7e5q1k1COyArS0SnN6i/t/8AuEY09Bw1w80+f8dfAohPVV7tQivbh+7F3S/UXbf5Y9/+AWyYWtm0pGSxAFL6WCl0t0sBtrcsPDYnzNnNYdVjcjga2K3Fj0u6dJI2fqCMVng2nk5c0sFzVgQD610jJgzzUQGQ1QhkHeiirPc2NqJDAO9QhtzdagMGDjGQajIjHvQCeznNEhigQ1xUwTJ7FTBMlf4m4yMube12HQAVLr3LiJ6rR+nqtb7OyqQ80j8znmZjvSUsGuyR07h/To9M01FBzJKA7n39KuujzGqtdk39IJnbrVWKiL5znNUY1Cy4QHNVGJim5gBzVcDExXc2oOds0MDExXPaDfaqlkwN7QelDBbJCLQBxkbZoYDk+gLXkTSoFQbCNcfLFadJJKaRyMN2MnjlDrjNd1FZRwxBrWhPNzzW+79SPWlTrzyjraLWqPxn0VK7EsDFXVkYdiMUl5R369s1mPImurtgDvQyOVYva7IzuSarkvtIvizvvQLpGy3m2xoZGqBNFM0jBV5mYnAA6mqNjUlFZZcdO0pNAt1vtSVWu2GYYD/0/wDU3v7VohBVrdPs4Oo1T1cnVR+Pl/f7IUapq5lkaSaTLH3rPZY5M11Uxrjtj0Vy81BpcgEgVRRDKaXCILOJnkEmPlTUsGdsYyXJ5fAU5H5iP6VzNZqt38OIiXI34YI8Wc535RStJy2c3V9IbTNjNbTGjSx0O91uVo7OLm5d2ZjhV+Zq8KpTfxBO2NazIcf+lkJXm1LUuXP5Yl/uf9q1LRr+ZiFrHLiETLfZfwWUKzRyzMfzNMwP7Yq36eosrdQ+kCzfZLwHKgT4NgR+YTvk/vU/T1fRdWagU3n2C8Kzkta6heW+ei86sB+oz+9UejrfTLLVXLtFe1H/AMP1/CrPpuqW1zjosqFCfqMiky0T/lYyOt/1Iper8Ea9w8T/ABDTJ44x/wBVRzJ/9htWeVM4dofG6EumKlGKWWCbd+SRG6YYH96jK4PqTRLgXGl20qHmDRqcj5Uit5imjm3RxNoxfxeLnOB239KHsu6e1DKJbRNcWtlGCZZ4lH6mu/CquuKjno6ddtr4jFime70a1PMsLXLjfLbL+lTNUTfCrVWcN7ULb/ieeVPDTlijHRV2A+lCWoXSNun9NhF5fLE8AutYuDDbgyEbsxOFQepNKUpWPETfOdenjul/9sa3GoWXD1q0NqQ0pGJJj1b5eg9qenGpcdnPjVZqZb7evCKLc39/xTqS6dpwZmc4Z+yj1rM5SseEdde3pob59Ie6nc2XBejfwnTiHmbeeYfilf8A2p0mqo7Y9nPrU9TZ79v9l9FW4esW1DUfiLkl8tzMaVXHLyzTqL9sMRGWq3TanftIoPhIAkY9FFGUt0siKoe3DHnybXAWJUjY4VFBY+/pS7JqPLM057U5M0hZpZQwbl9BXJsk5yycS6W5tssGnSycyK5GcihFvPJjlFeDoCN5APaur4OcbBqADYNRIbBquipgtQIjyv2qEwQajqdnpVo91fXEdvCvV3OBRbwO02mt1E/bqjliCz+0nhm+mEMWoYycBnQqpPzqm5dHUu/4f1tUdzjn+j5LOmHUMpBU7gjvV0jiPjhmcYo4Bk9QIalj2oBNeb2qZJg5hHEzNzMcse9JSwe7nLIVaZN9b26LzF5AGb0rJZfmWyJhvniLOoCUKoUdAMVrTPOYIpJhjrUyFIEkYtsBmgWQHPG4BJRgPlQ2sumLplyD61UYhfMhOaqXTAZogc7VUsmCvBQLZIWt/aoTJ1zhe5F7oNsxPMQgRvmNqrXJxlleDBatsyQTmCQq2xBxXoarFKOUP2KayglLtWHWmpiXU0C3ttb3iFZY1YHuRQaTH02TreYsrWocHWdwSYi0R9BSnUjrVepWJfLkQ3P2f3BP3Vz19RVHSzXH1KHlAv8A6eaixws6/wD1ND2JfYxepVLsOsPsrvJmBnvuRf8ASlRaVvtibPXK4L4rJYGs9A4AtvFOJ74jytIeZs+3pTMV0rPkwK3VepSw+IFE1bie61Od5SSOY9TuaxTm5vLO3VVCiGyAmeaSRiSST71FHAJTybQQMzZaj0JZNLMFHgx9fzN/aubq9T/JEozeBTjeuWJkyxcNRckU8385Cj6V0dHHEWzmauWWol10fhRtRiFzeSGCAjKgfiYevsK6tWn3LMujl2aja9sVljl7+z0W2Fpp8YVR1PUsfWtO6Na2xLU6Sdr3WCS91S7uGJKSt8lJrPK2TOvTpqoLGUK5L+YMVZZAR1BBpTsZujTDGUR/xNg2CxHzoe6M/TImj1Jidn/erK0TLTL6D7XVJU6Of1p0bGZLNLF9oZRav4g5ZVVwRvkU5WZ7MM9Jj8Ss8SfZloXEfPcWQGn3h35o18jH3X+4pVmnjPldi4znXwzk2u8Kahw5dGC+hKj8ki7o49jXPnW4PDNUZqS4Ou/ZVq73/Dot2fD2x8Mk+nb9qw7ZKUooRqYriRc5kQo6yYII/WmJ7H2ZoN5TRz/inh0R80tu8i98ZpF180en0XqLa2yRTreK6F2LaaRyHOFbPf0qumvcp7ZeTqrULsfW/CysnjXUxihXq7nc/IV3oabzJip+oNPbBZYPqvE1pYQGz09VihXsvVj6k+tXlfGK2wK06ZuXuWvMilXd1d61cCCEnDHtSMubOimo8lztba14K0fkiwb+5XzN3UVp4qjx2zmyk9VZl/iv8spd+ZL25Lueakd9mvdhDPSFNrBKwBJ5DsKapYQiXyaybxPHCnOV5cfzDFZ3PAybwuxfPdvdTDuuf1rnXX73hdHLunnoNtVKuDnakdHPkslg0SL4i8jQnbOTTaVulgyXfGLZeBIMYFdM5pur0UAJ8FYlDXEixZ6L1b9K0Q07ay+BtdE7PxRLJFBahWnlYFvwpjzN9KatOl2y0NLKb+PRFqmoabo9sZbwhGA5irPjlHv6VaVVUFmRo03p09RLFfKKvb/adw7dziCK6s0yeXMjFR+ppalS+MHZn/w5ZXFtxb/pyc6+2XWDqGvWtjDOklpFCsg8J+ZGZs7577YpFiSk8He9B0sdPppSSw5Pz3wV/SLMMAUHTuaQ2a7JnYfs/wBRf4G40+5mBNsUaIsd+RgdvoQ1Pqg5R4PFesaFu33Kl33/AFLaGzU/qeeaxweyKBDWoFGcCoA5jLOI1YJvgda41+rz8YHtJzDeEXFxqKOf+nljVdGtzyc7VvEWdGS2+6Ek8nIGGQo64rv1aVyW6TwcqMXJ4QRax6dz+cM5/wBTVojpql+4Z1WJcDNLmCKP7qKNPkK0RjGPSM3syb5YHeXnMD5s0WzTTVgr2owRTZIUK/qBisd1EZLK7N8aE1wIJoyrFWG9cuUWnhiHFxeGCvGCTVSJkEkPpQCmQ+CKBYtfBWpm1Etox2/Ev96RZLY9yFWVqZYbsGVecHJA3PrT9LrfbeJdFqfjwxabsxEjmwR613I2KSymbVUpGv8AEmBOTmrqQVp0bJqGT+KrKQHp8BcV0rEZ+uTRyZ5VNBa39vCheR0RR1Jq25LszumUnhFc177RYrVWg0sLNJjHiflX/es9mpS4ib9L6Ru+V3C+jnd7c3F/O09zK8sjHdmrG25PLO9FxhHbBYRAIMjBoi3LJtyRwqWYgD1NUlNRWWUbIHuzICsIwP5v9q5l+sb4gUcsEsMe3esDYlsKjQkhVGWbYChFOTwiknhZZ0PgzRYp+QzFfAt8F89Hb0r0OjoWEn0jgaq1ttrtlt1HVrOJSskxCD8sY6/Wt87IrspptJbLmK/3EbcZWFmxFtZgt/MRzNWf9VCPSOmvSLrF/Emat9oLj8drIFPfw6H63HgtH0BPqX+Ta2490qdwLhQj+p2ox1lb7K2eh6iC+HQ3U6RqyZTwZAexANPWyZz2tTp3zlC+94PtJQWgBhbsUO36Uqeli+uDZT6tZHifIlm02901j4q+JGOjr/cUh1zh30dKGoquXx4f0TWsiyDykGrweRVkWuxhEzRjmB6U6LwY5xT4N7+xtNdsXtL6JZI2HfqD6/OrOKmsMyuLg+DnK2t9wBrXhq7NZTMCGxsw9/cVxNdppLmPaNdUozWGdOstWivrZJEcMpGdqyxt3oyTpcJAmoKJh5gd+lUk89jqnt6KxLpMaXkU7LkK4Y/rQpio2Rk/s6Eb3twVnjK91C+naPxHigTZUXYYrtXXbn3wdjSKquGV2Ua4uDbkhiZPYb1ilqILpmh3ot3A6Wrn4skELuc9sVv0s4y+QjUWNxwhXq+u/H300z8x5mOB6DtUlJybZohUoRUUAw3Ss+MN+lVzgjQYurLApCHLe1JlqEhE3Fdgjzy3Ll5CQmelYrLXL+hkssb4QTHbhV5s5pL4Mr5GUI2AxQbFNItPDsHhRmdurbL8q36WGFuZy9VPL2otGjwfHXaxk+UbtXRor3ywY8cZGejySXeozq6iOO2PLyY/N/8AgroV4ba+jfqq4VUx29yAOGP/ANU1e5ubolvBcqqnoGz1+lLplvk2/Bt9S/gURrr8oxolwL7VdT1Sfz+A7+ED0UDP9hUqe6UpsOsr9qirTw84z/c5F9oV9f6xYmUuyrPMXYeqjP8AuP2rnStc5bpdeD2Whor062R8LBQ49IYjcHPSpvNjs+hlp+hZ5CwJHTJNVcxFlrZatM05YmXyjC1QxTlwHWGrCx4kvYi/3XgwoxIyAfMd/wD7Vs0zxkx317oRx3ydB0/VUSFPF/A2yup5l/3rTOpS5XZ5jWaL3G5R7G3MGGQcg96yNYOI01wzNQBkYxUIcg+MAkkVsDlG1eYr7eT1s22O/s/Qy3nKNzNIE+md66HpteX/AFMWtlx/QunEGqmO5dVOApwBXpbJY4NPp+lTgmxJHrMgfBJxSFZydSWjjgf6fqDyJknJ9BT4yycjUadRYxitbu7/AARNg9z0q6TZjlbXX2yG405IM/EX1vEfQHJqOH2Mr1Dl+EGxbcpoxGJL9mYd1QD+9Is08JdsdOi+3+TAEbfRnPlv5R80B/vSP0cPEin6DULwYbSbKXPw+pKT6OmP3BNVeh/0yKS0t0e4gNzpc9r5nUMnZ1OVP1rHbROv8kJ5XDNIA8MqyRnDKcg0hx3LDBktlnqAlgUkHONx71zpJ1vay6WeUDX/AClWboc96bXfOvmLwaKpNcIrl3qU9sHKokmD2JBrXX6pP+ZZOhCSfYql4ski62xHzb/itcfUoseq4v8AmB5ONbwgqoiQnv1NMWtz00Faev7ALnXrq9H+IuWcehbA/Sg7t3bGRjXD8UDm+iXrIg+tV92K7ZHNGkmqQRjd8/IVSWqrj5FuSIn1R2GI0xnoWrNPWt8RQtzIiskpBd2b51inOUu2LdgVbx8vTellM5Chhd84xVGwoZaLEJpDct+BdkHr71v0VP8A/YzDq7f5EWK21KayyYJCgPUdjXTUnHowItXEj3S6LBdQIjGWFWOR3xvWnUOXt5iaPStk7nCx+TnEWranDfxMqAkuAVC/i36Vxo22qaPaT0tEqms+Dsd3p9pd2axuqxSgbMBt9a9C4KSwz51VfbXY5LlFE1DTtOkvGsbxFtrrtzfhceoPeudOuDltksM9Tp9Rcq/dqe6P+V/UGHCmo2B8WwuZVUbjkbKn6VT9NOHMGP8A+Z0WrbdEbabxdqGlYi1aEvF08VR0+Yp1eqnDixGDUek03/LTPn6LZDNa6rbC4tZFkiI7b1ui4zWYnAnCzTz2WLDE9/ooVjLaEI/Ur2akTq8xOjp9ZlbbOURWkxkJjkHK46g0IPwy9scLdHoYKhz9KcjI2CavpcGsWT2tyoIP4W7qfUUJwU1hi09ryjnEOrXnCl81rclhGG5Sp/qK8zq6JVTzE6tMY31/uW+z1i21KISRy5GO5pEWpGedcoPk2laP8oLfpTUsFE2V3W4kmVlG7Y29qpJ54NdUmin3+ijfyjPego4NcbgXTTcaVKzRDKMCHTsa0UXOt8dDPdIblU5yY4Ovqa0y1n+lD/1TaBfDncnLAD0AxWeVs5dsU7myWC3WMHOKXnAtyyGQxDoenSqtlQlOVR7VVsrg2huVuLtLWJhnq5H5Vp2nr3y56M2omq45OmcGmCd54WVRhFCkjPLXoNJCLyjkRzzIstra/ATlnVVL9GUbGtkI7X0Wk4TXwMXsvwN78Wi+SXAlI6Buxq74eUMpj7tftvtdf0FtjF/CtVmcH7i6YyIfQnqKXCOyT/c23S9+hJ9x4NLGzFl/E7QN/n87Rn1Vs/3NGEdqaLXXe77Vn+nGf7FQ13Q7a44CZ5Q0d1buPCkHVWJwQfUeorLOuPscro7um1U/+ZbYv4yXP9Ozmd0l/orxi+s1mSVco8BySPdawyraPQxULM7PBJZ8Q6cW5WmMJ/lkUjFU2sXKh+CwWGqWRRpPjrbk7kuKHJlspl9CjR7warxBf3NjIDMJMxA9JUAAx+21dDTr4mPVR2JKf4/9n9l1i1eKW3WeOMIh8s0ajAB9cdt617lg5sqZJ7G/6P8A+B/w/rglYWkxww2GaTZBNZOL6jo+PdgWHO9ZTiGc1AHCprrnnc+teVbzJnrkuDoP2P2jXV3NeEfd24wP+4/8f1r0npFXG5+Dl66XGAjXJua9mJPRjW3USwz0uhhitYALGGS9nEcKs59BWeGZPg13zVUMyeDpOlaRbaTZC5vSqhVBIPaunCGFyeK1OrnqLNlRWOI/tBZ2aCzfwohsCOprPdrIw4R3PTvQElvtWWUu54h8ViXlLH3NYJats9LXoVFYSBxrEbfmFV95sZ+nwTRXyy9MVZWMVKGBja85OVJrTCTMtjjjkaW+pTWhwWyDsQehrQp+GYLdNCxcoYy3FrqkSPDEkU6bMEGA49cetZdTSpLdBcnD1GilTlrlEaK8asVbB7CuNqKtyyZ65YeDSW+8SPDNg9Dmuc84NUUBTorIQMb7mrQxgYpCO+s1kztVxsbGJJ7FcnbNFF/cAXs8Hl5fnRJ7jIzajOMD2qwPcMpajvipgq5skCKjYxVcky2ELGMAnOB6UGREplSJSzMBiqNjEhddai0zeGvlTufWhCDk8MMpKKLDpt4EgRB0Aruw4WDjz5eRklzzD1PpVheDqOkOLjRILa8jYIYlBUjDIcV0K+YbZCWnGfuV9lZ1Dh2Wx1S1lVDJbeMpEqjYb9/SsVlDjNPweh0/qEbaJxbxLD4/8FwnPiJkda35PPQ4fIh1vR7bWrc214GGDlJUOHjPqDSbK42LbI6el1E9PLfV/deGKLHSte0CMm21D42JdxzjfHvWeNdtf4vKN9mo0mq4shtZYNHvrfie2khubUQ3MezDHlb5Voqmrk1JcnL1dM9DNShLMWKJrW74XvPi9NJMWfvICfKw/saQ4yoluh19HQhbXrq/bv78MtMV3BqVlHe2xJjkG47qe4NblJTjuicJ1TpsdVnaFV5GBIJAMMPTvSpR8m2qbxtYdZutwnlYelXg8me1OL5CWgCr8vWr4EKeSi/aRoP8Q003cSfewdfdf+Kw66nfDcu0btDd7dmH0zl0WqXmm3AigY8xGSpOzEV591Z5R2nBSWWWLTOPo7lRHccsJG242qisa4kjJPS45QzTVraVGfxAxbpvV4tCnCS4AppFlB6fMVZIK4AWtgckbYq+0tvBJrYYJFVwWUgdowAQOtAYmaHCDfFVbLoDu9Xgs1JZx+tVy28IvGORLd8SyXCtHCGjBH4uhFWVcs8keEXT7JxYrqK2+oRLL8ShGX3PN1H9DXc0VcU8S8nG1E/dswjsdlw/bWMrXFinUY2Y7j5E11YVKDzEzqUVw1gMa8yhiff1DdqbksqedyIWkbkK5EsZ6g+np70Biis56YMShUopDJ/KTuPlUHLPb7IJZeYABi3L0x+If70BsI4/94K9xNKsujXNujlmkYOV5cYIIP74pNqzFo6ugi43xm10UDXZYzrWnSc2IorbLE7YIJzWSxLKO/Q5KmcfLYfHwxC9rqN1PGsjABVBUEb7g/tV41dsStU3OEF0yu8U8Iw2jWl/aQqIJkV2QDYZ6j9ak4pJSG6fUOanXLtNoO1HQzok+na1ZDlt51VWC9FYUyS24mjn1We5von2izyvFa3FvfGJXtb4csikbc/f9Rv+tOeE8+GYYQcoyqb5j1/QIZvAcQx5Jj88D9yv8vvRx4M7juW5+eH/AOS4aRfjULJJT+Lo3zrHOOHg8vqqPZscQ3NUwZjjNjwDxRqzhrfTJo0P55vux++9cPT+m3zeXHC/c9LPU1xXZ2T7PuGJuF9E+Eumje4Z2eQodsnoN/YCvUaOh1Q2vs5OptU5ZRz7Xbt5dWltot3MhGPrXN1M27HFH0HQ1KNCsl1gvnBukQ6fa+NLjmxzM57V0tNUoRPJ+r6uV09keiqcdcdPf3RsbIsY1PKqr1Y1k1mrefbrO96L6NGiHu29sU6fwFreqxi4upEsYW3BlPmI+VZqtBZP5T4Nt/rmmpeyv5P9gw/ZdYcpEmujm9jWpenRXkyf8/tfVTIH+yUsM2euxsf5XxvR/wCX/TB/+QNfnWzFrwTqmmS/4qNnQdHj8wqi0sovks/VKrl8WP4bBLaMEnJPetMY4McrnNgF+ME43oSH1yALW9kt5gytjBpe5obJRksMtNvcpeWvjLgN0Ye9Y9RCPa8nmNbR7NmF0xVqHkLAdT0rhWJxk4svW8rIobVZBzKR0FKWR2ERHUI5R1FMiyYBXdHbIOBV0wA8iJ1qxCAop6AVCGpVVoZLIheeND5iKrkskDy6oB5IxlvU9qq23wi6QBcXLNJuxbA+lHYky25gNxe4dQDuTT6VmWRVj4wX7g7hrVOIlRraIpbjZp32UfL1NdeqqUzmWTjE6xw9wTYaMRNITcTj/qP0X5DtW6uiMeTFZc3whvKFLvyjGKuy0G0lkG8aSFjg7elDdgfsjI3W+j6PEP8A47UdyK+xLwyKWewbPN4o+ooNxLwruXWAdZ9PiOVknH/yH+1VzFDnC6XaQZpAtBcTXMMRUtyhmJ/E2dvrVq9uW0ZdV7m1QkyDVgjySIcEULEO0raSYp4euDp+qPYu2La8/CD0V+360ih7J7X0zfr6/epVy/KP/YPvh4cjIe1aJIwVPKyRabN4czKWAB3AqseGMtW6I6dwUyT8qcYEuRRqHLLC6uMqw5SD3qr5WGPisPg4lxNpX8P1GaP8JjPPGf5lNed1FTrm0d3T3bo4KpOjC5KupCFSQff1pKNPG3gDTVrm35xFK3lHXNU9iLC4J9hVtxbdgFch+UZNBUy8MXKlBcPGzSDl5DkDpRcbEUdCRn/zgrty8jscVFGbB7QLLxXIzlYotx3Y1Pbl5Zf20hRccRXOoSmFpTEv+nanKnas9jNqisoXmX71zlpOToc7Zq+COXAbo8L3s6CRxmRwo5zhRk9SewpldacjBq7ti2xO48LfZRe2FxBeXN/G3hkSKluCwz1Hm/4rrw0klzk5aaTy2X9/Hth0YY9q2ptGmOyZqdTZ/LMquB3I3/WjuXkP6ZLmJqJFnb/DtyEdnbap/QttcV8+TSWGV286rKR+aNt6mGGE4pccf1A7lXVcO2fQSqV/egzTU03x/j/wJtRlZh4bRX3KdgsT86n9jSpM6FEF2mv78Fev+B77V5XghtZ4S45eeUDAB75FJlTKT4N9fqVNUd0pJ4+i4z6XHDp12g3jASNT/MVBFatuEzi06hu2H3y/9xNc6alzwtArqCUaRRn05if70rbmvB0Y3bdZL98ANtANR4OurJ15mt35lPpVa/lW4/Qbl7erjNeUA2b/AB3CdzEd3tsSr7Ef8Zowe6t/sC5e3qIz++DVb0zaZBcgnngcAn2P/OKspZimKnWla4+Gi18JXSNLcQqfxBZFH9aTcvJ5z1OtpRl/YslIOQNLjVlViseB2rpuR0K9I2ssOQkR574yaujK+zjVnF4/E987/luHUZ7eY1xK45vk/wBz6RZPbooJfS/7Fm421x9G0OOyts/EXR5VA64ro6mx114j2zg+kaRajUO2fUQDg7hG4tU+LMKS377mWXdYfkO5pWl0uxbn2a/VPU4Tft5xD6Xb/wDCG+rcKaxeuPCvGkON3aQDf2UZrRZXN9Mw6X1TTVL5Rx/b/wCSvy8DcQkt4eq6cWH5XLA/0rN+nu/1HTXrem//AFv/AAKdQtuIuHHB1C1JiPSaB+ZaXL3q/wAjbRqNJql/DfP0xto3GN3GoMcxdO6t/wA02vVPyZNT6XTZ2uSzxapZa1CUmjSCc9HXoTWpSjNHFlpbdNLMXlFd1S3mt5jC4x/KR0IpTWODoVWRnHchJPG0bkikziOUsobcOXx+8ikBCs2AfesVyaju+jnepVb0pLtBmpoGiLjfFc7UVqcdyOTVLa8Mq9y4DiReh2NYFw8m1PgUTtyTg+h3qdMt4Bby5kjnyjkLnpRk/lwFdHrm7kRiqtkCmyis8FUQfGy+EW5zzZ6YqqXBYjjupHVy7scDbFGMfsmQaOTDcxOd6iiuw5ITcZkd89TRfLyWQFLegByDvQSy8EzwCwsZH52Nba4bVgQ3ln0D9lPHFhdaHb6PcqIri1TlHLtzr6/P1rr6a+O1RZzrdNJycoHRI7i2mXyXA+TVrTT6ZklXZF8xNDA/ilkKupGNmFDa8llNYw+COWymfpH9ciquDLwuivIPLYTDohPyoODHQvi/IDJpF0+cRke5OKp7cmaY6uteSNNKt7U+Jezq+OkcZ6/M0FWl+TLPVTnxUv7sIsrw3t7FFGvJBF5+VdgAKvGW6WF0JuqVdblLlsgvLoGZyehNST5GVQwkhPfzGNRJHu6EMp9CDWax45R09PFS+MumPdUmE9vBeJ+GaMP+orXJ5SkcWmDhKVb8MRm8WKZJD0U7+9KybFFtNFhS9DwKQSARTk+DA4YkLby5zlQdqGR0YcFG4zsU1GIcuBKgIDVh1UFIdXJw5OYXtxJaHlvlIZcr8x7VzJVtG+uakuBb4KytL4XmBUke4qq/c0qfHIs8J7bLHYsp2oxlyX3JkUavEFnRhk1bPgo5rLTNopZbObxSQ2eoqcMCxNA0pZpyXchnOSBVk+OAb8Lg0mSOJBMpPLnfNGLbe0is45M/ELcEJAML+arKtrszSt2rLLHw5pkt/eW9lCuXmcKP7mmZ2o5s5NvLPom2t30e1ggt5W5EUJykk4xWzQ32OOJdfZr0+LI4kugpNbuYhgyN8q6SsGS0VcvBltaEn+dDE/zWjuTAtFt/Fs1F/Yt1tyn/AGuamUH2Ll/Ma/E2IOUknQn/AFA4/ajlB9q7ykyG5+Fnj5JNRnIznAUY/rVXh+RlXuQeVBGlpaafE4Zrm4lGfwgBc1IxS8l7bbpLCikOHaWSJzDCLZCPxSbE+gFX58HNSjGSUnuf7C3U5EgsYrONxNMzczcu+WPYVSTwsG7TRcrHbLhID1lV07S4LIkeIilnwfzE5IoS+McGjRt3XSt8Pr+iFfDgVdG1iVx5ThB896Tp+pM1+o831RQk4RxLa6mhPl5JAf0NSjpoPqHDi/3Qq0eXn0a9QnYR5/TepW/iyahfxIP9yzcHzn+Jwr6wEH96pY/icP1WP8Jv9y881IPOYAoZjNexodwWFbs8nqpw21tlxXJX6da0o82+GcphtjbcW38LjH+KY/QnI/rXKrji+X9T3srFPQVyX+k01udL3i/mlOY7NQqD/V3NOs+VvPgXpYuvRYXcg3UuLruGM29nbSxxpgFsYzTJXOPEUI0/ptTe+2WWDcP8YXH8TihmZ0Ltgc3TNUr1LcsMfrfTKnS5R8Fr4vkUGOQHkleMOGHXNaLujiekxbyu0mKdB4hF54mn3xVwdmVtwR60qm7fmMjfrtB7eLquBFxRpS6bcme2AQdSoHlYetJurUXlG3Q3u2HyM6ZN4iLIp8p7+lStjbMNYHUx+Ns/Pu8W4PcitD5WTlte3PjpkS6XDIoaQ7dam1Mo7WnhAeoSQWrwR26gDnWsuqajWwPc4tyCpJkZih6NsPnXFpn/ACs5E4+Sr65bvbc7IuUO+B2NUuozyhlVnhlflnWRBIOh/rWNxwzUnwBXzj16gGptyHJA8oI5s9RTIkb4NPFXwyc9KOCJkaS+Rt9jRwRMFNyFDDNTAUxbLqK8jKp83SrKDJuBoUeTdzWiEEhblkNjGNhTCI6F9lOlre6z48vmSKNiAD32H96rKe3opbmMd6Z05jNZSlCxK/lPrWmjUbuPJorlG2P7hEOpS9MmtcbGCWniTtqUwXZzV/cYpaaP0QfxWcH8Zoe4xv6aH0YbVZ2GOY0PcYY6WCNbe3u9Sm8OPzdyT0UepoJSm8INlldMcyGsktvpduba3bnc/wCZJ/Mf9q0cQWEc5Kd0vcs68ISzTB2JpbZriga5fMTDGxpM+jdQuRvasZeEbR26oWQfIMQKfW/4SOZesa2aXnBVr+fkV27ilZNkYDDTtUZ7RSTg+mabF8GWytKRpPeFjgEUcgURNqBMk5/l5R+tZL3zgEmlHBWdd0S31KBo5UB9D3FZ8FIyafBQr7TLzRDmFTLGvQ9wKXKvPRsr1GViRWpNUaS4fxwyk+ooezhcGmFseiCbVQgKKcqOlWjQ32ByWcmbfV45UdJNie5qTokuUCNi+wK6vpZ3+7UnHQinV1RiuRcrUuiREurtAkhIUdqmIxeYipWtrCG1jaCIAAVRvIh89nT/ALGrNJ+JmldOfwIGYegJIH+9Vc1HDksoRPg7VcX1tbYFzbSoOzAgqa61OpqsXx4NFVM7P+nJED6jo0ykGNx7gitHwY6On1UemCv/AAZ+klyvsGH+1TbH7NEf1S8I0J0dfz3J/wDkP9qO2JZLVP6NPF0ZckrPIfQvj+gqYiW26p/S/safxLSYf8uyQkd3Yt/epmKLfptRLuZq3FKwjEEcUX/YoFD3Eugr0xy5m2yKK61PWWPgpIyZ3cnCj5npQ3Sl0MlXp9Mvk+fryGxi10VfFeUXF3jZvyp8vf3qySjyzK/c1T2pYj/l/wBSratqb3sxROaSRzhQNySe1ZrbM8I7mmojTDMuEifXZ4+GuG/gS6mdgZJiD+c9vp0q+Parx5MNDepvdz66X9BFw6xsOE9R1CTyl0IX3JqtXxg2M1j33QghVpDGLRLx/VAn6nFCHEWG7myKLXwXHnU1b+WCqWPg4fqr/hY/cvINJPOCyzbwtTVWJV1O6nY1t6keuuW6ltdF5t2DRgjetSZ5eawyia7p5tOM1uBut0qvj3Gx/oP1rHOGL932ep0N/uenuH+nP/kq0F2ket3t3IAXDtyAjODnrVIv5tnUnU5VRgusIxd60lw5LYLeooymmNq0WxBPC+jjWdWjY7W8BEsz/wAqg5/UmhXXvkJ9S1K09DS/J8IZcY6wLy9Yx7Ig5VHsKZqJ+EZvSdJ7VXy7ZS7bUzb67asD/mP4Z+vSsUXiaaOxOO6qSZfeJ4ufSYJyM5Uoa6FqzHJwNBLF0oFV4afnV4+bZTn98VmrR0bnhlqgKxYGdj1rVE59qckJL/UprW4ktyxKr+HJ7dqTKe1tFq4RlHcKHvmkuUyc4Oa5WtuytovUNKOBx4niW5fmwy7qR2NYIrHJyH3gmuo1uoA+AVcAitq5WTN08FM13RpURzakKevKelKnUmOhY0U+9uruBCk8Tc67ZHSkOlpjlPgC/jGYcMSGHY1XY0y6lwRfxgeERnf0o7HkikRrq78rDfJq7rYFIgV7iXOcgGrqv7JuJYbQLudzV0gZDFQCiE3GBUCda+xe2jjjvZxJzM4UY/lxmlTfInUxxFYZ1FNMS6WRnG2MDat2h06ac2Zo3utrAoudMuLVsopdfbrWiVbidWrUwmuQcygeVwVb3GKrn7HKPlEYwTioX6Gdhoz3S+NIRDbj85HX5DvTYVOXPgw36xVvbHmX1/5J73VobOI21moSMdT3Y+pNNc1FYiIr08pv3LeWIJr0uxJalZNm0jWXm2BoNloxN5WzHyqCzNsAOpNLkaa1jllmvrX+F8NWto2zhct8zuf3rVJbK0jiU2e/q52Lo57q8mEY1kydlIg068IiwTTYszWR5CxOTuatkXgjmfmY/KstvMjJP8hdOMg0vAEJ722WUEEA0CyKnq3DkFxzHkAPrigMUsFYuuHBEThQR8qmWMUkwF9LVDug/SpvYcI3S0C/lxVdxMBEUIFQqFxDFQqdJ+xadU1+4h6tJDt9CKTf+KEzSxk7JqOnvqarGuRGpz8zXU0ujxHc/I3S3Kj5PsWScKsThQ4+Va/Yfg6EfVF5A5eFb0MfD8Qj5UPZn4NMPVKsfIHfhXVegB+pxQ9qwbH1TTkLcM6iP8y4t4h/qlH9s1FVYMXqVH8sW/7GY9BtIsm91UHH5YBn9zVlV/qZHrrJf9Kv/c3SfQdOGUt/Hcfnnbm/bpV0oRFyjq7vylhft/7kGv8AjYcnIrhUGwVdgKrK9ItT6ZFPL7E0d9qOvTeFYwSS5O7DZV+bHYUnfKfEUbX7OmjmbG8PwXCsDTyzJcagRgyD8MXsv+9NhBV8vswWSs1bw1iH19/1KRd3N3xdqot4eZoubzH1pTbskbcxohlh3Fl9FDa2+h2ZBjhwZCPzNV7JL8EZNPFyk7Zdv/sQQp4dnBZDYuwkk9h2oZwsBbzJz+uEWbhqQQXMcucc7Y+nQVhvtfuRief9Tln4fRd8004RLzQXLAXCASLsJABzD6966eFLs7+JwXwfH0NrefwkA5wV7NVlwYLIbnnAr4nhWW2gvYwC9rIGJ6+Q9f7VWxZxL6N3pk3Gcqn1Jf5OZ65Z3S6rJZWaB57iQ8npg75PtWKae5peT1emtj7Ksl0kPdI+ybxIxJf6jMz4yxU4ApsdL9s5eo9f2vFcRhfXun8PWB0rSs8mcySE5aQ+pNNlKNUdsSmm09uqs/Uaj+y+ikatqkaBmeQZ+dYZTyd6McLCFvDtrPrWv20kSFoopA7N22oVxcpIXqLo11tM6bxnOlppNvCxAOCxrfc8RwcH0uLnbOZSeFHEpkfOFbOD9c1nqOjqHgtEkgQbHIpyMqeSr8UXxhvISEJEkfUexrn6y3ZJBrnGKaYBaMZZeY965Nk98sswaizcyxRD7kp7UEvBhb5J7BufT4wduXK/oSK11cwQmz8mC3casDVgIrupaXHMDlRmhgumVi80KPmPkFVwXTFkmiopOFoYLJkZ04L2qYLZPC2wamCZNhGV7UcByZ5TUJkxihgKZ1b7FjaK00SzFrm4ODH6Bc/2NVUHZNQRTUR/h70dutrflUKOgrv11qEVFHInMmNirruopm0WrmgS40i2dT4ojA9WxVJVp9mivVzX4iW4ttE0+XxcePIvRc+TPy70hwri8nSrs1dsdvS/yKtT4je4JAbCjYAdBVJXZNVGjjWv3EU16XJyaXk07QZ7pUHMSKmQKOXgn0pbrVJxFaRF8nduw+tBZk8RLzcKo7ps6Hw/wtFYYuLlhNMNwT0T5VsqoUeX2ee1vqUrVshwhLxnq6STGNWHImwpGpsy8HR9K0zjDc+2cz1bURM/hoc79qzxOrL4o0tJSgFNRmfIfHcFjknYVMlHFJGqSyyRc8gCsxJwOwzt+1Zs55OdNpyeCCRutQqgOcEigWyLblAc5qpZCi6tlOcVApim4sQcnFDBdMBkssHpQwHcaC3KjpUwTJ5UIqIqXj7Jb+Kw4nUSdZ4zEpPbv/YVS3iJSUFKL+zu1yZGiJjJUgZDKcYpHvWR4g8Cqmk+Sq3OpcQQyv4d5K0efLmuxTPUKC3Pk9DRp9LKK3xWQG41viLH+dI3yzTfduNcNJpP9KFs2ocRy52kYfWhvuZojVpo9JA5j4knz903z3or3WH3aI/RsvDvElwMtyxqe7NR9uxinrtPHjJk8JOo5tQ1qGId1jOTR9n/AFSKfr2/+nBs8sfCmkHnZZL+Re8zeXPyoqNUf3Kueqs4b2r9gXUvtCZozb2arFGNhHEuB+1R3eECvRwi90uX9sSxWeq8RSFpCYoPzMxwMVRRlPsdO2Fa/cZvfWfD9o1npmGmYYebuflV3NRWImfZK2W6z/YV2dtzObq5yRnIB6saouOWNlL+WIyt4mZnmlwHf9loOWFlme2aisLpDbQ5jJeQjGAHGB7ZrlOz3LEzzuqluyy+iTbqK6ByMEUzk7geboRW9M9VBeCS01QxsUbDKdiKZGRS3TZWUGSTYQsmZIWGGXuB7+1EzRhl4fDFJ0+GK8g1BRzeCvhh+/J7+4qjgk9xuV0pQlU/P/f/AOwfjfjiDRbNIFk5TKMnHU+wqt+oVaGek+lO2bsn4OS6hxZeXrMtrGUB/O+5rmOcpvLPWKqFa5PaFwrea9dK95LJIuehOBTa62zLqNXGC4OzcMcN2uj2wCIqKoyzYroVVqKPJ63VyseEUD7ROIhqt89tbv8Adg8hI7KP96zXT3Swjs6Kj9PSk+2S8LIiQ/hCooAHvV61wZ9RJtjm8ZVQkHtV2LrbbK9qca3kaOW80RIGe+fSuVrluWfoXquOj2n2oQAkD9a5aRzpyGTP4SeXO1Bv6KJZCNPkDWEbfzZP7mt9P4Iz2fkyOYZz3q+CqYunXrQLIV3NuGztQwWTFc9pjIxUDkBe1G9DBbJA8GO1TAckLRe1AOSMxH0qYJk0MdHAclu+zTX4uHNZe5dFZ2TkHN0x3+R6UY2Op70WVSuTrbOy3HG12tpHcW8UZjkUMp9qtL1WS/lEV6Gpyankquofanq0bECE4Ho+KzP1ieejqV+l6f6E5+068upfDkjZSennzmjD1GVjwba9DTHpGx4oE28hdD/qFaFY32O/TpdGP4rHJuJVP1q6kLlBoifURuQ1XTEtE2kWE+t3QB5lhHU+tXjByYuy1Vrjs61w/pkGn2yRxIFGPSt1cVFcHndXdKbeTbifiGHR7F8uAxFC61QiD0/Ru+zL6ONatrFxqcrNkrGT07muYsyeWetxGqO1AKRBjsN6ekYpSbCo4WXtRKJnriV0VYYl5pJCAd8cq9yaRZL+VFLZKMcsKaTORQOYiCRqAQWQ7GgWQvmBOaBYDkiJOTUwTILLb5ztQwHIFLZ9TioTIM9sRnaoHJCbfrtUBkP4euYtN1e1up4jJHG+cA4wex/Wqzi3FpBg/kfRllcx3WnRyBiRIgYH2IrHF7Ofoz8xmLdV1KWxizDbxSbZ8+1bX6rOK/FG6n5v5MqM3HeoidoV060U4yNiatR6pOyW1xSOpTpYS7kwS44x4gIxHHBGP9MYrcr7GbY6HT+cv+4un4k4nmBHxLgegGKPuWPyWWm08eogbXXENycNNMf1qfN+S38KPSRoNH1q4yZGcDuTtRVcn2UeorXkwmhWy5N7fpkflByam2K7ZV3yf4xJkn0iwH+HtjO4/NJ0/SpuiukUxZL8nj+hFPqt7f4jXKr2VRgD6UHKTLRhGHKNIbRI25pjzv8Ayj+9DhB3N9DFI+UeLLyjA2B2VBQlJJZYmU0lhdA1zcmVV8EnkJyT3Y1zNTqG8bejn22tvBYOF08W8V23EY5z/aq6f5zyzkap4RcRLtXQOeE6zCbZ2cA8p610prHJ6TRz3rAlMnmyh69KomdFxfkMtdUa1IPN7UxSMtlCn2HQ6xZtksvhM2x5eh+Y6VdSRmlprPDyIuJ+CtM4qWJorrwJo88rJ0+qn+xpNtEbDdpPUb9NlSWV/wC+UVuD7LtQs5snw7qMdChwcfI0j9NJGx+r12d8Fv0bT00yIBrd0x6qf61ohHBgvs9x/FirjvjWSysU07T1JnuMjKj8Iqt1uFhDdBoEp+7Z4KHpvDGtXTCY6fckMclpF5c/rWeFcnzg3XamrONxeNM0G+t4gsr21uMfmcH+ma0Ri0jnSsg3wmxjHbabaAvfXPxTjcRR7D6+tRyjFZbI/dkvgtq+2VO+ukvr53RQkYYhFHQV5/U3e5N/Rkt+gi2PLgPk9xWbP2ZWvozeSqsZxkNjA9zQyWig5D4UKR5/CoFdOKwsGFvLbIJWz60QA4jknfw4keRz0VQST9Kii3wi2Q5OCtauVDfCeGD/AO46r+xOaetLY/AFJeCO4+zzWgpKxQSf9so/vRejsLJia64L1uDPPpdwR6ovOP2zS3p7F4DuQlutLuLZiJ7eWIjs6FT+9LcGu0FSNpuGNSj0yPUzZyGzkziUDI2ON/SrOqW3djgiks4FZgpZYjeCOKJpp5FiiXYs3c+g9TUwbdHordVJqvx2wO21Swe5QJMwIIwWXlzRcHjk6Fvo1ta31yUmv9zq2m63/EHhtre2kW2EeCSc8prm214eGYcJxc88muo6XHJGXA2ydxSHX5GV3NPBWb7RmWQPF+U5FVUXnKNcbuOS8Jw5ELBXePDEDtXpa6ltyzDPVS3YTEd7o0aZwoGKt7aCtRL7B7DSzLOqtkjPSgoBlc8HRtCso7VFVVAxT4rBz7JN8ssNzqkGm2ck8sioEXOSdhTHNRWWY1S7JbUcj4g4ik168aRnPhKfIv8AeuZO33Hk9Rp6Y0Q2xFLHI2q8QT5CLNSxq6Znkie8vobSM+YM4HQdvnWe7UxhwuWVURVpl3JcNJcSEYkxyjvj1pdKf5S7Zj1Mk3heBraxy3k8dvAheWRuVVHc0+MXJ4RlbwXix4O0ywQHUWNzPjdQxCL7DHWuhDSwivnywwhOfKDP4VoDDlOn2x/+NM9uv6G/p5kEvCPD12D/AIIIfVHI/vQenrfgq65IVX32YWcoLWV7LEf5ZAGH9qTLRxf4srn7Kxqf2f61Y5KQC6Qd4Tk/p1rPLSzj+4cg9p9n3EN+Mx6ZKinvLhP60I6ayXgo7Irthg+yDW8ZmlsYP++U/wBhTFop+SKxPoib7JrkAhtX04P6ZYj9cUf0T+xqrsfUWB3n2V6lCrNbXljdEfkRyrH5ZGKD0kl0yOuaXMR/wfrt7ZRxadqMM0C7ojupA5hsVzXJvqlB8rgs4KUN67XZaLuf4yNsEEcuNqzOTkCC2lZk0jwrtJ5V8i5ydj2q2mWyxSl0b69R9AWpcQQafGwt9OErY2aRtv0FdKfqUIr4rJp3Sn/MIIeM9RmlaNra0hPblj7fU1KPUJWPDWB9dMZfk2Ym1TWJ91mdR/oUCtinJjfapj4BpF1KbPjTTEH+dzg1OfLBvrX4ojWzA/HMu3oc1FgPuN9Imht4S3Rn+ewqbkVcn5YUvhAHEiqvfk6frVXYvspnyRm/tbZsRrztjbG/71nnqoxFztz2wWW4lvm5XPKnZB0rBdc7ODLOeQmGLCBR2NIf0ZZyyXPQLYWVrzN+OXBI9B2rp6avZHL7ZyL7N0uPA2Eu1acCC4XsEV9GyghmHUdx9K6sZRsWYs6FFjrefBStX0u506QyRoWjzvgdKyzhKHKPTaTU13LD7FZvVbrkUFYmbPY+geS43OGo7gqg1jv3TdXYUVML06fYXDr9xEP887e9WVrFvRRfgMj4wuox/nfqaPvCJel1vwDXfGUp38pYdGCjIoO5F4elwQNay6xrcgaFJFibrPJlUH17/SgpSl0Ga09Cw+X9Ls2u7NrZD4uqeI/cRpsPqT/al2PC5ZWN+X8YYFNxep8PJ4LEDGC56mufqLWoNopc5JZkwSzO2Qc1yNxyprkYLJyjJG/eg5C1EhGLq4iIk8sZ5mx+wp2nr3yz9C7ZbYtfYeZh610kYgvR9In1u68KLCRqOaSU9EFNqqdjwgZLWs9lokZt9OjCnGGmP43+Z/tXSjGFSxE6Gn0Dl8pg/wDFHc5Lkn3NDeb1pkvA1sVmmhE0riGH+d+/yHemRTZz7nGMtkVlmbjiOwshypzSsO7Gi5xiSv0+63l8Ci+4zaUFFgjZOmGUEfvSZaiJ0KvRY/zMEXjWWGBhOIUtUUllwAoX5Up6lYHP0Wv+Xs5ZxFxrw1qV48lnYT2bZxzIB4b+/L2+lZLMS5SwXn/w9JL42LP/AL5KrxVfx3AtYreVXiCcx5T+Ynv9AKXBHX0Wmem0yhJfJvkr8aHO1MSNEIvJ0vhS/votHWSORlZCY391xsfmM1k1FafP0ec18IVaprxLn+5ZdI1OeK0YahKoQMSpJ3x71iccLBlsgpPMA0GK4TxImD53BzsRSksdC8tcMsMfEsM8CwXMYhYbcw3Umu1RroyWJ8MyOhp5XIJcJHKSVIYHuK2pp9BTNdMsf8YMgEelBLktKfxLSjx2sRkkYIijcnYVdtLlmfLfCOZ8c8VScQP8DaOVs0PmP/uH/auJrNX7nwh0dPS0Kv5S7KrbfE2rYVi6ehNYoWzg/tG9TyN4J1ZOZzj271ujqo7cspL9jaW+KoeU+GmPrWezVSnxHhC8Iql5rovbk2sH+RnzN/N/xVqKecsXfLZHPka2d3yqMH9K6ByWX37NGE+szTkcwt7d3z/KdgP6mtWjXzyLlHOEOtT1YvM3ITWmyfJ6TTaXEeQKG/lZ8UqMzTKiKRZtGs7q85SiMV7selaYJs4msurr7ZabbRuRQZZMkdh0pqicKzV5fxRFqGq6Xo0Ze4lijx77mpKUYLMmX0+l1GpeIJspWsfaknmjsIwo6BzWGz1GC4jyem0f/DL/ACuZUbvi66unLTTu2f8AVWV66Uj0FXpVdaxFAw13m6SNn51aN7ZJ0KPgIg1mQMPOa0RsZjsrixumtPd2/wAPcYliP5WpranHbLo509NBPKXJpbXkmkh1mkMlkx+7kP4k/wBLf71xNVpHT8o/ic66l54DJbmK6jIVl5WHX2rE34ERTQi1CyhkRsYb1NLwjTCxor02lCGTx1GcNt71aD2vch8bmiO8vbyQNHD9ynt1/Wtc9ZOXEeCzsT7Enw0wm5uZmb1JzWeNs085LRt28oPE7JDyqnK/djv+la5at7cIM79xCZLn8Pivg/vWZ32dZFbyL4cMPMSR3FLcs9gc2ERJg77AUMlHIJgA71BbY002JZZg7f5af/2NadPTue59GLUW4W1dlmiuMjeumjmsJWYYolS1vJ8ZarNFzCUdcdRiudXdZXzHv6Nddnty/YDm1m6szy3KpOnTz9a7FGs3rlHQqjXasx4YvuP4DqBLS28lu5/NEdv0pz9qZ0arNTX+Msr9xfNw1p8+Tb6vyegki/uDQ9qPiRrj6hfH8q/9mDtwbn8OtWvv5Goez/8A6Lr1Sf8A+t/7oynB0IB8bW4h/wBkRP8AUioqfuRH6nY/xr/ybw8O6JakNd6jPdY6oiiMfruaKrgu2VlrNVPiEVH/ACYE/D2llpLexSR+zTtz4+QO1DdXHpFXHUWcWT/24Eus8ehsosniEbBE6ClSubGVaWMOkJbSfUdcm87GKHuPalbW+WXsthWuOWE3BjC+BHuo6/KuZq7V+CMV0njD7N4U5cAdAK5+TGyPUNQWzt5GzlsYA9aGc9ES+wXSb0GPc5Zjk/OurRDZHBguluk2dI4X4BuNSRLvUi1tbtusePO4/sK6dOkcvlLoxWXJcIf621nolv8AAafCkK/m5erH3PetrUa44idD0zTux+5Mq7OXOSaySmejSS6HFhp8FhbC/wBSGx3ihP5vc+1Prhxukcy++d0/Zo/u/wDwKdY4klu3I5+RBsAOwpdup8I6Ok9OjWuuRBLqC5PmyaxSuydaGnZELvxO9V3ZL+1gW8SCVtEuhGCeZSDj0otDtOk54ZydrckkYOaZjKGzqa7MrZyn8h/ShgqoBllpzvICVOOtRtJFmklwdM0Dh28TSZ/Et2jSYgpznlLeUbjNT9POa6PJ+rQlZdF1c4X/AMiKdpkuJrSaN0ePYhu47GuZZW4PbIXS2liXDJdN1Se0tJI4yxYMeVfWkbG2GcYt5Y1stcFxan4jEcibN5sg1VoQ4c8ElrqgQl7a6Vh3AbIq9ds6+mCUU+Gg2Li25t28qRFh0O9al6jNeBT08WCanr+oaqvJPcExj8i7A/70i7U2WcN8DK6oQ6Qr5AM5rLgduMEqinJAoBUhfdcQWlsjFSZCo/KNv1q8amy6yytX+u3OowyHmZFzgIvQD3NPhWosvhRfIPZycsw5fwgY+fvWutYRzrpb2zoPCfB2s8Ror20Hh2+cGeXZfp6/StlVM59GOTSOu8OcGJwnpWoN47TzyxDnYrgADsBXQppVaYuualbBfuVS8nAYsx3rFbPk9pTB4wiw8HcO/wATYXU4IgB2H83/ABT9NXu+TOP6v6h7CdcPyL7e6hp3D9l4lxJHBGo2HTNbZSjBZfCPKU6e/V2bYLLZzfX/ALULy+ZrfR4vCjO3iNuT8hXPnrZSeKl/c9lof+G6qUp6p5f0V2Lh/Wdbcz3LyNzfmkNKWlnZzN5OpL1DT6ZbK0l/QbWn2epgePMCfatEdFFHPs9ck/xCn+zuyZcHPzq36SH0JXrdgk1T7M5o1aSwuDzD8j9D9aVLSY/E1VesqXE0Io9NvbGTwbqNkcdj3qkYuLwx7tjPmI7sYHI3FaYoyWNDB4A8LxSJzRuOVlPQiruKawzJLkpM9/dcLTTWMpaa1H3kBPXlPbPsf615/U6ZwlhdCpVqTz5Gema3b6tAJUJjxsyt1B9DWLYInFxeAlyjRFdifXNWS4F55FssUTDDEVEkW3MDaBefyioHcRyRKDg4xUZFIhl+7I9O1RsOTZFXlyR+tRMGSGeREU8zAUtlkCWuqCSRo1UhFOOY962aejd8pGXUWbVhdlgsrrGMHAroJfRzWOILvbrV0LDo5HdchSR7CquyK8hUJPpFuQSRAlNx3X1pFle7lFoy+wC7njuY5Mhhg4KHtWaq11yyaqpOuSaKrqcV1aOXtpmCHt1FdiO2ayjuU2xmuRLJxBqUJwUik+hFDa0aouJC3GN6uR8Kn/2ND5DVt+yGXjG+KErCgPYZNTMi8XH7AZOI9TuR5pAnsoqYbC7ILoHLXV2fPLI+exNFQKu76Gun6IkaiW5IROuTUk41rMjPZqGM3vUMfgWickf83QtXN1GuUltgZvcxy+yGJFQHP1NctvyxTlk0utQjgUhCGcDPyqqTlwiucdlU1LUHdGZmyzmmUw5wCcuDsH2OcB/4GHiDVo8lxm2hcbY/nP8Ab9a9No9PxvmcfU287InWPFHNjPauijIocHNtavTcXssjNsGNYr7OT2mip2VpIJ0Gwj8BtWvx/hYj92h/6jf7UNPXu+cuhGuvlu/TU/k+/wBhPqmq3+v6g0NnDJcSnoiDZR7+lKuvlZLZWsnR0ulp0lW614RoOBrpvPqmrW1pnqkf3jD+gqsdDOXM5YLf87rXGnqcv3fBg8HcPR/5uuXjn/SiirrQ1ruQP+a62X41Jf3ZIvD/AAzD+HUr4+55f9qutLUvJX9br5dwX+ScWHDSIVe4upQRjBKj+1MVNS8i/e1zfEUv9yuXfB/A6zNKvx8ZJzhZRgfTFVdVXWTatT6jNYlt/wBiuarwekUwl06bxbN+jzEKVPp70l6eT/Do3UXSa22LEv2JeHNJFldyXE8cci28ZkUfiDN2/erUUNTzNdDNRzFRXGXgafxa5uZDJPIzuf2rZubJ+mrgtsERXga7XmjXM4BAPcjqR+1YtZV7kP3RyvU9Mvb9xeCuRj79p4WDKcqwBx161w+mcb3E4rIuSUNctAxZYypAAO5IoYwxvKWUQQXapII0yhyTtQUcvDDjnLB01K6NwT48mScDfaptXReUUS32sX9vP4YkMeB0wKGzBSMItZNrzV7yCGMSS48RQeYDcUXWuyqim+BffahPLCMTSurDByaMYpdl4pLsHWc3MPguWUAb4O1XxjoEnteQKKQSqyRsSpOCfWnRg08sz3W54R1v7IfsxHEBGs6pGfgImxFERtOw65/0j966Wk0275y6Obddt+KO/RRW9jEqRoqKgwqqMAfSun0c/wCU2aXKtc2NyN8vGf6UfDGVtQsj+zOS6NYSa/rHhNkW8bef39q4lMXdZz0e/wBZetJp9y/JnVdQ1Kz4T0M3MgCqi4RB+Y9hXYlKNUMvpHg6NNb6hqdi89nJLy81Li6+e6u5OWIHIBOFQVysT1Et0+j39VdHp1SrqXP+WD3PEul6CrR6fGlzOg807/hU+1P3wrWIiHRdqHm14X0PNF4e1vifRjqJ1aa2mk8yQr5VYdt+1OhXOyO7JztRrdPpLfa9tNfZWXvW0zUHsb/WNRsrqM4ZZGz9fcVny4vEm0deEY21+5XCMky2aXqWuQxCe0voNWtx1B2bFPjKxLMXk5d+n0s3tsi4P/BYdJ4mstUkNvOptLj/ANuXbmPsabC6Mnh8M5ep9OtoW+Hyj9oN1DRIbxCJIwfQ46UyUMmWnVOL4YmTRVtnKEDA/Cxpajg2vUbllEFzbhAQKsFSyVLimzW6spPIGkjBZax6qvfBlmsrg5fYXErNPGrlCCMMOuN64kV2XmklkJs9cukkeJZ5JVjXIJOSarsyKcF2yS14qumuGjnjjblGcqcYqe3nojpTWUEtxRHlOa3kwxxkEbVXYLVTbwmazcQqo5kgeQd98YobCKvnGSGXiQNhYrdmdhtzdBRcMdh9vHbAX4iumUpIyxN/pG9HYguteAG3uJ5p2eSZmA9TkmmwhueBV9kYR4GlqwQDFbFhLCOVJuTyx5Y3BOAMk9MCr5xyKwXnhrhq41B1eYFU7iqVqV8tsOvLNFVK7kdEttLt7WFYo41Cj2rrwphBbUh+/wCgbwsCuZg5WQDULNZlLDyuOhFZNRW2srtD6p44ZV7r4hJCk8PiRsd2QZ+uOopOn1Uq3jtG6uezlMS3+mhiWjwwrs12xmsxZ0a7lJCeXTySfLTeB6mQjSyx2U/pUwg+4kTRaMoOXKr8zS5Wwh+TKO+KDIIoLb8Cc7epGBWOzXxXEFkTLUN9GJmMpzK2cfoK5dt0rHmTFbweS9ggG7DI7Cs7f0HP2A3OoyNE7A8igfWoqm1mRPcXgUzXfJG2+7bVdJRWEDOXlmeEdKPFPFun6Y2TFJMA+P5Ru37A1u0NO6aTFX2bU8H1Q00VrCkEQCRxgIqjoANgK9RwlhHMhU5cszp0gmdyTkdKEQ6iO1JI5zLaPe8QnTNx96Q/sM71yppzt2Hso2qrSe/+w64qZ7i5ttDsiIo0UAnsijqa2X54qgcz0tKEJau3lv8AyJ7/AF+20K3/AIdpK8v80n5pD6k0FKNS2wN1eklqJe/qn/ReEV2WXUb4kteW8ZPZ2JpLVkvJ04zqrWIwYJe6XxFbR+Mggnj/AJkORS5VWrkbVq9PN7XlMRS8SXVg3Le2zxj+bGRSt0l2bFXGf4MMteIbe7XKSA/WrKbFTrlEnkkMw8p60cspGWHyba3MJJooo2+6SNVUDoPWt8+kl0atJFwg5PtsgtUkVsJkZG+PSguC8pp9hsVsGY4BPvRTFSnhE8EDROJV28Ngaj6M2oalBxflCDiHRZbW4kuLTbnPPgdDXJvp5PFb3VJwl0VLUtUiF0jOnhsCOYe/esbreTbXYtvDJJxbQyjlYFnwRzHBFDAVa2DS2gjYnxV5ubGB61VrkZ7vOCC5QtIzzsxkc4UVGgqaXEQS/k8JlSZyWGwGegq0Yt9EU14A59TELrHHJzbb+3tTYUtrLKyks8g8MVzcyM7sUQ9h6U7EUsIzTubzgsvCvD8muaxZaVbjla4kCc2PwjufoMmjXFzkomeUtqcmfWllDbaPp1vYWyhYreNY0AHYCu6korCOcoOTyzAkNw+M7d6HY5x2IYoRysvTIxV0Y39lC4QgS11O4i22mcfvWDSxUZSX7nrPVpuymMv2RB9quoLJe2lrJJy28MfiuPc9P6VfVfJpPor/AMOw9uqdi7bwcn17jSNojb28hW3X8kXV/mazSnlYXR6Kuja98uWUe81251CdIFHgxFgAg+dZ93OCkr5J4R9UaFOtno0EK/lRQB9K7NbxFHk9XW53Nlf4t0ew4miEd2ojnT/KuFHmT2PqPal2wjNcnQ0Vlmmea+vKEHD+latoFyI3jI3wlzCco3zHb5Gska51y4OndfTqIPP+zLjd6bDrVq7vCIruE8sqjsexHsa1SgrFz2cerUS000k8xfQttuJ9S4aYRXavdWY2827J8jSVdOp4lyjXb6dRrFur+Miz2mqadr9sJbOZW5h+E9RWuMozWYnFs092llixCfVOa2LLITudjVc4NEMSWUVq8fxCfSlyHJcHLr+1+H1K9tYSqEevUg71w5w2zaFOWPyFcVtJG8gRuVwMH0NLSBK1eSCNGtfEckOxqIapKSIVmkZy7sTgUEHhLg2huSj80uSoIOAaGCjXHBqL2Uu0oOBnOMUWuSjwlyRzSIJ/O5aRvMQO1WjBtGeV+FgLtsu5dup7elaIpR4RgnJy7GkB2q6Fs6LwNwtI8a3t0nmfBjX0B71lsk7Je3AZXHHPk63pVklnbfhxtXoaKVVBRReyX8qJBIJSSpyAcUzJba49gLDFco5OQeY5yKoyyK/qaNGxI6dQfSudfU4vcujXXPKwxBdIr/eoSCdiVON6Sm08ocpNAFwzKA0btgj82Dv6Vo9+xdSLxuljkEeaXkLFwd8Y6UuU7GuZFlbkh+IkIPKEyBnelqLZFYgc38pblJC59BQUX9k3gt5dMJynOxXbrR2LId7wDX90DFGgA2Oas+sBj9i26vcRFciqfsMiKbm7eRljj3zuavXXnlhlLB3P7Ffs8/hsKcQ36t8XKh+HjO3hqR1Puf6V0tDJe8oo591ueEXe8uWEjZzXZkzo01rHA00ZiturnbmOatW+DBq1mTSF95psdlxIurKPJcKFb2Yf70p1KNvufZrp1ErdG9M+4/8AYr3FNybPUb2VR5pEHK3tQteJNnV9Oip0QT8FCBe4ld2cj1Pes8Vk6k5tCfUJrq2uFZZCYScNtuPeqyTTNNU01jyWDS9du+H7pLe8PiW0wBVj0IPrVo2ODw+hdmnhqY5XDRYtT4dstc09rq0CspHnXH4TTpVqayjn16mdNnt2d+Dk2tcO3OiagJYQwj5tx6VkccdnehqlOOGXDh6wk1CNR0OO9WhHJz7blHkI1jQb2z5p4IfGjX8SjqPcVoi2lhm7Sa2qxKE3hgOm6hZzMFkbwn6cr7b1dYfKNN1M0sx5H3SPMfKR6jvVs4Od55NSwWKT/UpFQko5BSvxNoud8bVhvXCZ5b1COJZKxrvDNvfqeaMc3qOtZjBGTXRTNS4VuojmOd8L0zVUkh8b30LrqLVudHLKTH7daqox8jfdyQ3VzqVzIGfC4qKEEXVmOkDzWtxdTeLPISx9KtGSisJFXN54CLfTI1PNgFvU1HJsq8+Q+KHl7VQB0b7DoI240DtjmitpHT57D+hNbND/ANQRf+ODt88xLEV1Gy8ILAdpsWYS5+dSJl1EvlgMjIG/arozNFItV+C4rvIuimQsPrvWSC22yR6ex+7oYS/YrP2p6hZW/FFtFqSeJbzxKOUtjPWqalpT5NXodbemex4eWL3+zvh3XLYS6Rd/CSkf5cwyp+ooqqMlmLGz1mppli2OV9oqOufZPqNjIsvhgcrAiSM8yNv69qTOhrljYa2u/jz/AJO1aVk2KKeoUCtkOjjahYmK9VDFiEBNVkbdOljLNtEtL95BLKXS3U7DvIewFSCk3+xXV21RjtXMv+w5Mnh8TeCOk0PI4HQkD/irt4mc9Rzo930xZrlms0cikVSyOVg26O3bhnO3vLrhjUfHgLeAzfeIO3uKwJuqWUeg2w1MNsuzoVrqcWuWSiQg865V66EZKaPNX6Z0SbiV+5tJIZJImG6nr61Voikmso5vxlp91aa1/ELeMSRyRgOvoRtn+lc7UV5lkyXTUZYZUZdWmhByjq5OWyKzqAtNN9k1vqlsLIyPy+IXJINUcHnAxyfRBDqcDEyMoOTnFB1tcFnL44TI9Q1eOSPw4Isk9TjpV4VfYnft8gbPNOFVcog6+5q0YqPYqdzfQbbW++TuT3NQQ+eWNLdMUUUZZ+DtGGta1DavnwlzJJ/2jt9elCyW2OSp3nSbBY+VVXAx0q/ple6xy+hkZeRvesYYQvNyjFd1hoW6WQa1kQxeTpk1VDrIvdyDPmuXg4yB5BkGq4DkWXsQlUq1VcU1hlk8FSukOnGdHbyPupPr6VhnQ4J4NMbNz5E5ukkDpnf8Q/vS1HgvnwDNMMOgb8QqzXBIvkEE+GyDUS4DnkAmuAsp36GgkXbBbq7UPzFqiXJbPAtvtRULsc4qrWWXT4FUt29z5EJG+5pkKucsO7guv2V8I/8AmXiSCOVOe0tiJrgt0IHRfqf70yWIrgRbZtR9RCFba3+7AUIBsB2rpen0pZsZhg9zwxPq2mvIjXUADK27KvUV0ZxzyjqaTUpP25m9lMoiQf6RQgyt0HuZLcSxzRtFL+A/qDTMp8C64uL3R7K/xFpLX9keXDSoMKw/OP8Ael2QyjqaLUKueH0zlcbSm7a0jjd5wxUooyc/KsEZNPB6Zwio75PgeLwRczKr6jNDbRndlJy+PkKf7Ta+Ri/Ww6qTb/wCcTxQ3WYoV+6iQRpn0FKua6Rv0kXCOZdvkK+ynULqafU9Lmy6RQc6t7Z6VfSSeWjJ65CKjCxd5NtfiS5R1kUHGd6rYx1EOA77PbI3EYIX6+gq9Cyc/wBRmq4lpmRZJ5Jkwtpaqy83/uORWnBzoNqKi/ylj+yKNZT2tprVtC2l2tx41wqh2TzAlqxRmozxg9HfCcqZSU2sIe8a6bbeLK9knws6tnMWwb5itVzx0cz0vVWRgvce5fuUGPUL24lkjkfKxtylsdazxub8Has1NUI8R5Y800FlZewFUt/E8t6g/jk2uLcHI61lOQmKbuxVs5WgWTEt1pCNnCUC6kKrjRgpJ5RQwXUgGTTBuMVXBZSIhY8udqmA7j3wxG1QO4v32LaZPNxgtzGWWO1hdpMdGyMAfv8AtV6rfampCNRPEcfZ2i8i5G513R9wa7b5WUNpnlYfaD9PnC2pQDJ7n0oxMt8MzybGbA61ZMqolS16RbbiGC5G4mUKSPUVns+Nif2eg0Cc9LKt+Dnv/iA0+e8TR7u2RmLcyHl7HtSdZHOGh3pO7Eq12nkrnB+rajparbagSv8AI/8AY1mhJxO/KO+PLyzpFjrkoQZbmU9Qdwa2Rtz2c23Rxlyh7Z63YmPDxFD/AKTTlKJzLdFdnKeSVtX01d4rYSP6uc0d0Ra0l7/KWF+wc141nB8Xd48dh91H/IPXFWzhZZlVSsl7dfXl/YLoEhu9QmuXwfDjJyexNUg90sj9dH26lWvLNdQKsXzUkGnKRQeJLVZecY61ktjk7mls4DOCA/wYhOfJ0+VTTfQvXYbyWC+txIFZhuu30rW1k4v4sqmv2ClRlcjpWLUR8mbVrKTKVqWgRPzFVBHyrJgxqRXbrh+LJ+7H6UC+8AfQ0QnAqck3GBpvh/lFDAMmRbcvQUANk0ScvaoVDIhUKs6x9kGnJ8Hc3pX7x5PDzj8oA/uay6hvKRU6zp8Y5z610/SmvkvJXPBHrZ+7O9daRr0S5EtnfiKNlP8AMaSpYOnbRueQ96wnlAeToargKALgHeqlkJNSs1uI2DqCO9TAUUnUuH5LWc3FmxVu6noao4JrDLKTXJWbu4vrSYs8TEZ35aV7GOhis+xdPr/hn8Eo/wDjVFTJDN6Yuu9baY/dhs+9CNTXZZyTQJLe3NwoGMH1qyrSDuyaLDNJs7nFHakFNhlvbBBtmoyyPpH7DuH00/hVL0p99euZSSN+UHCj9s/WlY3SMeon8sHS2UFSOoPWu3ol/DaQiL8lfub6TT5miJOx29xWjfteGdeuiN0dxCNStbhjzYikPdeho8Mb+nsguOURXEsiJnZk/mXeg8oZXGLf7gH8VaA+Rsr3BqKZq/SqfZHEdNmllmjC2dzN+OWNRlvnUSi3lBcLoJRfyivDArrh+6uAWg1CCcnsx5TVJVyfTNdWvrhxODRXtU0a9swwmtpBn8wGQfqKyWVyXaOrRqqrVmEiw/Zrw49laXN80LeJdnlGR+Qf/hrRpa8LJw/W9YpTVeeEb6jwXLJLKtxdw28Tk7/ibHyqT07k+WMp9XjsWyLb/wADbTNEt9M0s21m5t4iMeNL+J/+KfCtRjhHOu1UrbVKxZf0ukLtcuILWxisbeTnCDLsPzMepqk3iOEbtDXOyx2zXfX9BDoVgt1xBZEjPhyc5+m9ZK45sR1dfbs0s/6YDuJLgPNO5OwyabfLk52njtrSKEuTIdgN87d6VFDpyyPdIUnmPYCq2vjBytfL4pBUyVmOUgKaMEVCwFLDk7CgFMAntg2aBZMWzWWM7UCyYJJa4PSoFMga3HpQDk6n9htl4Z1W6Od/DjHv1P8AtSrGkZtS84R0TUP8FJ4jgtaynzD+U+td6p7YL6H6f+Itq/JEdtOlqWdT4kTDY+nzpnReyDmsPhkTXyO5AYD2FBSGKhpA19plvqFq3nKXCHmjPv6UZQUkOo1E6Z9fF9inUbBNf0n4V8ePAeZQexHUVSS3xwaoy9i3f4ZU7/g93Qr4eRWaVWTqVaqPaZFZaLqFgnKA0sQ6A9RS1XKPRpWphLsZWdpc3TcsUErt02U1eOWVturgsyaLHZadb6KvxN7Iklwu4jz5U9ya1Qht5ZxrtRPU/wAOpYj9+WKNS1Zr+dmMqvv+Vs0q2bZ0dNpVVHGB3wwfA0u8nY/jcIPoP+avp38WzmepLdfCC8C+/vh5sGo2WjAq2rzZRmJ3OwpM3wdGjhFh4R0/wrZWI6jer0xwjJq7s8DbUECI2D2p/gwZyiq6rKs9ucb71kveYidUsQ5K/ND1yKxHOyLbmyV84WoTIouLDlPSpgiYJJabHIoYJkg+Gx2FTBMmPAA60MEybLFg9KgDt32TxKnDUJIwWkcn38xFZLfz5FyL9E/hHZcgdxTdJd7M8+ALkh1L71CQcjG1eiypLKNumeCpXUEqzMOlIceT0FU4uJZHFZMHhcg0gyDQwWBJlABqoUL7iPIO1DBZCm5t1YMMdagRBf6Wj58oNQJXrzQojnyA/SoETXHD8eThBVWi6YE2hhc7VXaXUiM6Zy1XaXUj3wjKaq4llI+rOBbQ2HCulQMRzJax57b8uaUuzBY8yZYIpPEdh6V1PT7MuSA1hCXiSx8eIyqPvEGR7ittkcrJ0/T7tr2vplDup5IXYHINZtzR6OEU0Zstemtj+M49KbGwk9PCa5QcuvWV1/8AubdCT+ZdjV90X2J/SWQ/6cjHw2kz5Md5NCfQ4IobY+GMVmpj+UUySCxsoG5pdWYr6IuDRUcdsrO+2SxGoMXiTTNOQrCJJj6yNn9qt7kUZn6dfc8y4/oSwa3qmrLi1jFvAP8AqHyrUU3LoXPR6fTv+I8y+jEl7bacC7SfFXPd26D5CplLsiqndxjbETX+ty3bHmkPsKXKxs30aaFfSFNwxkOSf1pEjp1YxwOOE4OWW5vG/DDGQD7mmUR5bOd6rPMY1fbEPEFzlHGd3P7UibzIYlhYEMMOTVlwLkyxabb+DbcxG7Uibyzg6y3fPH0bSrSzKmByIPWhgtkFkTrjpUDkHMQIIAoBBZrcY2AoBTAZbXJxigWyDSW2O1TAUzpv2OSBbK/twcESq36j/is1q5M932dInhW5tSrgEEYxXf0731RYuubhPKKjLJJpNy0TeaJj0PcVMuLwz0MIx1ENy7IbuJhi8tD4ifmXutCSxyhlU1/0rOGaQ6mGx5t6tGZeemwEyQtO3xdpjxl/zIx+cevzq+PKERmoL27OvD+hTqfEd1ocqSmON7aboWXPK3oaz2XOt5xwb9P6fXqYuOcSQFrPHl5CqxW4jjbGWblG3sKu7vo0aX0Wp5lZyLbfjrUpEKSTbHuBih7ksGuXpGmTzFEGo6nJelYw5dF3J/mPrVJSb4H6fTxqzLHJiyt2dx6ntUSLWWYRYbbVhFpS2i45lYlvnV4NRjg4l9H8Z2PyK552cnJqjZFEruoXomvo4EOQrDNLby8Dn8YnR9AcJaqTttWqHRx7+Xg01e7xbzSY3C0ZPCJCPKRUHYsmCawWSzwY9dam9iBZFpJzwdoQQfWpgmQKe2LE7VCZAJ7XHQVCAj22KhCJoPagE1EPtQIdb+ym4LaC8JYHwZmAHoDg/wB6xahfLKKsv4njSPLeXFLU4pclVFt8ARvGSQsqc8bbMp/tXX9Nvbi14N9Ne5YzyjRo7W6PiLKgHTDHBFdRNPk0RnOC2tE7965x5wHkG3WgEElGc0Agk/TpUCgCaMEHagEXT24bO1TAUxXdWg3wKARXPZAg7VCyF8tl12oByCSWgHb9aGCyYLJa77AVVoumfSHBk4vOHNMlDZBtkB+YGD/SsjXzMs+Gx5C48fAzsMda2+nzSt2kx8SW4jEikEdq7bRK5YZSeINBMiM6Aq4zj3rLOvyj0mj1i/FlEuxJbSFJFKnPWkZx2duKUllA4mOdmo5HxiTJO46MamWNjFBFtDdXsgihSSVz2UUE5PhEsnXVHdN4RZLHQLbSl+I1RlkkAyIAdgfetEKsczONfr53/DT8L7ItS4jeUeHHhIxsFXYCrSs8IXTpYw5fLEct68m5JpTZqwDvdKm7NihkbCDZrYyyajcCGDLHNKy5PCNUpxqjll7uYU0Th4QDAkl3Y1qkvbrweehY9RqXY+kUC9f4icsfwjYVjR0JSNtPt1uLgITsBk1VzWcHP1d/tx47Hb4AwBgVQ4WfJA4GTQDkGdRmgWTIXXINQIO6AUAoHkG2aAQZ48joc0C2QRos5qEyW77L7sWur3Fsx5fHjyvzU/8AJpNq4KWrKydXguU5/CLDcbVs9P1KT9qT/oIcXjIn4g08TxsQMt2rpWQyjqaC/a8FYgvZdOn5XOBn6GkRm4PDO5OmN0coKngg1EGa3Kw3HUr0Vv8AmruKlzEz1znT8Z8xBINQltJOV8q69aEZ4eGaZ0RsWV0Tapb22vWMicq9MuvqfUUbIqcROnlPTT5KDqtq/wAS69cGlo9NXYnBNA0duQcYINEjkNobRlC53PtUwI35GsEfwVtLcy/lXb51ZcLJkslvkoRALIOsZeQ7seY0iLE3TUpcC7XNXFtEYofNKf2qrkSEccsV8OWMl1e+JJkgHJNWrjkRfakuDpdu/hQqB2FbEsI5nbEuuamrr8NG2Wz5iD09q5ut1e34Q7BKbi+BVG+Yxnc4pVbbimzkWyzJtmjetWKGrbj51AEDqM4qABZot+m1AIK8HXaoQHeDfpQCRNDUIXH7NNQFne3Fo5wswDL8xWXULphSyjqFtOJI9yCD0zWSP7lWuTWcgJ5QBy+la9PqPafHQ6qbi8gsumw3LeKpBz6Gu2lGS3JnRhqGlhh8gwKznmEQMuxoFgaQDGKAUCyJnNQILKg36VCAM0YGc1AoElgBzg7VMBAZrYb4AxQwFMXzWnXahgsmAS2h38poYCmByWux2oYLpnYPsqvxccNLbE5e1kZMex3H9ay2LEhNq5yXLnAPMuM98UK5bJKcSqfhhMcqyrnb5V6KqyNkdyJjBBdWomQ7VdodVZtZUtb4ZW5yeXc0mdWTu6XX44ZULjg27SQ+EHPoAKzuh+Dsw18Mdhun8FzRYl1S5WCEflH42/2q0aH3Ji5+q5+NKy/8DKTWbPSomg02FYl6FurN8zTd8YcRMq01lz36h5K/d6jNcsSzHekSsybFGMVhC+WdUyWYD51XcFLIru9ciiyEPMfahv8AoYopdgtnFfa1cBEVghNVw5Ms7YxWTqvCPDMWlQCRwC+MljWyqpR5OJrtY5/GIl4v1xbu8aGJsxx+Xas19m54NGjp9uvntlUlulzgbmufdqVBYXZeyaiMNCYs8sh6ABfrStK3JubOLrJZwhqXzWwwkTGoFETj60AohJ6jpQLEEgBBqBTICowTQDkiYexoBRE8XWoFG2m3Emm30N3H+KJs49R3qkllYD32dUsr+O7tluBJlXGVx2rmP4vL7BhrhB6Xy3EfhykB+x9a7+i1ytWyfYYx2vKEesaeGy3LWycEztaO9rgr3iTWMmGzy9j6VmTcDrYjYg5Li31SMRzEJKPwyf703ia5MzhOh7ocr6A5VutKmBfIU9HH4WFLzKt8miDr1EeCC/0Ka9gOp2eJAP8AMiHUVba/yiMp1sa5fp7ePpiuC3jkBYDBHUdxRTT5Nk20MreEqAcZq2DNOSB+JdVtNNhjhuJkQfjfJ/QUu6aisMz15w5/2RV5+JxeDlsyQh/N3NZ1LPQxVbFmQOltNcPzEEg9SabGJknZksmkJFYqASAadGUYmWacgy74jWEGOEczHv6Vlv1yhxHliZKMRC8ryNzE5Zj1rjLNk/6mSyWE2FK2FwDt2rqJYWDmsxz7f3ogME9TtmoA0PU+tQhAwBPrQIRyKD0oEImiBztUIQtAPagEl02ZtPv4LoDPhOGI9RVJx3RwFM69pWqx6jAsynmUjNYN+78vBJQ29BkpVxnbHbFVYYvABLG4c8knIPTpTYXWQWIsfGzgcOC2Sa7JxuiGRe1AKYM4xnpQCgdxv0qBB3Ub7VCA0q5ztRJgFkjGDtQCCyRenSoQDmgBz/WhgsmAy2xOdj9KGCyYHJbDfK1UsiwcBaidJ1cwyNyQ3I5D6Bu3+31pF0MxyiSWUdTW4KAqqgr1+dY1NxW1IXjPIvm1GSB/GjyPUdjRq1cqnviaYxTWGbpxfFFyrdW7qWGcrvXao9SjNqMlhsK0u78WBXv2j6BBkSNJzDsVrY9RFGmv025+RFffalp7Ara8sfuRvSpan6R0afS0ubHkrN7xra3LFpLpnJ9qRK2UjpwrUFiKwKrji20XPIrvS8stz5YrueLJZMiOMIPeikwZihZJqFzeNgsxz2qyiVd30NtF0J7p1aXoT0pkYCZ2nUOHtIt7ONcIuR1NaIxSMFt0mR8XcYQadbNZW0g8VtmI7Vn1OpjWsZLaXT5fuTOcTX0s5PKSM9z1rh26pviJtnb4RmPYepPb1rLhsxzl5ZYLEC2tlQ9ep+ddemGyKRyLZbpNhAlpgszz82w3NQho+V6gj6VCIjJoFiJgDQCRlNqATQx5bpQIatHnYVApkfgUCxYeGNW+FkS0mXMZzyn0PpWS+rncHtFouQsi9eXbYg9KzJYeUWhLBDDqqt/h7s47LIe/zrv6XVqyOJdmyEf5oA2p6cZEJXBBGx9a1ThlHQ016KxPBPYuWXcDqKzOLj0dWFikg6x19ZIvh7hRLEeqt2pkbU1hiLNKs763hjC2ja1/xOlXAkT80DHf5e9WjFx5gxE5qz+HqVh/YDqRs752liUWd4u5U7BvnUeJcrhj6J2ULbL5QA7fWoYExPA/jL0AGQaCsXkdOtS5jLg5rxS91q2rSy3CMu/kU9hXG1cpSnliJWJceEEcOWAhR5pvwLsM07TzxXukSzUZgkOf4gvSNDj3qstavCMLsRo9zNKfMxA9BWSzUTmJlNs8rDrSciWbxSZbm7DpW3S18bmYr5/yonWWthmNg+e9QqZ5+1Qg60jg/VNYi8eNBDAekkpwD8qZGpy5K55whg32dSqPNqluD7Kav7P7l9kvoBu+BNQiBMEkFyB2VsH96o6X4A012hDPYT2kpjuIGicdmFKcWuwEJiBX8O9AiNTDsaARloeuS6S6xtzPCx3XP4flWDVQw9yNFWJLDL5Y6tDdRiRSMHpvWaMk+SsoNcE0k8TMScn/AOVWckRJ4HbZ6DpXoDkkLr1JoBIHGe1AKIHG9QgO67moEHkXHpUIQMo33zn2qEBZVxk4qBQLIudsdagSB4ASdqAUQtAB0AoFkR/CsW5h19aGCyZe+H9ZN3beDO336AA5/MPWsF1O158Af7DGa4jx4agbdfSkZXSDHPbEGp3Bn8TkHmXAyO1SNjy2jVW9uCn6tpxmyXwHPpXQq1WeJnSp1WOCs3OnyITgZHtWxbWuDbG9PyL5LaQE+U0cBdhC1vIT+E0cFN7MxWLsdwaOCZyOtO03DDKirpEyWixe3sk55XWMDuTRdkYLLYqTyQ6nxxIIjb6bnfYzH+1c7Uepcbaysa1nLKxmWaRnncu5OSxrjzm5PLHOZKcKmfSqZFtm1lOhm8TOQOlb9NTj5yMN9mfihzFcc3Q1uRjLLwvw3NrjGeVjFaIfM/8AN7CnV17uX0Lk8cLsuMcWmaavhWttGMbcxGWP1p+YrhD4aaT5kYmFvdIVkhjYH1Wg2mW9nBWdY4aCBp7IHHUx/wC1JlDyirrx0LLPh3U9QP3NpLj+Zhyj96pGuT6QpySDjwJqYXJe3B9OerexIil+wr1DQr/T8+NbsFH513H60uVcl2WTAgu1LCe8PrgbVMByeVCpBGxBztQx4CNtM4gErvaz4Ese+/5h61zLYODx4NKhmO5BV6fHQsCBjcUIzcXuReuW1kFprc+nnw5cSxH8pPT5V2NNrc8M2JRs64YbLcabqEQKSBXP5T2roboyH1zsg8MRX2gvzGSA7divakyq+jfXqYvsW/F3lhJhubb8y1T5RHtRmiaTV11BQtwAxHRsYai57uzJsdX4A5fkJIYFfU9arlIDsz2gLUPhZo/vB5x+FsVn1EoOPyM1jwLo0Zk5CcKO1c3c2sGZ2HlTlPXNLKbjYyAGq5IDTXY5uQH506mre+ehVtm1fuSRzjGNxXSSSWEc9vPLDIVllHMkbsPUKathlTfmIOGBB9DUAXTgDgt9fmF7dgiyjbYf+4fT5U+mrc8sVZNRRc+Kbv8Ah8gtogERFHKo2GKvfLa8I6PptKnDcVGTVHZz5jSFM6TqSDLG7dz+I02MjJZBILvrGLUrUx3EfOD0ON1+VWksrkxygig6hpzafdNCxyBup9RWSSwxEo7WDeHmqgK3xNxCmkSpDEoeYYbJ6CqOveeo9O9Jh7fu3+ekQ8NfaRLZ3IiukAhduo/LWazR45gN1XpcJRzV2dVttbtZ4FkWVGDDOax5S4POSrlF4ZeG+dehOKiNhtigWImWoAhdetQIO69agSBlzUIQtH1qEB5Ys+9QKZA0P1qByRPD6gUAo0Nt7UApm6WgxuKJMhNtCYXDR5BHequKksMmRmuoDAR8K5Hr1rnW1ODGRWVkgubhfDcBF5n22FKb4fBePZX7uOZs79OtUTkOUkIr23ctlDyEnt0q6nJdMdCzAslMyMVJUn3FNWqsXkcrQZp5l6KhP/bVv1lhdWHkvLhc7Rj5LQ/WWDFM3XU7skrz8o7copb1lr4yHJqxeX/MZnJ65NZ5WN9stuJo4gu2NsVTJNxiaeO2QtIwUDuaHfCInkrt5xAL3mitmKoCAzfzD2rRTT8uStjcFljzQLK91SRYrOB5W74Gw+Zrqxi30c5o6FpX2a6rOYxLNEmSOYDJIFPjQ2Lk1FZZ0jUbOLQtDgtbccqIMfOtFvwhhFND/FueSqi453xnOaxqR6CVWEWHStFubtAzjw09T1Naq65SORqNVXW8Llh1/Jp+iR+bleTHerzca1yZ6IXal8dFV1Hi/CuwcKijO1Y5an6O9p/SV1g57qP2l6hc3LJZHkQHHMdyapvk/J24+l0Vx+ayxxoPHNxKyW2oMreJtnsavC1rhnN1fp1bTlWjOsSWKXINudzu0a9AaXY1n4mGn0mU/lJ4QL4iFQ+6gnG9Uz9i9T6c6lui8m4jFE5gk1y2If4qJ2jlQYBHf0rPfHKybNJZh7H0Z0niznRYr18fl5jWFxa6NM6sPgcG7gnHlZWyNsVVPD4KLKAp8xPtzfMdq3VatriRrqv8Mlg1m7t0Matzoa6cLsr4vJoxCXJHNqbTDzoPrVnY/JdPHTAZJ1UEqig+1JsuUVkpK3HbBHklfJ6CsE9TJ9GeWofg05S/U5NIlNy7M8ptmrDlXFLbKogeRYgSzAAVVsskI77X4nYxWzhmGxYdBTqqXJ5l0VsnsXBtpiXOoXCW9vG800hwqqMk10YRx8YmGTzyzr3CX2ZRWypcaxiWY7iLPlX5+tba6UuWJbydBttNtbeMIkMaqNsADFPSRUzLoem3pMctnDKD1ygobUyrk0ssd6faQ2NusEEaxxIMKqjAFNikujFZJyfJUPtIt3NmL6JCfC2fHpWTVx43I7noliUvak+ymaJoeo6wQ8cYjjP5nrLXCUjr6q+qrt8l203gcw4aa4JI7KMVthRjs4dvqCfEUMZ9PsbGP72U7epq7UYrkTXKdr+KKxrGmaFqR5mlkjZfzhqzT9tm39HdJcopd8vD1tcGCPiC25+6yHGPrSXCPhjF6Tql8thx/jBlfW7jklSZQ2A6HIIqsFhYPZyWK4LHgUItNSBGJZNM1d4bRY3kYFduvauffpszyjk6vQuVjlE+o2XzfOung+fpkZAU0AmjfKoQhZTuRQCQsKgSJkO9QhCyHvUCRsoGwWoQgMbE7UA5RobbBJqYDkwsWe1QJMtue+ahMkqwADftUJkD1G38WPy+V1OVb0NUsgpLA2qzY8+BHHxG1vM0N9GV5duYVzXHDwzdLSqS3VsnkuUuV8SFwVO+RS2jPtceGCTxJ4ZO5bqam3CCmxPNbZcsVxmqDEwZ4MdhmhkumRm1LdqDGKR5bYId1quRikZdY4BzyMFHvVcZLqQh1PiWO3k8K0AZu7N0xTY0vyOjDKyxHCup8TaiLW3WW5kfZUjH9q0QrzxBcl3KNccnQ+FPsP1aaVZdY5bW3Bz4anLt8/SujTpZLmZz7tQpvg7NoXDllo1slvaQLEi7bDc/Ot0YpdGaUy02NsEGcU6KOddZngD4stmutImWMZdRlQKpqI7oPBp9LsVd6cuhFwdoAUC6uhzynop6LWXS08bpHU9X12f4dfRatX1CHR9OluXIVUXNbbJqEXJnB0lEtRaq15OSySa3xdeO9rEwjJ2ZtgBXDzbqJZj0fQIx0vp9ajN8mvEPAeoWGhXV3PdozKhPIBTnpJQjukymk9bquvVcInKLMcpxjfNQ7NvLH1javKysFzg5+VAy5wWSy01m8x3z1JqJGeywG151Wa1063bmldwzAdgKEvoz2y20ynIZKuB0onkwK/txLbyKCASDjPrVZLKwXhLDyUG4YLFIFXknGzoexHXFYXFptM60J7sZB7LVprOKNkcgoSGyc5+lUcU0NlDLHNvxpEyq1ypAbYkChta5F+w/Axj1myu0LRzKPfNGNjj1wUxKJ4SRyglXB+tW92UvIXORghOuRVclMs0d4gPM4AHvQyivILNqtjbIS88Y9s71OPAVCTEeqcWxQExxRsWI2J6UVXJjYV55Ktquq3t43KZsK3RVPb1rRTVHyCdkYLg1sk8JQB//ALWkxNuXLOk/ZHrVnpnE8YvFXlnXw1c/kan0SSlyJsg2sI+h2t1KCWNuZDvkVva8ozxs5w+zCkdM1XIwZWsaogxTIox2SbYSXCrVhCWQS/gS7tpIZFBVxjBoNZWB1UnCSkhXo8AtcwgABTgUmuO3g3ame9bgvXdYh0XTJbyU4CLn50yyxQi5Mz6PSy1FqrXk4vf8Waxr107xQzMpPlVR2rhzussfB9Bo0Wn0sMAmqx69DpNxLLZ3Each8+OlGMJr8lwOpt08rFGMlk5BKsjSNzZLZ3zW3Bvnlsi8Ik7ijgU4/YTDYmTsRU3YKN46GENgOTcUtyFtn1UVyDmn4Pk5EwyTQCRmgEjYdagUR8o3OKhCNvlQDghcb+tQJGybEYFQBoU+VQKNTHnOT+lQJssZA2AqE4JFj71CGWAAqEQHcDOc0CyK7q9hGzGYpzHGCOnyNItq3crs10XuK2+CrRXNxbSOVblic/iAzgjtWJrwdCSjJcdmkfEE5WXmkXmXJUFeoqu1C3Svo0HFKspRoUZ8Z2NBRyRacGs+KhczGBrQeJ+XDdaqoZeC8qNqzk0TiqWS7+GFrGPNy5znFRR5wF0pR3ZA7viS5+PNuxEIG3lGc1NiyXjWtuUJLzUbx7t3aUuqbeY9PpVsLwXzFLABN96kt1zYUDcsdzVkm3gtGeFg65/4Z7WC7vdVu2RWkiRVUnsDmuroa8NtnP8AULOEjuzFVY1uZjWWiW0RZWJ7CpHkXa3FDFSFXAphjaywS5mG6nodqDZorh5A9NlW3maPYAnIpcOHgffFzjuBeM41v7SC1J8skg5h6iqamO6O00ejydNkrPKQQsun8NaWJGCIFXYVZbaoCXG7W3bVyc+4i4q1XiGOW3srGSSBts46isFt87OIrg9XofTtPpGp2T5OZfwiaLUnikQoc55T2pSfGGd2c4uO5Fu0jTVi3Zd8daiMNk/oB4p4xh0VPgrHE17J5VUfl+dWXJajTbvnPhFj4N4Du7fSm1u8dbi6mXnfnHT2Fa4UcbjzvqPqMbbfZxhIcfw20v7MvCvhTDpg7Zqe1GS4OXbBwkVi5iaJmjYeYHFZGsPDKplP4n0cuy3tuD4se7AfmFKnDcaabtnD6KbaMl3NPAzcjAcwz+9ZXHB0fd8o88PiIyQoxCnBoJYQyNnlsgEjJatFy4bn696C6LrDeSW0uXhjmDu6sBkeYiooplZLPRi31K4mlw0vKgGdyaGxfQHFJZIJb+Yyl2eXwmO2/arKCCksfuC35a5ZZlzjGAKuuCsJqOUwG6uB4G45picLv296bCDb/YTO3b0awxsTztux60zrhGOT3PIbGCKBAy2uHhdXQlWUggjsaKeCYPoj7M+OTq+kosjc0sQCSKf61upt8FLqFYty7L0PCnHPC3XqvpWhpPlGSLcXiQTaXJxyN1XapGXgpZX5QZ4w5c0zJn2PILLMWY5oZHRhhADyrFNzjp3qr+x8U2sMVcZL/EdPhgz5XkGaVet0cG301+zY5fsbWtlpHDlkss/hq2O/WgowqjlhlZqNXPbACbiOHiAtptrZPNFKOVm5fKB60r3/AHHtijWvT5aRe/ZPDRyT7QPsrveHZGvdN/xVoxyUx5k/3oSg4HofT/WK9SttnEisaRwjq2rWkt3Bp0pji3PqfpQUZNcD79dRVNQlLkXrd2sLskpKOpwVYYINLaZoxlZTCUvrLH+epquGV2n0+QWzWk+SmpXIqBI2X0oBImB9N6hMmjCoE0K9aBCLkyTUQTRkqBNeTPXpUIeEYBqANggye9QhkIKgTR1qBTBJh19aARbdRc4O1QsVDVtMktRcPar5Jd2Ttn1HvSZ1KXQ+q1prJXviLa7mjjij8Fubkfm6g1mlBp8m2NjxuzkV3dutnKG8VW8+NqWlyPVueAZoDaymaRvDOfLvUUeQu3PCBUf784bBLbGqpcl3LgjYoLiXxXPOpzkbk0MeQe59CvUL4W5KRseYnJz1NNqrcuWLlLnkHhe4u4DCwKxscmnbFF5RR2HYP/D1qi6PxLJYkERXUWPqK1aWzEsMx6mLnHJ9B3cJViy7qehrdJCqZprBpYTGOVkJ2NVi8MvfDMcobc4K7U4wY5ArjBY5PSqs019AMuxDKcMKqx8eOH0BapeCaKJzsY2BNUk8odRXsk0vIulT/wAx6mqSufhYAMjsTS2vclh9I1Vz/S1Nx/Jh95rmlaJCYYFjyBirSthBYQunRX6l7psoT2DcT8Qc1qgDPuWxstYsOyfB6T3Y6TT4sfQ5v+D5ooGhXUkg2wzKN6f+m+2c6Hq0XyoZKpo/AFgdeSNWa4k5uZ5X3JqKCztQ631C11ucuDtNzGmn6DJGq8qrHjH0rc1tieRg3Zemc00vUvxDm/McVjrkeh1NRprEalxMv5uvzpd8ecnJlHDEdxEGUg7ikERSdf4XSeU3Nv8Adzb7jv8AOg4pja7HEqcTXmjzyi4jZlI2K+vvSZVmqNqlwaWWrwOJTKfvgeYc3TNUlW0OUn0ujaG+tponeXdgdznFV2vJbe10CQX9q/iGbKrjy4/pVvbeS2944A5dWMikDJAHlUUxVPJVWJJsgWe9mRkOQG9e1N2RQj3Pomt7Tw133PqajYp5fYWiYqgCZRioEZ6Fol9r9/HZWEDzSueijYD1PpVowcuEDKXZ9CcFfZyOFtLAkYG6k80pHr6Vphp3F7mxSujueB+HktmyDjFaIvAyUFJBMd6suN+R/wCtX7M+xw75QZFcsBhutRPHZVwT5RszBupo5AlgDkIJIPShkbtBLuFpYcJ5uU8wFVkuBtcsPkVWWlS67q7Pfq/gRbKjdDSFW7JfI3z1K01GKu2XBLSK2jENpEsY6ZArWopLEThu2U3useRNxL4clt8PsQBg0q3GMG7QpqW8X8DWIhsL3IHIGIAxQ0vTGesyzOOOzjOv8M2tzxZdBoVw756Ul/mdivUSWmWGWvT/ALPtOFqmLVP0p6rWDiWay3c/kdROwxtSsnANT0qEI2yTgUAmpU1CEbCgFEZU1AmvLjfvUIaFc5NQJ7l/SoQxyVCGwX2qEMFTUIiJ84JqFkCSrtQCgKWPANTAciy5hDgjFAJVtY0GK5y6gxydmXY1Gk+y0ZOPKKNrui6qpysgkC9NsUr2V4NEdQ12hBez6gyBJEbK7ddqp7WGNWoWOCKLUZlx4kJZgPWqOn6L/qE0Qv8AFXExlLlD7VeMIxWMAdueiaGyUsXk87nfJoZ8IG5ssHDPDt3xHq0GmWSgyynqeijuTRhBzeEBtJZZ9O8CfZnpfCFn5EE1464kuGG59h6CunXRGKMdl7bwhwL9rWRoJRzIDjerKeOGXdW5bkS8qS4lhIJHao15RaM2vjIIjujjByDRUikqvogknBJ3qNjIwwgOV981XI5RIJYUu0YEhSaDWS0W4FU1JdZ0xZLa0gYiQ58VfSsst8eEdeh6ezE5vrwU+/0TVJA0kkkrSH3rNKuXbO1Vqq+l0XH7LtH1HTbe9vb5iCw5UB9K16SDjmTOJ63qK7ZRrgTaxcymSQ8xq0pC6a1hII+z2zaa6mvJNyWwPlU03Lyynq01GCgi08d3wsuH598EritN0sQZxvTKt96OR6RcdMmsVbPSapDydfFtSfTem2LMTjWoUyrkGsYgXXEAZTmgWQh1HS45w2VH6UCyKpqPD0ZJPhj6VBkZNCeXQgpIAOKgxWMGOkqn5KmWFSZlLFF6Jj6UMsBIIAO2KBDcR4FQhnFQgTpmnzarfwWMGPFncIuem9GMdzwBvCyfVX2dfZ/Y8HaUqIqyXUgBlmI3Y/7V1aqlBHMuucuEWa9XC5A2pkkVpYhu1ySTWZnVr6wLJSyHaomNwjeDU3iOGPMKupfYqVK7Qygvop1wG5T6GrYz0Iace0btCzklcEexquGWjZEwtvNnyqamGW3w8hcMMsa80jqgq6TETnF8RRFeavHbxlImye5qSngNWmcnmRWL6+8TmJOayzkdimrA70ZPgeHXkOxkyafQsQyc3Xy9zUbfo5LqLiXil8fWszfzOvBYoOh6e4FonyrZF8HBsj8h71981nOUe7dKhCMrQIaYxmoE1IFAiI2HvULGmKATXk61CHht5cUUA9y4GaAT3TbFQhhlJH71CZIWB71Ag0i7kUAgkkfcmoEBnjGTj9agRXcx5B7UAoUXdojg5GaBYr17o8L58ooFkJLnQYwTsKDLJgMmkBOlUaLqRC1kUqjRdM6j/wCH20B4pupGAJS32PzNadIvkxdz+J9FqNsV0jAItatsMXHekTR0NPPKwJFu5LZsqx2qqk0aXWpBlvrqyeWVMn1FXU0+xboceYsMTknXmjY/Wpt+iqnjhnvh855zjHpQwX3/AECOMMcVXI+KMxzMNjgj3qKRJVoIht4rpv8AIjLepFWSTFSnKC7Jr8xafZGBRudzgVaWIxwKo3W2b2UbVJMh/esU2d6mPKLlwVZLBp8ZAG4zWvTxxE4fqlrlNorv2saiRafDgnBIFU1UuMGv0WrD3HP9JfBFZ6zpah5LOjA27D2rR4OVJci2SsTMrWHgEmT0qoUAzRbGoHIrurVWB2qFkJ7iwAJ2FQORdLaAE7CgWRA1otQmSB7UelTAckLW/KKGA5ImioBM2s8tlcR3MDlJImDKw6giinh5ROz6w+zbiwcV8O288gInVQsm22RXVptU4nL1FTrlnwyzXC8y01lK3gTXcBIYikSidGqYmlHmKntSjd4yL5jy5xRCkQLdMp2JqZJsCoNVlj6MaKmxbpiwpdemA/GaO9lf08SGbWJpersaDk2MjVGPQBLds/Umltj4xIYVa9u4rVTu7b/Kl/k8GjKrg7H4LVxFOtjYJaJsFWtsvjHBwKP4k3NnHIJTdcRzN6NisS5kegn8aUdGtCVgUe1bo9HBm8s//9k=;" vertex="1" parent="1">
                    <mxGeometry x="550" y="100" width="270" height="202.5" as="geometry"/>
                </mxCell>
            </root>
        </mxGraphModel>
    </diagram>
</mxfile>